<?xml version="1.0" standalone="no"?>
<!DOCTYPE svg PUBLIC "-//W3C//DTD SVG 1.1//EN" "http://www.w3.org/Graphics/SVG/1.1/DTD/svg11.dtd" >
<svg>
<metadata>
Created by FontForge 20090622 at Wed Jan 11 07:29:53 2017
 By deploy user
Copyright (C) 2006, 2007 Hoefler &#38; Frere-Jones. http://www.typography.com
</metadata>
<defs>
<font id="SVN-GothamRoundedMedium" horiz-adv-x="587" >
  <font-face 
    font-family="SVN-Gotham Rounded Medium"
    font-weight="500"
    font-stretch="normal"
    units-per-em="1000"
    panose-1="0 0 0 0 0 0 0 0 0 0"
    ascent="800"
    descent="-200"
    x-height="528"
    cap-height="705"
    bbox="-49 -275 1180 1130"
    underline-thickness="50"
    underline-position="-50"
    unicode-range="U+000D-U+FB04"
  />
<missing-glyph horiz-adv-x="500" 
d="M0 -200v1000h500v-1000h-500zM71 750l179 -390l179 390h-358zM50 -76l172 376l-172 376v-752zM450 676l-172 -376l172 -376v752zM250 240l-179 -390h358z" />
    <glyph glyph-name=".notdef" horiz-adv-x="500" 
d="M0 -200v1000h500v-1000h-500zM71 750l179 -390l179 390h-358zM50 -76l172 376l-172 376v-752zM450 676l-172 -376l172 -376v752zM250 240l-179 -390h358z" />
    <glyph glyph-name=".null" horiz-adv-x="0" 
 />
    <glyph glyph-name="uni000D" unicode="&#xd;" horiz-adv-x="0" 
 />
    <glyph glyph-name="space" unicode=" " horiz-adv-x="300" 
 />
    <glyph glyph-name="exclam" unicode="!" horiz-adv-x="302" 
d="M115 252l-35 408q-2 18 8 30.5t27 12.5h72q17 0 27.5 -12.5t8.5 -30.5l-35 -408q-5 -36 -37 -36q-31 0 -36 36zM80 64v10q0 29 20.5 49t50.5 20q31 0 51 -20t20 -49v-10q0 -29 -20 -49t-51 -20q-30 0 -50.5 20t-20.5 49z" />
    <glyph glyph-name="quotedbl" unicode="&#x22;" horiz-adv-x="487" 
d="M282 433l17 214q2 25 17.5 40.5t39.5 15.5h40q32 0 32 -33q0 -11 -4 -22l-73 -222q-11 -31 -36 -31q-15 0 -25 10.5t-8 27.5zM62 433l18 214q2 25 17.5 40.5t39.5 15.5h39q15 0 24 -9t9 -24q0 -11 -4 -22l-73 -222q-11 -31 -36 -31q-15 0 -25 10.5t-9 27.5z" />
    <glyph glyph-name="numbersign" unicode="#" horiz-adv-x="700" 
d="M114 56l18 105h-46q-22 0 -37 15t-15 37q0 21 15 36.5t37 15.5h64l30 174h-58q-21 0 -36.5 15.5t-15.5 36.5t15.5 36.5t36.5 15.5h76l20 119q3 20 17 31.5t35 11.5q24 0 39.5 -18.5t12.5 -42.5l-18 -101h157l20 119q3 20 17.5 31.5t35.5 11.5q24 0 39.5 -19t11.5 -42
l-17 -101h46q21 0 36.5 -15t15.5 -37q0 -21 -15.5 -36.5t-36.5 -15.5h-64l-30 -174h57q22 0 37 -15t15 -37q0 -21 -15 -36.5t-37 -15.5h-75l-21 -123q-3 -19 -17.5 -31t-34.5 -12q-24 0 -40 18.5t-12 42.5l19 105h-157l-21 -123q-3 -18 -17 -30.5t-36 -12.5
q-24 0 -39.5 17.5t-11.5 43.5zM257 265h156l30 174h-156z" />
    <glyph glyph-name="dollar" unicode="$" horiz-adv-x="642" 
d="M285 699v21q0 18 13 30.5t31 12.5t30.5 -12.5t12.5 -30.5v-22q81 -9 155 -55q30 -17 30 -48q0 -23 -16.5 -39t-39.5 -16q-15 0 -30 9q-56 34 -103 44v-192q114 -29 165.5 -77.5t51.5 -128.5q0 -81 -58.5 -134t-154.5 -61v-60q0 -18 -12.5 -30.5t-30.5 -12.5t-31 12.5
t-13 30.5v62q-111 12 -205 78q-27 16 -27 48q0 23 16 39t39 16q19 0 33 -11q69 -52 148 -67v197q-112 28 -163 75.5t-51 130.5q0 80 57.5 131.5t152.5 59.5zM467 188q0 34 -21.5 56t-77.5 39v-182q48 5 73.5 28t25.5 59zM193 515q0 -33 20.5 -54.5t75.5 -38.5v177
q-47 -5 -71.5 -27.5t-24.5 -56.5z" />
    <glyph glyph-name="percent" unicode="%" horiz-adv-x="849" 
d="M212 350q-72 0 -118 51.5t-46 125.5v2q0 76 46.5 127.5t119.5 51.5t118.5 -51.5t45.5 -125.5v-2q0 -74 -46.5 -126.5t-119.5 -52.5zM154 34q0 13 9 26l459 627q10 18 34 18q17 0 28.5 -11t11.5 -28q0 -13 -9 -26l-459 -627q-12 -18 -35 -18q-17 0 -28 11t-11 28zM635 -8
q-72 0 -118 51.5t-46 125.5v2q0 76 46.5 127.5t119.5 51.5q72 0 118 -51.5t46 -125.5v-2q0 -74 -46.5 -126.5t-119.5 -52.5zM214 427q34 0 54.5 28.5t20.5 71.5v2q0 43 -22 72.5t-55 29.5q-34 0 -54.5 -28.5t-20.5 -71.5v-2q0 -43 22 -72.5t55 -29.5zM637 69q34 0 54.5 28.5
t20.5 71.5v2q0 43 -22 72.5t-55 29.5q-34 0 -54.5 -28.5t-20.5 -71.5v-2q0 -43 22 -72.5t55 -29.5z" />
    <glyph glyph-name="ampersand" unicode="&#x26;" horiz-adv-x="696" 
d="M600 -10q-24 0 -43 19l-73 74q-98 -93 -216 -93q-100 0 -164.5 55t-64.5 145v2q0 132 149 196q-58 74 -58 146v2q0 73 55.5 124.5t145.5 51.5q82 0 134 -48.5t52 -120.5v-2q0 -124 -153 -182l119 -121q24 35 58 100q13 29 46 29q22 0 37.5 -15.5t15.5 -36.5q0 -14 -7 -27
q-31 -58 -76 -123l78 -78q19 -19 19 -42t-15.5 -39t-38.5 -16zM298 425q56 21 83 46.5t27 62.5v2q0 35 -22 57t-57 22q-38 0 -61 -23.5t-23 -60.5v-2q0 -46 53 -104zM280 92q69 0 133 62l-156 159q-94 -41 -94 -117v-2q0 -45 33 -73.5t84 -28.5z" />
    <glyph glyph-name="quotesingle" unicode="'" horiz-adv-x="269" 
d="M62 433l18 214q2 25 17.5 40.5t39.5 15.5h39q15 0 24.5 -9t9.5 -24q0 -11 -4 -22l-73 -222q-10 -31 -37 -31q-15 0 -25 10.5t-9 27.5z" />
    <glyph glyph-name="parenleft" unicode="(" horiz-adv-x="441" 
d="M346 -135q-20 0 -29 7q-254 152 -254 415t254 415q9 7 29 7q18 0 32 -15t14 -34q0 -26 -20 -41q-97 -68 -142.5 -147t-45.5 -185t45.5 -185t142.5 -147q20 -15 20 -41q0 -19 -14 -34t-32 -15z" />
    <glyph glyph-name="parenright" unicode=")" horiz-adv-x="441" 
d="M94 -135q-18 0 -32 15t-14 34q0 25 21 41q97 68 142.5 147t45.5 185t-45.5 185t-142.5 147q-21 16 -21 41q0 19 14 34t32 15q20 0 29 -7q255 -153 255 -415t-255 -415q-9 -7 -29 -7z" />
    <glyph glyph-name="asterisk" unicode="*" horiz-adv-x="430" 
d="M184 414l10 90l-75 -55q-13 -10 -25 -10q-14 0 -23.5 10t-9.5 24q0 21 23 31l88 38l-88 39q-23 10 -23 31q0 14 10 23.5t24 9.5q11 0 24 -10l75 -55l-10 89q-2 16 7 27t24 11t24 -10.5t7 -26.5l-10 -90l75 55q13 10 25 10q14 0 23.5 -9.5t9.5 -23.5q0 -21 -23 -31
l-88 -39l88 -38q23 -10 23 -32q0 -14 -10 -23.5t-24 -9.5q-11 0 -24 10l-75 55l10 -89q2 -16 -7 -27t-24 -11t-24 10.5t-7 26.5z" />
    <glyph glyph-name="plus" unicode="+" horiz-adv-x="634" 
d="M260 158v139h-142q-23 0 -39 16t-16 39t16 39t39 16h142v139q0 24 16.5 40.5t40.5 16.5q23 0 40 -16.5t17 -40.5v-139h142q23 0 39 -16t16 -39t-16 -39t-39 -16h-142v-139q0 -24 -17 -40.5t-40 -16.5q-24 0 -40.5 16.5t-16.5 40.5z" />
    <glyph glyph-name="comma" unicode="," horiz-adv-x="269" 
d="M30 -117q0 22 23 27q71 23 68 90q-24 7 -40.5 25t-16.5 43v8q0 30 19 48.5t49 18.5q34 0 53 -23.5t19 -64.5v-11q0 -95 -49 -146q-43 -43 -94 -43q-31 0 -31 28z" />
    <glyph glyph-name="hyphen" unicode="-" horiz-adv-x="408" 
d="M298 247h-188q-24 0 -41.5 17.5t-17.5 41.5q0 25 17.5 42.5t41.5 17.5h188q24 0 41.5 -17.5t17.5 -42.5q0 -24 -17.5 -41.5t-41.5 -17.5z" />
    <glyph glyph-name="period" unicode="." horiz-adv-x="269" 
d="M64 64v10q0 29 20 49t51 20q30 0 50 -20t20 -49v-10q0 -29 -20 -49t-50 -20q-31 0 -51 20t-20 49z" />
    <glyph glyph-name="slash" unicode="/" horiz-adv-x="521" 
d="M0 -87q0 10 6 24l409 838q13 28 44 28q20 0 33.5 -13.5t13.5 -32.5q0 -12 -5 -24l-410 -838q-13 -28 -43 -28q-20 0 -34 13.5t-14 32.5z" />
    <glyph glyph-name="zero" unicode="0" horiz-adv-x="724" 
d="M361 -12q-135 0 -219.5 103.5t-84.5 256.5v2q0 153 85.5 257.5t220.5 104.5t219.5 -103.5t84.5 -256.5v-2q0 -153 -85.5 -257.5t-220.5 -104.5zM363 99q79 0 128 72t49 177v2q0 106 -50 178.5t-129 72.5t-128 -71t-49 -178v-2q0 -106 49.5 -178.5t129.5 -72.5z" />
    <glyph glyph-name="one" unicode="1" horiz-adv-x="396" 
d="M178 56v528l-72 -22q-11 -3 -22 -3q-22 0 -38 15.5t-16 36.5q0 42 41 53l106 34q38 11 60 11h2q26 0 43.5 -17.5t17.5 -43.5v-592q0 -26 -17.5 -43.5t-43.5 -17.5q-25 0 -43 17.5t-18 43.5z" />
    <glyph glyph-name="two" unicode="2" horiz-adv-x="613" 
d="M43 58q0 35 32 61l215 183q74 61 102.5 102t28.5 87q0 50 -32 79.5t-81 29.5q-74 0 -138 -78q-16 -19 -43 -19q-23 0 -39.5 16.5t-16.5 39.5q0 21 14 38q44 57 98.5 85t133.5 28q102 0 166.5 -58t64.5 -151v-2q0 -78 -39.5 -132t-142.5 -139l-144 -120h284
q23 0 38.5 -15.5t15.5 -38.5t-15.5 -38.5t-38.5 -15.5h-397q-30 0 -48 15.5t-18 42.5z" />
    <glyph glyph-name="three" unicode="3" horiz-adv-x="618" 
d="M311 -12q-144 0 -237 91q-20 16 -20 44q0 24 17.5 41.5t41.5 17.5q21 0 41 -16q67 -67 159 -67q52 0 86.5 29.5t34.5 76.5v2q0 51 -43 79.5t-118 28.5h-25q-22 0 -37.5 15.5t-15.5 37.5q0 24 26 50l164 175h-254q-23 0 -38.5 15.5t-15.5 37.5q0 23 15.5 38.5t38.5 15.5
h358q27 0 44 -15t17 -39q0 -32 -35 -67l-165 -171q89 -11 147.5 -58.5t58.5 -137.5v-2q0 -97 -68 -159.5t-177 -62.5z" />
    <glyph glyph-name="four" unicode="4" horiz-adv-x="682" 
d="M412 53v104h-313q-25 0 -42.5 16t-17.5 42q0 35 27 65l329 390q19 22 34.5 31t40.5 9t42.5 -17t17.5 -42v-393h54q22 0 36.5 -15t14.5 -36t-14.5 -35.5t-36.5 -14.5h-54v-104q0 -25 -17 -41.5t-42 -16.5t-42 16.5t-17 41.5zM182 258h230v277z" />
    <glyph glyph-name="five" unicode="5" horiz-adv-x="623" 
d="M308 -12q-126 0 -224 76q-25 20 -25 48q0 24 17.5 41.5t41.5 17.5q21 0 36 -12q73 -59 152 -59q61 0 98.5 32.5t37.5 88.5v2q0 53 -40 84.5t-105 31.5q-40 0 -78.5 -12t-41.5 -12q-24 0 -58 24q-25 18 -24 54l15 252q2 24 17.5 39.5t38.5 15.5h317q23 0 39 -16t16 -39
t-16 -38.5t-39 -15.5h-263l-11 -164q55 20 111 20q107 0 175.5 -56.5t68.5 -163.5v-2q0 -106 -71.5 -171.5t-184.5 -65.5z" />
    <glyph glyph-name="six" unicode="6" horiz-adv-x="656" 
d="M337 -12q-121 0 -195 74q-42 42 -63.5 104t-21.5 163v2q0 167 78.5 274t221.5 107q99 0 175 -50q31 -20 31 -53q0 -24 -17.5 -40.5t-41.5 -16.5q-15 0 -31 9q-61 39 -120 39q-76 0 -120 -61.5t-48 -160.5q36 33 73.5 51.5t94.5 18.5q106 0 175 -59t69 -161v-2
q0 -104 -74.5 -171t-185.5 -67zM334 95q65 0 102.5 35.5t37.5 90.5v2q0 54 -39 88t-104 34q-64 0 -103 -35.5t-39 -87.5v-2q0 -55 40 -90t105 -35z" />
    <glyph glyph-name="seven" unicode="7" horiz-adv-x="609" 
d="M137 50q0 21 11 38l272 504h-303q-23 0 -38.5 15.5t-15.5 38.5t15.5 38.5t38.5 15.5h393q26 0 41 -14.5t15 -40.5q0 -30 -17 -59l-290 -550q-23 -41 -59 -41q-26 0 -44.5 15t-18.5 40z" />
    <glyph glyph-name="eight" unicode="8" horiz-adv-x="630" 
d="M315 -10q-116 0 -191.5 55.5t-75.5 145.5v2q0 118 126 170q-102 53 -102 156v2q0 81 69 135t174 54t174 -54t69 -135v-2q0 -103 -102 -156q126 -57 126 -168v-2q0 -92 -75 -147.5t-192 -55.5zM315 404q54 0 89.5 29t35.5 74v2q0 42 -34.5 70t-90.5 28t-90.5 -28
t-34.5 -69v-2q0 -46 35.5 -75t89.5 -29zM315 93q67 0 107 30t40 75v2q0 47 -42 76.5t-105 29.5q-64 0 -105 -29.5t-41 -76.5v-2q0 -44 39.5 -74.5t106.5 -30.5z" />
    <glyph glyph-name="nine" unicode="9" horiz-adv-x="656" 
d="M299 -12q-103 0 -189 58q-28 18 -28 51q0 24 17 40t41 16q18 0 34 -10q61 -43 128 -43q76 0 120.5 60.5t48.5 159.5q-60 -74 -164 -74q-112 0 -180 60.5t-68 161.5v2q0 104 73 173t188 69q118 0 195 -74q84 -86 84 -267v-2q0 -171 -80.5 -276t-219.5 -105zM325 349
q65 0 103.5 36.5t38.5 89.5v2q0 56 -40 92.5t-106 36.5q-64 0 -101.5 -37t-37.5 -93v-2q0 -55 39 -90t104 -35z" />
    <glyph glyph-name="colon" unicode=":" horiz-adv-x="279" 
d="M69 455v9q0 30 20 50t51 20q30 0 50 -20t20 -50v-9q0 -30 -20 -50t-50 -20q-31 0 -51 20t-20 50zM69 64v10q0 29 20 49t51 20q30 0 50 -20t20 -49v-10q0 -29 -20 -49t-50 -20q-31 0 -51 20t-20 49z" />
    <glyph glyph-name="semicolon" unicode=";" horiz-adv-x="279" 
d="M69 455v9q0 30 20 50t51 20q30 0 50 -20t20 -50v-9q0 -30 -20 -50t-50 -20q-31 0 -51 20t-20 50zM35 -117q0 22 23 27q71 23 68 90q-24 7 -40.5 25t-16.5 43v8q0 30 18.5 48.5t49.5 18.5q34 0 53 -23.5t19 -64.5v-11q0 -95 -49 -146q-43 -43 -94 -43q-31 0 -31 28z" />
    <glyph glyph-name="less" unicode="&#x3c;" horiz-adv-x="634" 
d="M497 96q-11 0 -27 8l-361 177q-48 23 -48 67v8q0 44 48 67l361 177q18 8 31 8q20 1 34.5 -14t14.5 -37q0 -34 -34 -50l-329 -154l329 -155q34 -16 34 -51q0 -23 -15 -37t-38 -14z" />
    <glyph glyph-name="equal" unicode="=" horiz-adv-x="634" 
d="M507 421h-380q-23 0 -39.5 16.5t-16.5 39.5t16.5 39.5t39.5 16.5h380q23 0 39.5 -16.5t16.5 -39.5t-16.5 -39.5t-39.5 -16.5zM507 171h-380q-23 0 -39.5 16.5t-16.5 39.5t16.5 39.5t39.5 16.5h380q23 0 39.5 -16.5t16.5 -39.5t-16.5 -39.5t-39.5 -16.5z" />
    <glyph glyph-name="greater" unicode="&#x3e;" horiz-adv-x="634" 
d="M137 608q11 0 27 -8l360 -177q49 -22 49 -67v-8q0 -45 -49 -67l-360 -177q-18 -8 -31 -8q-20 -1 -34.5 14t-14.5 37q0 34 34 49l329 155l-329 155q-34 16 -34 51q0 23 15 37t38 14z" />
    <glyph glyph-name="question" unicode="?" horiz-adv-x="541" 
d="M251 216h-6q-17 0 -29 11.5t-14 28.5l-10 86q-3 20 8 34t31 16q146 14 146 108v2q0 43 -31 69t-84 26q-75 0 -136 -55q-19 -14 -37 -14q-23 0 -39.5 16t-16.5 39q0 27 20 43q86 83 212 83q106 0 170.5 -55t64.5 -148v-2q0 -88 -55.5 -137t-146.5 -65l-4 -46
q-3 -18 -14.5 -29t-28.5 -11zM174 64v10q0 29 20 49t51 20t51 -20t20 -49v-10q0 -29 -20 -49t-51 -20t-51 20t-20 49z" />
    <glyph glyph-name="at" unicode="@" horiz-adv-x="980" 
d="M499 -162q-190 0 -318 127.5t-128 308.5q0 180 127.5 309t310.5 129q90 0 171.5 -33t139 -87.5t91.5 -126.5t34 -149q0 -120 -55.5 -184.5t-138.5 -64.5q-104 0 -148 70q-68 -70 -155 -70q-77 0 -129 52.5t-52 136.5q0 104 69 177t158 73q91 0 141 -74l3 18q9 50 52 50
q23 0 38 -17.5t10 -43.5l-38 -214q-5 -32 -5 -43q0 -33 21 -52t57 -19q57 0 94.5 53.5t37.5 151.5q0 142 -115 250t-281 108q-169 0 -283.5 -117t-114.5 -283q0 -168 115 -283t291 -115q129 0 238 62q5 3 11 3q7 0 11.5 -5.5t4.5 -12.5q0 -11 -9 -15q-119 -70 -256 -70z
M457 154q55 0 96.5 47t41.5 111q0 48 -30 78t-75 30q-55 0 -96.5 -45.5t-41.5 -112.5q0 -51 28.5 -79.5t76.5 -28.5z" />
    <glyph glyph-name="A" unicode="A" horiz-adv-x="773" 
d="M42 52q0 10 8 28l260 580q24 50 74 50h6q49 0 73 -50l260 -580q7 -13 7 -26q0 -25 -16.5 -42t-41.5 -17q-42 0 -60 43l-57 131h-340l-59 -135q-16 -39 -57 -39q-24 0 -40.5 16.5t-16.5 40.5zM262 278h246l-123 283z" />
    <glyph glyph-name="B" unicode="B" horiz-adv-x="722" 
d="M90 62v576q0 26 18 44t44 18h252q121 0 183 -62q47 -47 47 -116v-2q0 -104 -100 -156q68 -24 103.5 -63t35.5 -107v-2q0 -92 -70 -142t-189 -50h-262q-26 0 -44 18t-18 44zM211 405h168q62 0 97 24t35 71v2q0 42 -31.5 65.5t-91.5 23.5h-177v-186zM211 109h204
q64 0 99.5 24.5t35.5 71.5v2q0 94 -144 94h-195v-192z" />
    <glyph glyph-name="C" unicode="C" horiz-adv-x="738" 
d="M415 -12q-152 0 -254 104t-102 256v2q0 152 102 257t259 105q137 0 240 -79q24 -20 24 -49q0 -26 -17.5 -43t-43.5 -17q-23 0 -37 12q-78 63 -167 63q-99 0 -165 -72t-66 -175v-2q0 -104 66 -176t165 -72q96 0 175 67q16 14 37 14q23 0 40.5 -17t17.5 -40q0 -24 -20 -44
q-107 -94 -254 -94z" />
    <glyph glyph-name="D" unicode="D" horiz-adv-x="782" 
d="M90 62v576q0 26 18 44t44 18h199q163 0 267.5 -99.5t104.5 -248.5v-2q0 -150 -104.5 -250t-267.5 -100h-199q-26 0 -44 18t-18 44zM213 112h138q109 0 176 66t67 170v2q0 104 -67 171t-176 67h-138v-476z" />
    <glyph glyph-name="E" unicode="E" horiz-adv-x="670" 
d="M564 0h-412q-26 0 -44 18t-18 44v576q0 26 18 44t44 18h407q23 0 39 -16t16 -39t-16 -39t-39 -16h-346v-182h301q23 0 39 -16.5t16 -39.5t-16 -38.5t-39 -15.5h-301v-188h351q23 0 39 -16t16 -39t-16 -39t-39 -16z" />
    <glyph glyph-name="F" unicode="F" horiz-adv-x="656" 
d="M90 56v582q0 26 18 44t44 18h408q23 0 39.5 -16.5t16.5 -39.5t-16.5 -39.5t-39.5 -16.5h-347v-191h302q23 0 39.5 -16.5t16.5 -39.5t-16.5 -39.5t-39.5 -16.5h-302v-229q0 -26 -17.5 -43.5t-43.5 -17.5t-44 17.5t-18 43.5z" />
    <glyph glyph-name="G" unicode="G" horiz-adv-x="784" 
d="M422 -12q-162 0 -262.5 102.5t-100.5 257.5v2q0 150 102.5 256t258.5 106q142 0 239 -71q25 -19 25 -50q0 -25 -17.5 -43t-43.5 -18q-16 0 -38 14q-75 55 -170 55t-161 -73t-66 -174v-2q0 -109 66 -179.5t172 -70.5q98 0 169 53v131h-138q-23 0 -39 15t-16 38t16 38.5
t39 15.5h195q26 0 44 -18t18 -44v-187q0 -51 -43 -78q-114 -76 -249 -76z" />
    <glyph glyph-name="H" unicode="H" horiz-adv-x="760" 
d="M90 56v588q0 26 18 43.5t44 17.5t43.5 -17.5t17.5 -43.5v-235h334v235q0 26 17.5 43.5t43.5 17.5t44 -17.5t18 -43.5v-588q0 -26 -18 -43.5t-44 -17.5t-43.5 17.5t-17.5 43.5v239h-334v-239q0 -26 -17.5 -43.5t-43.5 -17.5t-44 17.5t-18 43.5z" />
    <glyph glyph-name="I" unicode="I" horiz-adv-x="317" 
d="M97 56v588q0 26 18 43.5t44 17.5t43.5 -17.5t17.5 -43.5v-588q0 -26 -17.5 -43.5t-43.5 -17.5t-44 17.5t-18 43.5z" />
    <glyph glyph-name="J" unicode="J" horiz-adv-x="560" 
d="M245 -10q-114 0 -191 77q-21 21 -21 46t17 42t42 17q21 0 38 -14q54 -54 114 -54q53 0 83 34.5t30 103.5v402q0 26 18 43.5t44 17.5t44 -17.5t18 -43.5v-406q0 -120 -66 -186q-62 -62 -170 -62z" />
    <glyph glyph-name="K" unicode="K" horiz-adv-x="713" 
d="M90 56v588q0 26 18 43.5t44 17.5t43.5 -17.5t17.5 -43.5v-296l332 334q23 23 51 23q26 0 41.5 -16.5t15.5 -40.5q0 -27 -22 -46l-218 -210l236 -293q17 -20 17 -44q0 -26 -18 -43t-44 -17q-30 0 -52 29l-225 287l-114 -110v-145q0 -26 -17.5 -43.5t-43.5 -17.5t-44 17.5
t-18 43.5z" />
    <glyph glyph-name="L" unicode="L" horiz-adv-x="619" 
d="M90 62v582q0 26 18 43.5t44 17.5t43.5 -17.5t17.5 -43.5v-532h317q23 0 39.5 -16.5t16.5 -39.5t-16.5 -39.5t-39.5 -16.5h-378q-26 0 -44 18t-18 44z" />
    <glyph glyph-name="M" unicode="M" horiz-adv-x="868" 
d="M90 55v587q0 26 18 44t44 18h13q36 0 57 -33l212 -332l213 333q20 32 56 32h13q26 0 44 -18t18 -44v-586q0 -26 -18 -43.5t-44 -17.5q-25 0 -43 18t-18 43v420l-171 -257q-21 -32 -52 -32q-30 0 -51 32l-170 255v-419q0 -26 -17.5 -43t-43.5 -17t-43 17t-17 43z" />
    <glyph glyph-name="N" unicode="N" horiz-adv-x="790" 
d="M90 55v587q0 26 18 44t44 18h13q35 0 64 -36l350 -453v430q0 25 17.5 42.5t42.5 17.5q26 0 43.5 -17.5t17.5 -42.5v-588q0 -26 -17 -43.5t-43 -17.5h-5q-37 0 -64 37l-360 466v-444q0 -25 -17.5 -42.5t-42.5 -17.5q-26 0 -43.5 17.5t-17.5 42.5z" />
    <glyph glyph-name="O" unicode="O" horiz-adv-x="850" 
d="M424 -12q-159 0 -262 105t-103 255v2q0 150 104.5 256t262.5 106q159 0 262 -105t103 -255v-2q0 -150 -104.5 -256t-262.5 -106zM426 102q103 0 169.5 71t66.5 175v2q0 104 -67.5 176.5t-170.5 72.5t-169.5 -71.5t-66.5 -175.5v-2q0 -104 67.5 -176t170.5 -72z" />
    <glyph glyph-name="P" unicode="P" horiz-adv-x="668" 
d="M90 56v582q0 26 18 44t44 18h214q122 0 194 -64t72 -170v-2q0 -113 -79.5 -176t-200.5 -63h-139v-169q0 -26 -17.5 -43.5t-43.5 -17.5t-44 17.5t-18 43.5zM213 336h143q69 0 110 35t41 90v2q0 61 -40 93t-111 32h-143v-252z" />
    <glyph glyph-name="Q" unicode="Q" horiz-adv-x="850" 
d="M424 -12q-159 0 -262 105t-103 255v2q0 150 104.5 256t262.5 106q159 0 262 -105t103 -255v-2q0 -119 -71 -215l45 -37q23 -18 23 -48q0 -24 -17 -41.5t-41 -17.5q-25 0 -43 18l-50 45q-92 -66 -213 -66zM547 134l-87 74q-23 18 -23 48q0 24 17 41.5t41 17.5q21 0 43 -18
l90 -82q34 58 34 133v2q0 104 -67.5 176.5t-170.5 72.5t-169.5 -71.5t-66.5 -175.5v-2q0 -104 67.5 -176t170.5 -72q65 0 121 32z" />
    <glyph glyph-name="R" unicode="R" horiz-adv-x="723" 
d="M90 56v582q0 26 18 44t44 18h250q130 0 202 -70q58 -61 58 -151v-2q0 -158 -159 -209l134 -169q20 -25 20 -47q0 -25 -17.5 -41t-41.5 -16q-35 0 -60 32l-170 217h-155v-188q0 -26 -17.5 -43.5t-43.5 -17.5t-44 17.5t-18 43.5zM213 353h180q66 0 105 31.5t39 85.5v2
q0 57 -37.5 86.5t-107.5 29.5h-179v-235z" />
    <glyph glyph-name="S" unicode="S" horiz-adv-x="640" 
d="M335 -10q-145 0 -263 88q-24 18 -24 47q0 24 17 40.5t41 16.5q23 0 36 -11q90 -72 196 -72q57 0 90.5 24.5t33.5 63.5v2q0 39 -32.5 62.5t-125.5 44.5q-121 28 -177 73t-56 136v2q0 90 67 146.5t172 56.5q125 0 222 -65q27 -14 27 -49q0 -24 -17 -40.5t-41 -16.5
q-17 0 -32 9q-83 53 -161 53q-53 0 -83.5 -23.5t-30.5 -59.5v-2q0 -41 33.5 -63.5t133.5 -46.5q117 -30 170.5 -75.5t53.5 -129.5v-2q0 -97 -69 -153t-181 -56z" />
    <glyph glyph-name="T" unicode="T" horiz-adv-x="648" 
d="M262 56v530h-170q-24 0 -40.5 17t-16.5 40t16.5 40t40.5 17h465q23 0 39.5 -17t16.5 -40t-16.5 -40t-39.5 -17h-171v-530q0 -26 -18 -43.5t-44 -17.5t-44 17.5t-18 43.5z" />
    <glyph glyph-name="U" unicode="U" horiz-adv-x="757" 
d="M377 -11q-139 0 -218.5 79.5t-79.5 228.5v347q0 26 18 43.5t44 17.5t43.5 -17.5t17.5 -43.5v-342q0 -97 46.5 -148t130.5 -51q83 0 129.5 49.5t46.5 144.5v347q0 26 18 43.5t44 17.5t43.5 -17.5t17.5 -43.5v-341q0 -153 -80 -233.5t-221 -80.5z" />
    <glyph glyph-name="V" unicode="V" horiz-adv-x="733" 
d="M370 -10h-7q-49 0 -70 50l-245 576q-7 16 -7 29q0 25 18 42.5t44 17.5q45 0 63 -44l202 -505l205 509q6 17 22 28.5t37 11.5q26 0 43.5 -17t17.5 -42q0 -12 -6 -26l-246 -580q-21 -50 -71 -50z" />
    <glyph glyph-name="W" unicode="W" horiz-adv-x="1099" 
d="M254 41l-207 580q-5 13 -5 24q0 26 18 43t45 17q48 0 61 -45l161 -481l158 479q19 49 62 49h9q47 0 62 -49l158 -479l161 482q16 44 60 44q25 0 43 -17t18 -42q0 -11 -6 -25l-207 -580q-18 -51 -64 -51h-12q-45 0 -63 51l-156 457l-156 -457q-18 -51 -64 -51h-12
q-45 0 -64 51z" />
    <glyph glyph-name="X" unicode="X" horiz-adv-x="714" 
d="M54 52q0 21 18 46l208 258l-196 243q-19 22 -19 46q0 26 17.5 43t43.5 17q34 0 56 -30l177 -233l175 229q24 34 60 34q22 0 39 -15.5t17 -40.5q0 -23 -19 -47l-196 -244l206 -257q19 -22 19 -46q0 -26 -17.5 -43t-43.5 -17q-33 0 -56 30l-188 245l-185 -241
q-25 -34 -60 -34q-22 0 -39 16t-17 41z" />
    <glyph glyph-name="Y" unicode="Y" horiz-adv-x="696" 
d="M287 56v216l-241 331q-14 21 -14 43q0 25 18 42t44 17q36 0 60 -37l195 -281l198 282q24 37 59 37q26 0 43 -17.5t17 -42.5q0 -21 -17 -44l-239 -327v-219q0 -26 -18 -43.5t-44 -17.5t-43.5 17.5t-17.5 43.5z" />
    <glyph glyph-name="Z" unicode="Z" horiz-adv-x="702" 
d="M589 0h-473q-22 0 -38.5 16t-16.5 38v3q0 31 23 57l394 477h-351q-22 0 -38 15.5t-16 38.5t16 39t38 16h460q23 0 39 -16t16 -38v-3q0 -29 -22 -57l-395 -477h364q23 0 39 -16t16 -39t-16 -38.5t-39 -15.5z" />
    <glyph glyph-name="bracketleft" unicode="[" horiz-adv-x="455" 
d="M88 -70v710q0 25 17 42.5t42 17.5h206q20 0 34 -14t14 -34t-14 -33.5t-34 -13.5h-149v-640h149q20 0 34 -13.5t14 -33.5t-14 -34t-34 -14h-206q-25 0 -42 17.5t-17 42.5z" />
    <glyph glyph-name="backslash" unicode="\" horiz-adv-x="521" 
d="M521 -87q0 -19 -14 -32.5t-34 -13.5q-30 0 -43 28l-410 838q-5 12 -5 24q0 19 13.5 32.5t33.5 13.5q31 0 44 -28l409 -838q6 -14 6 -24z" />
    <glyph glyph-name="bracketright" unicode="]" horiz-adv-x="455" 
d="M367 640v-710q0 -25 -17.5 -42.5t-42.5 -17.5h-206q-20 0 -33.5 14t-13.5 34t13.5 33.5t33.5 13.5h150v640h-150q-20 0 -33.5 13.5t-13.5 33.5t13.5 34t33.5 14h206q25 0 42.5 -17.5t17.5 -42.5z" />
    <glyph glyph-name="asciicircum" unicode="^" horiz-adv-x="500" 
d="M249 625l-72 -93q-20 -26 -35 -35t-37 -9q-28 0 -28 20q0 14 12 30l95 130q25 36 61 36h9q35 0 62 -36l95 -130q11 -17 11 -30q0 -20 -28 -20q-23 0 -38 9t-35 35z" />
    <glyph glyph-name="underscore" unicode="_" horiz-adv-x="600" 
d="M602 -160h-604q-20 0 -33.5 13.5t-13.5 33.5t13.5 33.5t33.5 13.5h604q20 0 33.5 -13.5t13.5 -33.5t-13.5 -33.5t-33.5 -13.5z" />
    <glyph glyph-name="grave" unicode="`" horiz-adv-x="500" 
d="M293 590q-43 0 -70 27l-68 64q-17 15 -17 30q0 14 23.5 26.5t48.5 12.5q30 0 48 -29l57 -88q9 -16 9 -22q0 -21 -31 -21z" />
    <glyph glyph-name="a" unicode="a" 
d="M228 -11q-79 0 -133 43t-54 120v2q0 84 59 127t159 43q73 0 142 -22v13q0 115 -131 115q-64 0 -117 -21q-10 -3 -19 -3q-21 0 -36 14.5t-15 35.5q0 36 33 48q83 31 170 31q118 0 175 -59q57 -57 57 -163v-260q0 -25 -17 -41.5t-42 -16.5q-26 0 -42.5 15t-16.5 36v20
q-64 -77 -172 -77zM262 77q61 0 101 31.5t40 81.5v36q-54 21 -120 21q-59 0 -91.5 -23t-32.5 -65v-2q0 -37 29 -58.5t74 -21.5z" />
    <glyph glyph-name="b" unicode="b" horiz-adv-x="671" 
d="M76 55v620q0 26 17 43t43 17t43.5 -17t17.5 -43v-235q70 99 180 99q99 0 172 -74t73 -200v-2q0 -126 -72.5 -200t-172.5 -74q-110 0 -180 93v-27q0 -25 -17.5 -42.5t-43.5 -17.5q-25 0 -42.5 17.5t-17.5 42.5zM348 94q64 0 107.5 46.5t43.5 122.5v2q0 75 -43.5 122
t-107.5 47t-109 -47.5t-45 -121.5v-2q0 -74 45 -121.5t109 -47.5z" />
    <glyph glyph-name="c" unicode="c" horiz-adv-x="571" 
d="M320 -12q-117 0 -195 79.5t-78 193.5v2q0 114 78.5 195t196.5 81q109 0 185 -66q19 -17 19 -42q0 -23 -16.5 -39t-39.5 -16q-22 0 -36 12q-52 45 -113 45q-65 0 -109 -49t-44 -119v-2q0 -71 44.5 -120t113.5 -49q63 0 118 47q13 13 33 13q22 0 37 -15.5t15 -37.5
q0 -24 -17 -38q-78 -75 -192 -75z" />
    <glyph glyph-name="d" unicode="d" horiz-adv-x="671" 
d="M595 675v-620q0 -26 -17.5 -43t-42.5 -17q-26 0 -43.5 17t-17.5 43v33q-70 -99 -180 -99q-99 0 -172 74t-73 200v2q0 126 72.5 200t172.5 74q111 0 180 -93v229q0 26 17.5 43t42.5 17q26 0 43.5 -17t17.5 -43zM323 434q-64 0 -108 -46t-44 -123v-2q0 -75 44 -122t108 -47
q63 0 108 47.5t45 121.5v2q0 74 -45 121.5t-108 47.5z" />
    <glyph glyph-name="e" unicode="e" horiz-adv-x="604" 
d="M167 301h271q-6 61 -41 100t-93 39q-56 0 -92.5 -38t-44.5 -101zM508 58q-78 -70 -190 -70q-116 0 -193.5 76.5t-77.5 197.5v2q0 116 73 195.5t185 79.5q80 0 139 -40.5t85.5 -98t26.5 -121.5q0 -26 -16.5 -42t-40.5 -16h-331q10 -64 51 -99t101 -35q68 0 125 46
q14 11 31 11q20 0 34 -14t14 -35t-16 -37z" />
    <glyph glyph-name="f" unicode="f" horiz-adv-x="376" 
d="M103 55v369h-21q-21 0 -36 14.5t-15 35.5t15 36t36 15h21v39q0 87 43 130q42 42 119 42q33 0 61 -5q18 -2 30 -16t12 -34q0 -21 -15 -36t-36 -14q-14 2 -25 2q-70 0 -70 -80v-29h94q22 0 36.5 -14.5t14.5 -35.5t-15 -35.5t-36 -14.5h-92v-369q0 -25 -17.5 -42.5
t-43.5 -17.5q-25 0 -42.5 17.5t-17.5 42.5z" />
    <glyph glyph-name="g" unicode="g" horiz-adv-x="671" 
d="M311 -162q-107 0 -204 47q-34 13 -34 48q0 20 15 35t36 15q10 0 22 -5q75 -42 162 -42q81 0 124 41t43 121v41q-75 -97 -186 -97q-98 0 -169 67.5t-71 179.5v2q0 112 71 180t169 68q110 0 185 -90v25q0 25 17.5 42.5t42.5 17.5q26 0 43.5 -17.5t17.5 -43.5v-365
q0 -132 -67 -199q-71 -71 -217 -71zM321 145q64 0 109.5 41t45.5 104v2q0 63 -45.5 104t-109.5 41t-107 -40.5t-43 -104.5v-2q0 -64 43.5 -104.5t106.5 -40.5z" />
    <glyph glyph-name="h" unicode="h" horiz-adv-x="620" 
d="M76 55v620q0 25 17 42.5t43 17.5t43.5 -17.5t17.5 -42.5v-228q66 92 165 92q89 0 138.5 -54.5t49.5 -147.5v-282q0 -26 -17 -43t-43 -17t-43.5 17t-17.5 43v245q0 62 -29.5 95.5t-83.5 33.5t-86.5 -35t-32.5 -96v-243q0 -26 -17.5 -43t-43.5 -17q-25 0 -42.5 17t-17.5 43
z" />
    <glyph glyph-name="i" unicode="i" horiz-adv-x="286" 
d="M83 55v418q0 26 17 43.5t43 17.5t43.5 -17.5t17.5 -43.5v-418q0 -26 -17.5 -43t-43.5 -17q-25 0 -42.5 17t-17.5 43zM78 681q0 27 18.5 45.5t48.5 18.5q27 0 45.5 -18.5t18.5 -45.5q0 -29 -18.5 -48t-45.5 -19q-30 0 -48.5 19t-18.5 48z" />
    <glyph glyph-name="j" unicode="j" horiz-adv-x="286" 
d="M58 -163h-9q-66 2 -66 50q0 23 13.5 36.5t34.5 13.5q2 0 5 -1h2q45 0 45 57v480q0 26 17 43.5t43 17.5t43.5 -17.5t17.5 -43.5v-480q0 -79 -38.5 -117.5t-107.5 -38.5zM76 681q0 27 18.5 45.5t48.5 18.5q27 0 45.5 -18.5t18.5 -45.5q0 -29 -18.5 -48t-45.5 -19
q-30 0 -48.5 19t-18.5 48z" />
    <glyph glyph-name="k" unicode="k" horiz-adv-x="580" 
d="M76 55v620q0 25 17 42.5t43 17.5t43.5 -17.5t17.5 -42.5v-390l227 223q26 26 52 26q23 0 38 -16t15 -39q0 -26 -27 -51l-140 -129l160 -209q16 -22 16 -40q0 -24 -16.5 -39.5t-40.5 -15.5q-32 0 -53 27l-151 201l-80 -76v-92q0 -26 -17.5 -43t-43.5 -17q-25 0 -42.5 17
t-17.5 43z" />
    <glyph glyph-name="l" unicode="l" horiz-adv-x="286" 
d="M83 55v620q0 25 17 42.5t43 17.5t43.5 -17.5t17.5 -42.5v-620q0 -26 -17.5 -43t-43.5 -17q-25 0 -42.5 17t-17.5 43z" />
    <glyph glyph-name="m" unicode="m" horiz-adv-x="950" 
d="M76 55v418q0 26 17 43.5t43 17.5t43.5 -17.5t17.5 -43.5v-25q66 91 161 91q112 0 158 -93q71 93 178 93q87 0 136 -53t49 -149v-282q0 -26 -17 -43t-43 -17t-43.5 17t-17.5 43v245q0 63 -28 96t-79 33t-82 -34.5t-31 -96.5v-243q0 -26 -17.5 -43t-42.5 -17
q-26 0 -43.5 17t-17.5 43v246q0 62 -28 95t-79 33t-82 -35.5t-31 -95.5v-243q0 -26 -17.5 -43t-43.5 -17q-25 0 -42.5 17t-17.5 43z" />
    <glyph glyph-name="n" unicode="n" horiz-adv-x="620" 
d="M76 55v418q0 26 17 43.5t43 17.5t43.5 -17.5t17.5 -43.5v-26q66 92 165 92q89 0 138.5 -54.5t49.5 -147.5v-282q0 -26 -17 -43t-43 -17t-43.5 17t-17.5 43v245q0 62 -29.5 95.5t-83.5 33.5t-86.5 -35t-32.5 -96v-243q0 -26 -17.5 -43t-43.5 -17q-25 0 -42.5 17t-17.5 43z
" />
    <glyph glyph-name="o" unicode="o" horiz-adv-x="657" 
d="M327 -12q-120 0 -200 79.5t-80 193.5v2q0 115 81 195.5t201 80.5q121 0 201 -79.5t80 -194.5v-2q0 -113 -81 -194t-202 -81zM329 94q72 0 116 48.5t44 118.5v2q0 71 -46 120.5t-116 49.5q-71 0 -115 -48.5t-44 -119.5v-2q0 -70 46 -119.5t115 -49.5z" />
    <glyph glyph-name="p" unicode="p" horiz-adv-x="671" 
d="M76 -105v578q0 26 17 43.5t43 17.5t43.5 -17.5t17.5 -43.5v-33q70 99 180 99q99 0 172 -74t73 -200v-2q0 -126 -72.5 -200t-172.5 -74q-110 0 -180 93v-187q0 -26 -17.5 -43t-43.5 -17q-25 0 -42.5 17t-17.5 43zM348 94q64 0 107.5 46.5t43.5 122.5v2q0 75 -43.5 122
t-107.5 47t-109 -47.5t-45 -121.5v-2q0 -74 45 -121.5t109 -47.5z" />
    <glyph glyph-name="q" unicode="q" horiz-adv-x="671" 
d="M595 473v-578q0 -26 -17.5 -43t-42.5 -17q-26 0 -43.5 17t-17.5 43v193q-70 -99 -180 -99q-99 0 -172 74t-73 200v2q0 126 72.5 200t172.5 74q111 0 180 -93v28q0 25 17.5 42.5t42.5 17.5q26 0 43.5 -17.5t17.5 -43.5zM323 434q-64 0 -108 -46t-44 -123v-2q0 -75 44 -122
t108 -47q63 0 108 47.5t45 121.5v2q0 74 -45 121.5t-108 47.5z" />
    <glyph glyph-name="r" unicode="r" horiz-adv-x="413" 
d="M76 55v418q0 26 17 43.5t43 17.5t43.5 -17.5t17.5 -43.5v-54q21 51 57.5 83.5t75.5 32.5q29 0 44.5 -16.5t15.5 -43.5q0 -23 -13.5 -38.5t-34.5 -19.5q-68 -12 -106.5 -63.5t-38.5 -142.5v-156q0 -25 -17.5 -42.5t-43.5 -17.5q-25 0 -42.5 17t-17.5 43z" />
    <glyph glyph-name="s" unicode="s" horiz-adv-x="501" 
d="M257 -10q-112 0 -201 63q-23 12 -23 42q0 20 14 34.5t35 14.5q15 0 26 -7q74 -51 152 -51q39 0 60.5 15.5t21.5 41.5v2q0 33 -60 55q-14 6 -58 19q-35 9 -59.5 19t-51 27.5t-40.5 45t-14 63.5v2q0 73 53.5 117t134.5 44q85 0 166 -43q29 -15 29 -46q0 -21 -14.5 -35
t-35.5 -14q-12 0 -24 6q-67 36 -124 36q-35 0 -54.5 -14t-19.5 -38v-2q0 -18 19 -32.5t39.5 -22.5t60.5 -20q35 -11 59 -21.5t50.5 -28.5t40.5 -44t14 -60v-2q0 -80 -55 -123t-141 -43z" />
    <glyph glyph-name="t" unicode="t" horiz-adv-x="411" 
d="M253 -9q-152 0 -152 155v278h-20q-22 0 -37 15t-15 37t15 37t37 15h20v90q0 25 17.5 42.5t43.5 17.5q25 0 42.5 -17.5t17.5 -42.5v-90h95q22 0 37.5 -15t15.5 -37t-15.5 -37t-37.5 -15h-95v-259q0 -66 65 -66q9 0 19 1.5t11 1.5q21 0 36 -14.5t15 -35.5q0 -34 -32 -47
q-42 -14 -83 -14z" />
    <glyph glyph-name="u" unicode="u" horiz-adv-x="620" 
d="M545 473v-418q0 -25 -17.5 -42.5t-43.5 -17.5q-25 0 -43 17t-18 43v27q-64 -93 -165 -93q-89 0 -138.5 54.5t-49.5 148.5v281q0 26 17.5 43.5t42.5 17.5q26 0 43.5 -17.5t17.5 -43.5v-245q0 -62 29.5 -95t83.5 -33t86.5 34.5t32.5 95.5v243q0 26 17.5 43.5t43.5 17.5
q25 0 43 -17.5t18 -43.5z" />
    <glyph glyph-name="v" unicode="v" horiz-adv-x="586" 
d="M541 447l-176 -404q-26 -53 -69 -53h-6q-44 0 -69 53l-176 403q-7 21 -7 30q0 23 17.5 40.5t42.5 17.5q41 0 60 -44l136 -350l138 352q18 42 57 42q25 0 42 -16.5t17 -41.5q0 -13 -7 -29z" />
    <glyph glyph-name="w" unicode="w" horiz-adv-x="853" 
d="M257 -9h-4q-49 0 -67 54l-142 402q-6 16 -6 31q0 23 16.5 39.5t42.5 16.5q44 0 59 -48l102 -320l103 320q15 48 62 48h7q47 0 62 -48l104 -320l103 321q14 47 59 47q24 0 40.5 -16t16.5 -40q0 -15 -5 -27l-144 -406q-19 -54 -67 -54h-4q-50 0 -66 52l-103 314l-104 -314
q-16 -52 -65 -52z" />
    <glyph glyph-name="x" unicode="x" horiz-adv-x="573" 
d="M48 46q0 22 17 42l150 180l-139 165q-20 25 -20 46q0 26 16 41t40 15q32 0 56 -30l119 -156l121 155q24 31 52 31q24 0 40.5 -15t16.5 -38q0 -22 -17 -41l-143 -171l148 -175q20 -25 20 -46q0 -26 -16 -41t-40 -15q-33 0 -56 31l-128 165l-128 -165q-27 -31 -53 -31
q-24 0 -40 15t-16 38z" />
    <glyph glyph-name="y" unicode="y" 
d="M172 -163q-50 0 -84 15q-38 14 -38 50q0 23 14 36.5t35 13.5q13 0 22 -4q26 -7 42 -7q27 0 43.5 12.5t31.5 43.5l4 11l-196 438q-7 15 -7 29q0 26 17 42.5t43 16.5q41 0 59 -46l142 -351l132 351q20 46 58 46q24 0 41 -16.5t17 -40.5q0 -17 -5 -29l-193 -463
q-34 -81 -74 -114.5t-104 -33.5z" />
    <glyph glyph-name="z" unicode="z" horiz-adv-x="560" 
d="M466 0h-358q-26 0 -42.5 14t-16.5 35v2q0 30 27 58l281 320h-249q-21 0 -35.5 14.5t-14.5 34.5q0 21 14.5 35.5t35.5 14.5h348q25 0 41.5 -13.5t16.5 -34.5v-3q0 -31 -26 -58l-282 -320h260q21 0 35.5 -14.5t14.5 -35.5q0 -20 -14.5 -34.5t-35.5 -14.5z" />
    <glyph glyph-name="braceleft" unicode="{" horiz-adv-x="487" 
d="M385 -135q-112 25 -154 70.5t-42 123.5q0 7 1 35t1 37q0 55 -21.5 80.5t-72.5 27.5q-51 5 -51 48t51 48q51 2 72.5 27.5t21.5 81.5q0 9 -1 37t-1 35q0 77 42.5 122.5t153.5 70.5q23 5 39 -7t16 -34q0 -32 -28 -41q-69 -21 -90 -48t-21 -81q0 -10 1 -36.5t1 -37.5
q0 -57 -25.5 -89t-78.5 -48q54 -18 79 -49t25 -88q0 -11 -1 -37.5t-1 -36.5q0 -55 20.5 -81t90.5 -48q28 -9 28 -41q0 -22 -16 -34t-39 -7z" />
    <glyph glyph-name="bar" unicode="|" horiz-adv-x="331" 
d="M117 -85v840q0 20 14 34t34 14t34.5 -14t14.5 -34v-840q0 -20 -14.5 -34t-34.5 -14t-34 14t-14 34z" />
    <glyph glyph-name="braceright" unicode="}" horiz-adv-x="487" 
d="M102 709q111 -25 153.5 -70.5t42.5 -122.5q0 -7 -1 -35t-1 -37q0 -56 22 -81.5t73 -27.5q23 -2 36.5 -15t13.5 -33t-13.5 -33t-36.5 -15q-51 -2 -73 -27.5t-22 -80.5q0 -9 1 -37t1 -35q0 -78 -42 -123.5t-154 -70.5q-23 -5 -39 7t-16 34q0 32 29 41q69 21 89.5 48
t20.5 81q0 10 -1 36.5t-1 37.5q0 57 25.5 89t78.5 48q-54 18 -79 49t-25 88q0 11 1 37.5t1 36.5q0 54 -20.5 81t-89.5 48q-29 9 -29 41q0 22 16 34t39 7z" />
    <glyph glyph-name="asciitilde" unicode="~" horiz-adv-x="495" 
d="M134 247q-13 -20 -32 -20q-15 0 -26 10t-11 24q0 13 4 22q17 47 40 69t62 22q31 0 79 -19.5t64 -19.5q31 0 47 31q13 21 32 21q15 0 26 -10.5t11 -23.5q0 -14 -4 -23q-17 -47 -40 -69t-62 -22q-30 0 -79 20t-64 20q-18 0 -28 -7t-19 -25z" />
    <glyph glyph-name="uni00A0" unicode="&#xa0;" horiz-adv-x="300" 
 />
    <glyph glyph-name="exclamdown" unicode="&#xa1;" horiz-adv-x="302" 
d="M188 448l35 -408q2 -18 -8.5 -30.5t-27.5 -12.5h-72q-17 0 -27 12.5t-8 30.5l35 408q5 36 36 36q32 0 37 -36zM222 636v-9q0 -30 -20 -50t-51 -20q-30 0 -50.5 20t-20.5 50v9q0 29 20.5 49t50.5 20q31 0 51 -20t20 -49z" />
    <glyph glyph-name="cent" unicode="&#xa2;" horiz-adv-x="581" 
d="M219 41l11 55q-80 29 -129 98.5t-49 158.5v2q0 115 78.5 195t195.5 80h8l9 46q7 35 43 35q21 0 33.5 -15.5t7.5 -36.5l-8 -42q49 -16 95 -55q18 -16 18 -41q0 -23 -15.5 -38.5t-38.5 -15.5q-22 0 -34 12q-28 23 -50 32l-64 -326q65 1 118 48q14 12 34 12t34.5 -15
t14.5 -36q0 -24 -16 -37q-80 -77 -194 -77h-7l-11 -56q-7 -35 -42 -35q-21 0 -34 15.5t-8 36.5zM170 357v-2q0 -51 22.5 -91.5t62.5 -61.5l63 323q-63 -2 -105.5 -50.5t-42.5 -117.5z" />
    <glyph glyph-name="sterling" unicode="&#xa3;" horiz-adv-x="644" 
d="M58 43q0 34 33 44l51 15v176h-32q-22 0 -37 15t-15 37q0 21 15 36.5t37 15.5h32v92q0 112 62 174q60 62 168 62q119 0 195 -81q19 -19 19 -44q0 -26 -17.5 -43t-43.5 -17q-27 0 -44 19q-49 52 -107 52q-46 0 -74 -28q-33 -34 -33 -97v-89h202q21 0 36.5 -15.5t15.5 -36.5
q0 -22 -15.5 -37t-36.5 -15h-202v-171h276q23 0 38.5 -15.5t15.5 -38.5t-15.5 -38t-38.5 -15h-438q-21 0 -34 12.5t-13 30.5z" />
    <glyph glyph-name="yen" unicode="&#xa5;" horiz-adv-x="686" 
d="M402 264v-73h154q18 0 31 -13t13 -32q0 -18 -13 -31t-31 -13h-154v-48q0 -25 -17 -42t-42 -17t-42 17t-17 42v48h-154q-18 0 -31 13t-13 31q0 19 13 32t31 13h154v73h-154q-18 0 -31 13t-13 31q0 19 13 32t31 13h119l-184 252q-15 21 -15 42q0 24 17.5 41t43.5 17
q34 0 58 -34l175 -261l177 260q22 35 56 35q25 0 42 -15.5t17 -41.5q0 -24 -15 -43l-186 -252h121q18 0 31 -13t13 -32q0 -18 -13 -31t-31 -13h-154z" />
    <glyph glyph-name="section" unicode="&#xa7;" horiz-adv-x="632" 
d="M326 -10q-120 0 -208 72q-18 16 -18 38q0 21 14.5 35.5t35.5 14.5q19 0 31 -12q69 -56 144 -56q39 0 60 13.5t21 35.5v2q0 22 -27.5 37t-104.5 33q-117 26 -166.5 59t-49.5 87v2q0 88 107 116q-55 35 -55 95v2q0 67 52 106.5t144 39.5q120 0 208 -72q18 -16 18 -38
q0 -21 -14.5 -35t-35.5 -14q-20 0 -31 11q-69 56 -144 56q-39 0 -60 -13.5t-21 -35.5v-2q0 -22 27.5 -37.5t104.5 -32.5q117 -26 166.5 -59t49.5 -87v-2q0 -88 -107 -116q56 -34 56 -95v-2q0 -67 -53 -106.5t-144 -39.5zM388 278q34 0 55.5 15.5t21.5 38.5v2q0 22 -27 38
t-90 32q-71 18 -104 18q-34 0 -55.5 -15.5t-21.5 -38.5v-2q0 -22 27 -38t91 -32q71 -18 103 -18z" />
    <glyph glyph-name="dieresis" unicode="&#xa8;" horiz-adv-x="500" 
d="M350 720q27 0 46 -17.5t19 -44.5v-7q0 -27 -19 -44t-46 -17q-28 0 -47 17t-19 44v7q0 27 19 44.5t47 17.5zM151 720q27 0 46 -17.5t19 -44.5v-7q0 -27 -19 -44t-46 -17q-28 0 -47 17t-19 44v7q0 27 19 44.5t47 17.5z" />
    <glyph glyph-name="copyright" unicode="&#xa9;" horiz-adv-x="830" 
d="M414 -12q-151 0 -256 105.5t-105 254.5v2q0 148 105.5 255t257.5 107q151 0 256 -105.5t105 -254.5v-2q0 -148 -105.5 -255t-257.5 -107zM414 24q137 0 231 95.5t94 230.5v2q0 135 -93 229.5t-230 94.5t-231 -95.5t-94 -230.5v-2q0 -135 93 -229.5t230 -94.5zM419 159
q-82 0 -137 56t-55 138v2q0 82 55 139t139 57q79 0 130 -43q16 -12 16 -30q0 -16 -10.5 -26.5t-25.5 -10.5q-11 0 -24 10q-39 32 -86 32q-50 0 -84 -37.5t-34 -89.5v-2q0 -52 34 -89.5t84 -37.5t92 36q11 9 22 9q14 0 24.5 -10.5t10.5 -24.5q0 -16 -11 -25q-61 -53 -140 -53
z" />
    <glyph glyph-name="ordfeminine" unicode="&#xaa;" horiz-adv-x="390" 
d="M159 403q-44 0 -73.5 24t-29.5 66v2q0 46 32.5 69.5t87.5 23.5q40 0 76 -11v5q0 61 -70 61q-33 0 -58 -11q-9 -3 -15 -3q-13 0 -21.5 8.5t-8.5 20.5q0 21 19 28q43 17 93 17q65 0 97 -33q31 -30 31 -89v-144q0 -14 -10.5 -23.5t-24.5 -9.5q-13 0 -23 8.5t-10 22.5v8
q-35 -40 -92 -40zM299 282h-222q-12 0 -20.5 8.5t-8.5 20.5t8.5 20.5t20.5 8.5h222q12 0 21 -8.5t9 -20.5t-9 -20.5t-21 -8.5zM177 454q32 0 53.5 17t21.5 43v18q-27 11 -63 11q-30 0 -47 -12t-17 -33v-2q0 -20 14 -31t38 -11z" />
    <glyph glyph-name="guillemotleft" unicode="&#xab;" horiz-adv-x="606" 
d="M489 42q-26 0 -42 21l-129 166q-15 20 -15 35q0 17 15 35l126 163q18 24 45 24q21 0 35 -14.5t14 -35.5q0 -18 -14 -34l-105 -137l107 -140q13 -16 13 -33q-1 -21 -15 -35.5t-35 -14.5zM237 42q-26 0 -42 21l-129 166q-14 19 -14 35q0 18 14 35l126 163q18 24 46 24
q20 0 34 -15t14 -35q0 -17 -13 -34l-106 -137l108 -140q12 -15 12 -33q0 -21 -14.5 -35.5t-35.5 -14.5z" />
    <glyph glyph-name="registered" unicode="&#xae;" horiz-adv-x="382" 
d="M191 360q-73 0 -123.5 51t-50.5 123v1q0 72 51 123.5t123 51.5q73 0 123.5 -51t50.5 -123v-1q0 -72 -51 -123.5t-123 -51.5zM191 379q65 0 109.5 46t44.5 110v1q0 64 -44.5 109.5t-109.5 45.5t-109.5 -46t-44.5 -110v-1q0 -64 44.5 -109.5t109.5 -45.5zM119 466v140
q0 10 6.5 16.5t15.5 6.5h63q33 0 53 -15.5t20 -44.5q0 -41 -36 -55l27 -33q6 -6 6 -16q0 -9 -6 -15t-16 -6q-9 0 -18 9l-42 52h-29v-39q0 -9 -6.5 -15.5t-15.5 -6.5t-15.5 6.5t-6.5 15.5zM163 541h38q31 0 31 25t-31 25h-38v-50z" />
    <glyph glyph-name="macron" unicode="&#xaf;" horiz-adv-x="500" 
d="M383 606h-266q-18 0 -31 13t-13 31t13 31t31 13h266q18 0 31 -13t13 -31t-13 -31t-31 -13z" />
    <glyph glyph-name="degree" unicode="&#xb0;" horiz-adv-x="471" 
d="M236 381q-66 0 -116.5 48.5t-50.5 113.5v2q0 65 50.5 113t116.5 48t116 -48t50 -113v-2q0 -65 -50 -113.5t-116 -48.5zM236 447q40 0 67 28.5t27 67.5v2q0 39 -27 67t-67 28q-41 0 -68 -27.5t-27 -67.5v-2q0 -39 27.5 -67.5t67.5 -28.5z" />
    <glyph glyph-name="plusminus" unicode="&#xb1;" horiz-adv-x="634" 
d="M262 238l1 135h-141q-22 0 -37.5 15.5t-15.5 37.5t15.5 37.5t37.5 15.5h141l-1 135q0 23 16 39t39 16t39 -16t16 -39l-1 -135h140q23 0 38.5 -15.5t15.5 -37.5t-15.5 -37.5t-38.5 -15.5h-140l1 -135q0 -23 -16 -39t-39 -16t-39 16t-16 39zM514 0h-394q-21 0 -36 15
t-15 36q0 22 15 37t36 15h394q21 0 36 -15t15 -37q0 -21 -15 -36t-36 -15z" />
    <glyph glyph-name="acute" unicode="&#xb4;" horiz-adv-x="500" 
d="M207 590q-30 0 -30 21q0 8 8 22l57 88q18 29 48 29q24 0 48 -12.5t24 -26.5q0 -15 -17 -30l-67 -64q-28 -27 -71 -27z" />
    <glyph glyph-name="paragraph" unicode="&#xb6;" horiz-adv-x="557" 
d="M346 56v188h-18q-128 0 -208 59.5t-80 167.5v2q0 105 74.5 166t196.5 61h97q26 0 44 -18t18 -44v-582q0 -26 -18 -43.5t-44 -17.5t-44 17.5t-18 43.5z" />
    <glyph glyph-name="periodcentered" unicode="&#xb7;" horiz-adv-x="269" 
d="M64 302v9q0 29 20.5 49t50.5 20q29 0 49.5 -20t20.5 -49v-9q0 -30 -20.5 -50t-49.5 -20q-30 0 -50.5 20t-20.5 50z" />
    <glyph glyph-name="cedilla" unicode="&#xb8;" horiz-adv-x="500" 
d="M312 10l-61 -141q-12 -29 -39 -29q-20 0 -45 14.5t-25 29.5q0 12 8 23l71 103h91z" />
    <glyph glyph-name="ordmasculine" unicode="&#xba;" horiz-adv-x="390" 
d="M194 402q-63 0 -106.5 43.5t-43.5 106.5v2q0 63 43.5 107t108.5 44t107.5 -43.5t42.5 -106.5v-2q0 -63 -43.5 -107t-108.5 -44zM315 282h-240q-12 0 -20.5 8.5t-8.5 20.5t8.5 20.5t20.5 8.5h240q12 0 20.5 -8.5t8.5 -20.5t-8.5 -20.5t-20.5 -8.5zM196 464q36 0 58 25.5
t22 62.5v2q0 37 -23.5 63t-58.5 26t-57.5 -25.5t-22.5 -62.5v-2q0 -37 23.5 -63t58.5 -26z" />
    <glyph glyph-name="guillemotright" unicode="&#xbb;" horiz-adv-x="606" 
d="M369 486q25 0 42 -22l129 -165q15 -20 15 -36q0 -15 -15 -35l-126 -162q-18 -24 -46 -24q-20 0 -34 15t-14 35q0 17 13 34l106 136l-108 140q-12 16 -12 34q0 21 14.5 35.5t35.5 14.5zM117 486q25 0 42 -22l129 -165q15 -20 15 -36q0 -15 -15 -35l-126 -162
q-18 -24 -45 -24q-21 0 -35 14.5t-14 35.5q0 18 14 34l105 136l-107 140q-13 16 -13 34q1 21 15 35.5t35 14.5z" />
    <glyph glyph-name="questiondown" unicode="&#xbf;" horiz-adv-x="541" 
d="M290 484h6q17 0 29 -11.5t14 -28.5l10 -86q3 -20 -8 -33.5t-31 -16.5q-145 -14 -145 -108v-2q0 -43 30.5 -69t83.5 -26q75 0 136 55q17 14 37 14q23 0 39.5 -16t16.5 -39q0 -27 -20 -43q-86 -83 -212 -83q-106 0 -170 55t-64 148v2q0 168 201 202l5 46q2 18 13.5 29
t28.5 11zM367 636v-9q0 -30 -20 -50t-51 -20t-51 20t-20 50v9q0 29 20 49t51 20t51 -20t20 -49z" />
    <glyph glyph-name="Agrave" unicode="&#xc0;" horiz-adv-x="773" 
d="M42 52q0 10 8 28l260 580q24 50 74 50h6q49 0 73 -50l260 -580q7 -13 7 -26q0 -25 -16.5 -42t-41.5 -17q-42 0 -60 43l-57 131h-340l-59 -135q-16 -39 -57 -39q-24 0 -40.5 16.5t-16.5 40.5zM262 278h246l-123 283zM406 763q-43 0 -70 27l-68 64q-17 15 -17 30
q0 14 23.5 26.5t48.5 12.5q30 0 48 -29l57 -88q9 -16 9 -22q0 -21 -31 -21z" />
    <glyph glyph-name="Aacute" unicode="&#xc1;" horiz-adv-x="773" 
d="M42 52q0 10 8 28l260 580q24 50 74 50h6q49 0 73 -50l260 -580q7 -13 7 -26q0 -25 -16.5 -42t-41.5 -17q-42 0 -60 43l-57 131h-340l-59 -135q-16 -39 -57 -39q-24 0 -40.5 16.5t-16.5 40.5zM262 278h246l-123 283zM378 763q-30 0 -30 21q0 8 8 22l57 88q18 29 48 29
q24 0 48 -12.5t24 -26.5q0 -15 -17 -30l-67 -64q-28 -27 -71 -27z" />
    <glyph glyph-name="Acircumflex" unicode="&#xc2;" horiz-adv-x="773" 
d="M42 52q0 10 8 28l260 580q24 50 74 50h6q49 0 73 -50l260 -580q7 -13 7 -26q0 -25 -16.5 -42t-41.5 -17q-42 0 -60 43l-57 131h-340l-59 -135q-16 -39 -57 -39q-24 0 -40.5 16.5t-16.5 40.5zM262 278h246l-123 283zM384 835l-52 -45q-32 -27 -74 -27q-27 0 -27 20
q0 10 12 24l66 83q23 29 58 29h36q35 0 58 -29l66 -83q12 -14 12 -24q0 -20 -29 -20q-42 0 -74 27z" />
    <glyph glyph-name="Atilde" unicode="&#xc3;" horiz-adv-x="773" 
d="M42 52q0 10 8 28l260 580q24 50 74 50h6q49 0 73 -50l260 -580q7 -13 7 -26q0 -25 -16.5 -42t-41.5 -17q-42 0 -60 43l-57 131h-340l-59 -135q-16 -39 -57 -39q-24 0 -40.5 16.5t-16.5 40.5zM262 278h246l-123 283zM314 794l-2 -3q-15 -21 -35 -20q-15 2 -25.5 12.5
t-9.5 25.5q2 5 2 11q18 44 38.5 61.5t53.5 16.5q30 -1 66 -22l18 -10q19 -6 23 -7q15 0 22 17q25 25 39 25q15 -2 25.5 -13t10.5 -26l-3 -9q-3 -3 -3 -6q-16 -42 -37.5 -59t-56.5 -15q-23 1 -69 23q-2 2 -6 3t-6 2l-3 3l-3 2v-1q-13 5 -18 5q-14 0 -21 -16z" />
    <glyph glyph-name="Adieresis" unicode="&#xc4;" horiz-adv-x="773" 
d="M42 52q0 10 8 28l260 580q24 50 74 50h6q49 0 73 -50l260 -580q7 -13 7 -26q0 -25 -16.5 -42t-41.5 -17q-42 0 -60 43l-57 131h-340l-59 -135q-16 -39 -57 -39q-24 0 -40.5 16.5t-16.5 40.5zM262 278h246l-123 283zM485 893q27 0 46 -17.5t19 -44.5v-7q0 -27 -19 -44
t-46 -17q-28 0 -47 17t-19 44v7q0 27 19 44.5t47 17.5zM286 893q27 0 46 -17.5t19 -44.5v-7q0 -27 -19 -44t-46 -17q-28 0 -47 17t-19 44v7q0 27 19 44.5t47 17.5z" />
    <glyph glyph-name="Aring" unicode="&#xc5;" horiz-adv-x="790" 
d="M461 684l271 -605q7 -13 7 -25q0 -24 -17 -41.5t-42 -17.5q-41 0 -60 43l-57 131h-340l-58 -135q-18 -39 -57 -39q-24 0 -41 16.5t-17 40.5q0 7 7 26l272 606q-48 33 -48 87v2q0 45 34.5 77t79.5 32t79.5 -32t34.5 -77v-2q0 -56 -48 -87zM395 710q26 0 44 18t18 43v2
q0 25 -18 43t-44 18t-44 -18t-18 -43v-2q0 -25 18 -43t44 -18zM270 278h246l-123 283z" />
    <glyph glyph-name="AE" unicode="&#xc6;" horiz-adv-x="1045" 
d="M34 45q0 21 10 35l337 577q24 43 72 43h481q23 0 39 -16t16 -39t-16 -39t-39 -16h-324v-182h279q23 0 39 -16.5t16 -39.5t-16 -38.5t-39 -15.5h-279v-188h329q23 0 39 -16t16 -39t-16 -39t-39 -16h-390q-26 0 -44 18t-18 44v107h-264l-81 -141q-19 -34 -54 -34
q-23 0 -38.5 14.5t-15.5 36.5zM286 278h201v315h-20z" />
    <glyph glyph-name="Ccedilla" unicode="&#xc7;" horiz-adv-x="738" 
d="M669 82q-99 -88 -233 -93l-51 -120q-12 -29 -39 -29q-20 0 -45 14.5t-25 29.5q0 12 8 23l60 88q-126 24 -205.5 122t-79.5 231v2q0 152 102 257t259 105q137 0 240 -79q24 -20 24 -49q0 -26 -17.5 -43t-43.5 -17q-23 0 -37 12q-78 63 -167 63q-99 0 -165 -72t-66 -175v-2
q0 -104 66 -176t165 -72q96 0 175 67q16 14 37 14q23 0 40.5 -17t17.5 -40q0 -24 -20 -44z" />
    <glyph glyph-name="Egrave" unicode="&#xc8;" horiz-adv-x="670" 
d="M564 0h-412q-26 0 -44 18t-18 44v576q0 26 18 44t44 18h407q23 0 39 -16t16 -39t-16 -39t-39 -16h-346v-182h301q23 0 39 -16.5t16 -39.5t-16 -38.5t-39 -15.5h-301v-188h351q23 0 39 -16t16 -39t-16 -39t-39 -16zM386 753q-43 0 -70 27l-68 64q-17 15 -17 30
q0 14 23.5 26.5t48.5 12.5q30 0 48 -29l57 -88q9 -16 9 -22q0 -21 -31 -21z" />
    <glyph glyph-name="Eacute" unicode="&#xc9;" horiz-adv-x="670" 
d="M335 753q-30 0 -30 21q0 8 8 22l57 88q18 29 48 29q24 0 48 -12.5t24 -26.5q0 -15 -17 -30l-67 -64q-28 -27 -71 -27zM564 0h-412q-26 0 -44 18t-18 44v576q0 26 18 44t44 18h407q23 0 39 -16t16 -39t-16 -39t-39 -16h-346v-182h301q23 0 39 -16.5t16 -39.5t-16 -38.5
t-39 -15.5h-301v-188h351q23 0 39 -16t16 -39t-16 -39t-39 -16z" />
    <glyph glyph-name="Ecircumflex" unicode="&#xca;" horiz-adv-x="670" 
d="M350 825l-52 -45q-32 -27 -74 -27q-27 0 -27 20q0 10 12 24l66 83q23 29 58 29h36q35 0 58 -29l66 -83q12 -14 12 -24q0 -20 -29 -20q-42 0 -74 27zM564 0h-412q-26 0 -44 18t-18 44v576q0 26 18 44t44 18h407q23 0 39 -16t16 -39t-16 -39t-39 -16h-346v-182h301
q23 0 39 -16.5t16 -39.5t-16 -38.5t-39 -15.5h-301v-188h351q23 0 39 -16t16 -39t-16 -39t-39 -16z" />
    <glyph glyph-name="Edieresis" unicode="&#xcb;" horiz-adv-x="670" 
d="M451 883q27 0 46 -17.5t19 -44.5v-7q0 -27 -19 -44t-46 -17q-28 0 -47 17t-19 44v7q0 27 19 44.5t47 17.5zM252 883q27 0 46 -17.5t19 -44.5v-7q0 -27 -19 -44t-46 -17q-28 0 -47 17t-19 44v7q0 27 19 44.5t47 17.5zM564 0h-412q-26 0 -44 18t-18 44v576q0 26 18 44
t44 18h407q23 0 39 -16t16 -39t-16 -39t-39 -16h-346v-182h301q23 0 39 -16.5t16 -39.5t-16 -38.5t-39 -15.5h-301v-188h351q23 0 39 -16t16 -39t-16 -39t-39 -16z" />
    <glyph glyph-name="Igrave" unicode="&#xcc;" horiz-adv-x="317" 
d="M97 56v588q0 26 18 43.5t44 17.5t43.5 -17.5t17.5 -43.5v-588q0 -26 -17.5 -43.5t-43.5 -17.5t-44 17.5t-18 43.5zM181 753q-43 0 -70 27l-68 64q-17 15 -17 30q0 14 23.5 26.5t48.5 12.5q30 0 48 -29l57 -88q9 -16 9 -22q0 -21 -31 -21z" />
    <glyph glyph-name="Iacute" unicode="&#xcd;" horiz-adv-x="317" 
d="M97 56v588q0 26 18 43.5t44 17.5t43.5 -17.5t17.5 -43.5v-588q0 -26 -17.5 -43.5t-43.5 -17.5t-44 17.5t-18 43.5zM130 753q-30 0 -30 21q0 8 8 22l57 88q18 29 48 29q24 0 48 -12.5t24 -26.5q0 -15 -17 -30l-67 -64q-28 -27 -71 -27z" />
    <glyph glyph-name="Icircumflex" unicode="&#xce;" horiz-adv-x="317" 
d="M97 56v588q0 26 18 43.5t44 17.5t43.5 -17.5t17.5 -43.5v-588q0 -26 -17.5 -43.5t-43.5 -17.5t-44 17.5t-18 43.5zM158 825l-52 -45q-32 -27 -74 -27q-27 0 -27 20q0 10 12 24l66 83q23 29 58 29h36q35 0 58 -29l66 -83q12 -14 12 -24q0 -20 -29 -20q-42 0 -74 27z" />
    <glyph glyph-name="Idieresis" unicode="&#xcf;" horiz-adv-x="317" 
d="M97 56v588q0 26 18 43.5t44 17.5t43.5 -17.5t17.5 -43.5v-588q0 -26 -17.5 -43.5t-43.5 -17.5t-44 17.5t-18 43.5zM259 883q27 0 46 -17.5t19 -44.5v-7q0 -27 -19 -44t-46 -17q-28 0 -47 17t-19 44v7q0 27 19 44.5t47 17.5zM60 883q27 0 46 -17.5t19 -44.5v-7
q0 -27 -19 -44t-46 -17q-28 0 -47 17t-19 44v7q0 27 19 44.5t47 17.5z" />
    <glyph glyph-name="Eth" unicode="&#xd0;" horiz-adv-x="812" 
d="M94 407h26v231q0 26 18 44t44 18h199q163 0 267.5 -99.5t104.5 -248.5v-2q0 -150 -104.5 -250t-267.5 -100h-199q-26 0 -44 18t-18 44v235h-26q-23 0 -38.5 16t-15.5 39t15.5 39t38.5 16zM242 588v-181h127q23 0 38.5 -16t15.5 -39t-15.5 -39t-38.5 -16h-127v-185h139
q109 0 176 66t67 170v2q0 104 -67 171t-176 67h-139z" />
    <glyph glyph-name="Ntilde" unicode="&#xd1;" horiz-adv-x="790" 
d="M90 55v587q0 26 18 44t44 18h13q35 0 64 -36l350 -453v430q0 25 17.5 42.5t42.5 17.5q26 0 43.5 -17.5t17.5 -42.5v-588q0 -26 -17 -43.5t-43 -17.5h-5q-37 0 -64 37l-360 466v-444q0 -25 -17.5 -42.5t-42.5 -17.5q-26 0 -43.5 17.5t-17.5 42.5zM286 766q-13 -20 -33 -20
q-15 0 -26 10t-11 23q0 14 4 23q16 46 40 68.5t62 22.5q31 0 79.5 -20t64.5 -20q29 0 46 32q13 20 33 20q15 0 26 -10t11 -23q0 -14 -4 -23q-16 -46 -40 -68.5t-62 -22.5q-30 0 -79.5 20t-64.5 20q-29 0 -46 -32z" />
    <glyph glyph-name="Ograve" unicode="&#xd2;" horiz-adv-x="850" 
d="M424 -12q-159 0 -262 105t-103 255v2q0 150 104.5 256t262.5 106q159 0 262 -105t103 -255v-2q0 -150 -104.5 -256t-262.5 -106zM426 102q103 0 169.5 71t66.5 175v2q0 104 -67.5 176.5t-170.5 72.5t-169.5 -71.5t-66.5 -175.5v-2q0 -104 67.5 -176t170.5 -72zM474 763
q-43 0 -70 27l-68 64q-17 15 -17 30q0 14 23.5 26.5t48.5 12.5q30 0 48 -29l57 -88q9 -16 9 -22q0 -21 -31 -21z" />
    <glyph glyph-name="Oacute" unicode="&#xd3;" horiz-adv-x="850" 
d="M428 763q-30 0 -30 21q0 8 8 22l57 88q18 29 48 29q24 0 48 -12.5t24 -26.5q0 -15 -17 -30l-67 -64q-28 -27 -71 -27zM424 -12q-159 0 -262 105t-103 255v2q0 150 104.5 256t262.5 106q159 0 262 -105t103 -255v-2q0 -150 -104.5 -256t-262.5 -106zM426 102
q103 0 169.5 71t66.5 175v2q0 104 -67.5 176.5t-170.5 72.5t-169.5 -71.5t-66.5 -175.5v-2q0 -104 67.5 -176t170.5 -72z" />
    <glyph glyph-name="Ocircumflex" unicode="&#xd4;" horiz-adv-x="850" 
d="M426 835l-52 -45q-32 -27 -74 -27q-27 0 -27 20q0 10 12 24l66 83q23 29 58 29h36q35 0 58 -29l66 -83q12 -14 12 -24q0 -20 -29 -20q-42 0 -74 27zM424 -12q-159 0 -262 105t-103 255v2q0 150 104.5 256t262.5 106q159 0 262 -105t103 -255v-2q0 -150 -104.5 -256
t-262.5 -106zM426 102q103 0 169.5 71t66.5 175v2q0 104 -67.5 176.5t-170.5 72.5t-169.5 -71.5t-66.5 -175.5v-2q0 -104 67.5 -176t170.5 -72z" />
    <glyph glyph-name="Otilde" unicode="&#xd5;" horiz-adv-x="850" 
d="M424 -12q-159 0 -262 105t-103 255v2q0 150 104.5 256t262.5 106q159 0 262 -105t103 -255v-2q0 -150 -104.5 -256t-262.5 -106zM426 102q103 0 169.5 71t66.5 175v2q0 104 -67.5 176.5t-170.5 72.5t-169.5 -71.5t-66.5 -175.5v-2q0 -104 67.5 -176t170.5 -72zM357 794
l-2 -3q-15 -21 -35 -20q-15 2 -25.5 12.5t-9.5 25.5q2 5 2 11q18 44 38.5 61.5t53.5 16.5q30 -1 66 -22l18 -10q20 -6 23 -7q15 0 22 17q25 25 39 25q15 -2 25.5 -13t10.5 -26l-3 -9q-3 -3 -3 -6q-16 -42 -37.5 -59t-56.5 -15q-23 1 -69 23q-2 2 -6 3t-6 2q-1 1 -4 3l-2 2
v-1q-13 5 -18 5q-14 0 -21 -16z" />
    <glyph glyph-name="Odieresis" unicode="&#xd6;" horiz-adv-x="850" 
d="M525 893q27 0 46 -17.5t19 -44.5v-7q0 -27 -19 -44t-46 -17q-28 0 -47 17t-19 44v7q0 27 19 44.5t47 17.5zM326 893q27 0 46 -17.5t19 -44.5v-7q0 -27 -19 -44t-46 -17q-28 0 -47 17t-19 44v7q0 27 19 44.5t47 17.5zM424 -12q-159 0 -262 105t-103 255v2q0 150 104.5 256
t262.5 106q159 0 262 -105t103 -255v-2q0 -150 -104.5 -256t-262.5 -106zM426 102q103 0 169.5 71t66.5 175v2q0 104 -67.5 176.5t-170.5 72.5t-169.5 -71.5t-66.5 -175.5v-2q0 -104 67.5 -176t170.5 -72z" />
    <glyph glyph-name="multiply" unicode="&#xd7;" horiz-adv-x="634" 
d="M520 481l-130 -128l131 -128q17 -17 17 -40t-15.5 -38.5t-38.5 -15.5q-20 0 -40 16l-128 132l-129 -131q-15 -17 -39 -17q-22 0 -37 15t-15 37q0 23 18 40l130 128l-132 128q-16 20 -16 40q0 23 15.5 38.5t38.5 15.5t40 -17l128 -131l129 131q15 17 38 17t38 -15t15 -38
q0 -22 -18 -39z" />
    <glyph glyph-name="Oslash" unicode="&#xd8;" horiz-adv-x="850" 
d="M424 -12q-125 0 -218 67l-48 -48q-15 -17 -38 -17q-19 0 -31 11.5t-12 28.5q0 20 17 37l47 49q-82 101 -82 232v2q0 150 104.5 256t262.5 106q123 0 218 -68l48 49q17 17 38 17q18 0 30.5 -11.5t12.5 -27.5q0 -21 -17 -38l-47 -49q82 -101 82 -232v-2q0 -150 -104.5 -256
t-262.5 -106zM186 352v-2q0 -79 42 -143l334 349q-63 45 -138 45q-103 0 -170.5 -72.5t-67.5 -176.5zM426 99q103 0 170.5 72.5t67.5 176.5v2q0 79 -42 143l-335 -350q61 -44 139 -44z" />
    <glyph glyph-name="Ugrave" unicode="&#xd9;" horiz-adv-x="757" 
d="M377 -11q-139 0 -218.5 79.5t-79.5 228.5v347q0 26 18 43.5t44 17.5t43.5 -17.5t17.5 -43.5v-342q0 -97 46.5 -148t130.5 -51q83 0 129.5 49.5t46.5 144.5v347q0 26 18 43.5t44 17.5t43.5 -17.5t17.5 -43.5v-341q0 -153 -80 -233.5t-221 -80.5zM397 753q-43 0 -70 27
l-68 64q-17 15 -17 30q0 14 23.5 26.5t48.5 12.5q30 0 48 -29l57 -88q9 -16 9 -22q0 -21 -31 -21z" />
    <glyph glyph-name="Uacute" unicode="&#xda;" horiz-adv-x="757" 
d="M375 753q-30 0 -30 21q0 8 8 22l57 88q18 29 48 29q24 0 48 -12.5t24 -26.5q0 -15 -17 -30l-67 -64q-28 -27 -71 -27zM377 -11q-139 0 -218.5 79.5t-79.5 228.5v347q0 26 18 43.5t44 17.5t43.5 -17.5t17.5 -43.5v-342q0 -97 46.5 -148t130.5 -51q83 0 129.5 49.5
t46.5 144.5v347q0 26 18 43.5t44 17.5t43.5 -17.5t17.5 -43.5v-341q0 -153 -80 -233.5t-221 -80.5z" />
    <glyph glyph-name="Ucircumflex" unicode="&#xdb;" horiz-adv-x="757" 
d="M377 825l-52 -45q-32 -27 -74 -27q-27 0 -27 20q0 10 12 24l66 83q23 29 58 29h36q35 0 58 -29l66 -83q12 -14 12 -24q0 -20 -29 -20q-42 0 -74 27zM377 -11q-139 0 -218.5 79.5t-79.5 228.5v347q0 26 18 43.5t44 17.5t43.5 -17.5t17.5 -43.5v-342q0 -97 46.5 -148
t130.5 -51q83 0 129.5 49.5t46.5 144.5v347q0 26 18 43.5t44 17.5t43.5 -17.5t17.5 -43.5v-341q0 -153 -80 -233.5t-221 -80.5z" />
    <glyph glyph-name="Udieresis" unicode="&#xdc;" horiz-adv-x="757" 
d="M478 883q27 0 46 -17.5t19 -44.5v-7q0 -27 -19 -44t-46 -17q-28 0 -47 17t-19 44v7q0 27 19 44.5t47 17.5zM279 883q27 0 46 -17.5t19 -44.5v-7q0 -27 -19 -44t-46 -17q-28 0 -47 17t-19 44v7q0 27 19 44.5t47 17.5zM377 -11q-139 0 -218.5 79.5t-79.5 228.5v347
q0 26 18 43.5t44 17.5t43.5 -17.5t17.5 -43.5v-342q0 -97 46.5 -148t130.5 -51q83 0 129.5 49.5t46.5 144.5v347q0 26 18 43.5t44 17.5t43.5 -17.5t17.5 -43.5v-341q0 -153 -80 -233.5t-221 -80.5z" />
    <glyph glyph-name="Yacute" unicode="&#xdd;" horiz-adv-x="696" 
d="M287 56v216l-241 331q-14 21 -14 43q0 25 18 42t44 17q36 0 60 -37l195 -281l198 282q24 37 59 37q26 0 43 -17.5t17 -42.5q0 -21 -17 -44l-239 -327v-219q0 -26 -18 -43.5t-44 -17.5t-43.5 17.5t-17.5 43.5zM345 753q-30 0 -30 21q0 8 8 22l57 88q18 29 48 29
q24 0 48 -12.5t24 -26.5q0 -15 -17 -30l-67 -64q-28 -27 -71 -27z" />
    <glyph glyph-name="Thorn" unicode="&#xde;" horiz-adv-x="673" 
d="M90 56v588q0 26 18 43.5t44 17.5t43.5 -17.5t17.5 -43.5v-53h153q122 0 194 -64t72 -170v-2q0 -114 -79 -176.5t-201 -62.5h-139v-60q0 -26 -17.5 -43.5t-43.5 -17.5t-44 17.5t-18 43.5zM213 226h143q69 0 110 35t41 91v2q0 61 -40 93t-111 32h-143v-253z" />
    <glyph glyph-name="germandbls" unicode="&#xdf;" horiz-adv-x="620" 
d="M291 47q0 37 43 48q116 18 116 104v2q0 77 -115 106q-44 13 -44 53q0 31 26 50q92 51 92 126v2q0 44 -27.5 70t-73.5 26q-51 0 -81.5 -34.5t-30.5 -93.5v-452q0 -25 -17.5 -42t-43.5 -17q-25 0 -42 17t-17 42v448q0 108 64 171.5t174 63.5q99 0 157.5 -53.5t58.5 -134.5
v-2q0 -111 -111 -171q152 -53 152 -178v-2q0 -92 -66.5 -144.5t-158.5 -54.5q-26 0 -40.5 14t-14.5 36z" />
    <glyph glyph-name="agrave" unicode="&#xe0;" 
d="M228 -11q-79 0 -133 43t-54 120v2q0 84 59 127t159 43q73 0 142 -22v13q0 115 -131 115q-64 0 -117 -21q-10 -3 -19 -3q-21 0 -36 14.5t-15 35.5q0 36 33 48q83 31 170 31q118 0 175 -59q57 -57 57 -163v-260q0 -25 -17 -41.5t-42 -16.5q-26 0 -42.5 15t-16.5 36v20
q-64 -77 -172 -77zM262 77q61 0 101 31.5t40 81.5v36q-54 21 -120 21q-59 0 -91.5 -23t-32.5 -65v-2q0 -37 29 -58.5t74 -21.5zM352 590q-43 0 -70 27l-68 64q-17 15 -17 30q0 14 23.5 26.5t48.5 12.5q30 0 48 -29l57 -88q9 -16 9 -22q0 -21 -31 -21z" />
    <glyph glyph-name="aacute" unicode="&#xe1;" 
d="M228 -11q-79 0 -133 43t-54 120v2q0 84 59 127t159 43q73 0 142 -22v13q0 115 -131 115q-64 0 -117 -21q-10 -3 -19 -3q-21 0 -36 14.5t-15 35.5q0 36 33 48q83 31 170 31q118 0 175 -59q57 -57 57 -163v-260q0 -25 -17 -41.5t-42 -16.5q-26 0 -42.5 15t-16.5 36v20
q-64 -77 -172 -77zM262 77q61 0 101 31.5t40 81.5v36q-54 21 -120 21q-59 0 -91.5 -23t-32.5 -65v-2q0 -37 29 -58.5t74 -21.5zM298 590q-30 0 -30 21q0 8 8 22l57 88q18 29 48 29q24 0 48 -12.5t24 -26.5q0 -15 -17 -30l-67 -64q-28 -27 -71 -27z" />
    <glyph glyph-name="acircumflex" unicode="&#xe2;" 
d="M228 -11q-79 0 -133 43t-54 120v2q0 84 59 127t159 43q73 0 142 -22v13q0 115 -131 115q-64 0 -117 -21q-10 -3 -19 -3q-21 0 -36 14.5t-15 35.5q0 36 33 48q83 31 170 31q118 0 175 -59q57 -57 57 -163v-260q0 -25 -17 -41.5t-42 -16.5q-26 0 -42.5 15t-16.5 36v20
q-64 -77 -172 -77zM262 77q61 0 101 31.5t40 81.5v36q-54 21 -120 21q-59 0 -91.5 -23t-32.5 -65v-2q0 -37 29 -58.5t74 -21.5zM308 662l-52 -45q-32 -27 -74 -27q-27 0 -27 20q0 10 12 24l66 83q23 29 58 29h36q35 0 58 -29l66 -83q12 -14 12 -24q0 -20 -29 -20
q-42 0 -74 27z" />
    <glyph glyph-name="atilde" unicode="&#xe3;" 
d="M228 -11q-79 0 -133 43t-54 120v2q0 84 59 127t159 43q73 0 142 -22v13q0 115 -131 115q-64 0 -117 -21q-10 -3 -19 -3q-21 0 -36 14.5t-15 35.5q0 36 33 48q83 31 170 31q118 0 175 -59q57 -57 57 -163v-260q0 -25 -17 -41.5t-42 -16.5q-26 0 -42.5 15t-16.5 36v20
q-64 -77 -172 -77zM262 77q61 0 101 31.5t40 81.5v36q-54 21 -120 21q-59 0 -91.5 -23t-32.5 -65v-2q0 -37 29 -58.5t74 -21.5zM230 626l-2 -3q-15 -21 -35 -20q-15 2 -25.5 12.5t-9.5 25.5q2 5 2 11q18 44 38.5 61.5t53.5 16.5q30 -1 66 -22l18 -10q19 -6 23 -7q15 0 22 17
q25 25 39 25q15 -2 25.5 -13t10.5 -26l-3 -9q-3 -3 -3 -6q-16 -42 -37.5 -59t-56.5 -15q-23 1 -69 23q-2 2 -6 3t-6 2l-3 3t-3 2v-1q-13 5 -18 5q-14 0 -21 -16z" />
    <glyph glyph-name="adieresis" unicode="&#xe4;" 
d="M228 -11q-79 0 -133 43t-54 120v2q0 84 59 127t159 43q73 0 142 -22v13q0 115 -131 115q-64 0 -117 -21q-10 -3 -19 -3q-21 0 -36 14.5t-15 35.5q0 36 33 48q83 31 170 31q118 0 175 -59q57 -57 57 -163v-260q0 -25 -17 -41.5t-42 -16.5q-26 0 -42.5 15t-16.5 36v20
q-64 -77 -172 -77zM262 77q61 0 101 31.5t40 81.5v36q-54 21 -120 21q-59 0 -91.5 -23t-32.5 -65v-2q0 -37 29 -58.5t74 -21.5zM394 720q27 0 46 -17.5t19 -44.5v-7q0 -27 -19 -44t-46 -17q-28 0 -47 17t-19 44v7q0 27 19 44.5t47 17.5zM195 720q27 0 46 -17.5t19 -44.5v-7
q0 -27 -19 -44t-46 -17q-28 0 -47 17t-19 44v7q0 27 19 44.5t47 17.5z" />
    <glyph glyph-name="aring" unicode="&#xe5;" 
d="M228 -11q-79 0 -133 43t-54 120v2q0 84 59 127t159 43q73 0 142 -22v13q0 115 -131 115q-64 0 -117 -21q-10 -3 -19 -3q-21 0 -36 14.5t-15 35.5q0 36 33 48q83 31 170 31q118 0 175 -59q57 -57 57 -163v-260q0 -25 -17 -41.5t-42 -16.5q-26 0 -42.5 15t-16.5 36v20
q-64 -77 -172 -77zM294 593q-45 0 -79.5 32t-34.5 77v2q0 45 34.5 77t79.5 32t79.5 -32t34.5 -77v-2q0 -45 -34.5 -77t-79.5 -32zM262 77q61 0 101 31.5t40 81.5v36q-54 21 -120 21q-59 0 -91.5 -23t-32.5 -65v-2q0 -37 29 -58.5t74 -21.5zM294 641q26 0 44 18t18 43v2
q0 25 -18 43t-44 18t-44 -18t-18 -43v-2q0 -25 18 -43t44 -18z" />
    <glyph glyph-name="ae" unicode="&#xe6;" horiz-adv-x="952" 
d="M514 301h272q-6 61 -41 100t-93 39q-56 0 -93 -38t-45 -101zM260 78q83 0 157 68q-16 35 -20 81q-56 20 -116 20q-58 0 -90 -23t-32 -65v-2q0 -36 29 -57.5t72 -21.5zM855 58q-78 -70 -190 -70q-127 0 -204 90q-109 -89 -221 -89q-86 0 -142.5 43.5t-56.5 119.5v2
q0 84 58.5 127t157.5 43q71 0 140 -22v13q0 115 -129 115q-58 0 -115 -21q-10 -3 -19 -3q-21 0 -36 14.5t-15 35.5q0 36 33 48q79 31 168 31q136 0 186 -86q69 90 185 90q78 0 136.5 -40.5t85 -98t26.5 -121.5q0 -26 -16.5 -42t-40.5 -16h-330q10 -64 51 -99t100 -35
q69 0 126 46q14 11 30 11q21 0 35 -14t14 -35q0 -22 -17 -37z" />
    <glyph glyph-name="ccedilla" unicode="&#xe7;" horiz-adv-x="571" 
d="M512 63q-72 -69 -170 -74l-52 -120q-12 -29 -39 -29q-20 0 -45 14.5t-25 29.5q0 12 8 23l61 90q-90 22 -146.5 95t-56.5 169v2q0 114 78.5 195t196.5 81q109 0 185 -66q19 -17 19 -42q0 -23 -16.5 -39t-39.5 -16q-22 0 -36 12q-52 45 -113 45q-65 0 -109 -49t-44 -119v-2
q0 -71 44.5 -120t113.5 -49q63 0 118 47q13 13 33 13q22 0 37 -15.5t15 -37.5q0 -24 -17 -38z" />
    <glyph glyph-name="egrave" unicode="&#xe8;" horiz-adv-x="604" 
d="M167 301h271q-6 61 -41 100t-93 39q-56 0 -92.5 -38t-44.5 -101zM508 58q-78 -70 -190 -70q-116 0 -193.5 76.5t-77.5 197.5v2q0 116 73 195.5t185 79.5q80 0 139 -40.5t85.5 -98t26.5 -121.5q0 -26 -16.5 -42t-40.5 -16h-331q10 -64 51 -99t101 -35q68 0 125 46
q14 11 31 11q20 0 34 -14t14 -35t-16 -37zM346 590q-43 0 -70 27l-68 64q-17 15 -17 30q0 14 23.5 26.5t48.5 12.5q30 0 48 -29l57 -88q9 -16 9 -22q0 -21 -31 -21z" />
    <glyph glyph-name="eacute" unicode="&#xe9;" horiz-adv-x="604" 
d="M305 590q-30 0 -30 21q0 8 8 22l57 88q18 29 48 29q24 0 48 -12.5t24 -26.5q0 -15 -17 -30l-67 -64q-28 -27 -71 -27zM167 301h271q-6 61 -41 100t-93 39q-56 0 -92.5 -38t-44.5 -101zM508 58q-78 -70 -190 -70q-116 0 -193.5 76.5t-77.5 197.5v2q0 116 73 195.5
t185 79.5q80 0 139 -40.5t85.5 -98t26.5 -121.5q0 -26 -16.5 -42t-40.5 -16h-331q10 -64 51 -99t101 -35q68 0 125 46q14 11 31 11q20 0 34 -14t14 -35t-16 -37z" />
    <glyph glyph-name="ecircumflex" unicode="&#xea;" horiz-adv-x="604" 
d="M311 662l-52 -45q-32 -27 -74 -27q-27 0 -27 20q0 10 12 24l66 83q23 29 58 29h36q35 0 58 -29l66 -83q12 -14 12 -24q0 -20 -29 -20q-42 0 -74 27zM167 301h271q-6 61 -41 100t-93 39q-56 0 -92.5 -38t-44.5 -101zM508 58q-78 -70 -190 -70q-116 0 -193.5 76.5
t-77.5 197.5v2q0 116 73 195.5t185 79.5q80 0 139 -40.5t85.5 -98t26.5 -121.5q0 -26 -16.5 -42t-40.5 -16h-331q10 -64 51 -99t101 -35q68 0 125 46q14 11 31 11q20 0 34 -14t14 -35t-16 -37z" />
    <glyph glyph-name="edieresis" unicode="&#xeb;" horiz-adv-x="604" 
d="M403 720q27 0 46 -17.5t19 -44.5v-7q0 -27 -19 -44t-46 -17q-28 0 -47 17t-19 44v7q0 27 19 44.5t47 17.5zM204 720q27 0 46 -17.5t19 -44.5v-7q0 -27 -19 -44t-46 -17q-28 0 -47 17t-19 44v7q0 27 19 44.5t47 17.5zM167 301h271q-6 61 -41 100t-93 39q-56 0 -92.5 -38
t-44.5 -101zM508 58q-78 -70 -190 -70q-116 0 -193.5 76.5t-77.5 197.5v2q0 116 73 195.5t185 79.5q80 0 139 -40.5t85.5 -98t26.5 -121.5q0 -26 -16.5 -42t-40.5 -16h-331q10 -64 51 -99t101 -35q68 0 125 46q14 11 31 11q20 0 34 -14t14 -35t-16 -37z" />
    <glyph glyph-name="igrave" unicode="&#xec;" horiz-adv-x="286" 
d="M83 55v418q0 26 17 43.5t43 17.5t43.5 -17.5t17.5 -43.5v-418q0 -26 -17.5 -43t-43.5 -17q-25 0 -42.5 17t-17.5 43zM172 590q-43 0 -70 27l-68 64q-17 15 -17 30q0 14 23.5 26.5t48.5 12.5q30 0 48 -29l57 -88q9 -16 9 -22q0 -21 -31 -21z" />
    <glyph glyph-name="iacute" unicode="&#xed;" horiz-adv-x="286" 
d="M111 590q-30 0 -30 21q0 8 8 22l57 88q18 29 48 29q24 0 48 -12.5t24 -26.5q0 -15 -17 -30l-67 -64q-28 -27 -71 -27zM83 55v418q0 26 17 43.5t43 17.5t43.5 -17.5t17.5 -43.5v-418q0 -26 -17.5 -43t-43.5 -17q-25 0 -42.5 17t-17.5 43z" />
    <glyph glyph-name="icircumflex" unicode="&#xee;" horiz-adv-x="286" 
d="M142 662l-52 -45q-32 -27 -74 -27q-27 0 -27 20q0 10 12 24l66 83q23 29 58 29h36q35 0 58 -29l66 -83q12 -14 12 -24q0 -20 -29 -20q-42 0 -74 27zM83 55v418q0 26 17 43.5t43 17.5t43.5 -17.5t17.5 -43.5v-418q0 -26 -17.5 -43t-43.5 -17q-25 0 -42.5 17t-17.5 43z" />
    <glyph glyph-name="idieresis" unicode="&#xef;" horiz-adv-x="286" 
d="M243 720q27 0 46 -17.5t19 -44.5v-7q0 -27 -19 -44t-46 -17q-28 0 -47 17t-19 44v7q0 27 19 44.5t47 17.5zM44 720q27 0 46 -17.5t19 -44.5v-7q0 -27 -19 -44t-46 -17q-28 0 -47 17t-19 44v7q0 27 19 44.5t47 17.5zM83 55v418q0 26 17 43.5t43 17.5t43.5 -17.5
t17.5 -43.5v-418q0 -26 -17.5 -43t-43.5 -17q-25 0 -42.5 17t-17.5 43z" />
    <glyph glyph-name="eth" unicode="&#xf0;" horiz-adv-x="642" 
d="M418 445l-104 143l-109 -48q-7 -3 -17 -3q-16 0 -27 11t-11 27q0 24 27 36l91 40q-10 13 -10 32q0 23 16 39t39 16q29 0 48 -27l11 -16l87 38q9 4 17 4q16 0 27 -11.5t11 -27.5q0 -24 -26 -36l-72 -31l90 -128q46 -69 66.5 -124t20.5 -120q0 -114 -75.5 -192.5
t-201.5 -78.5q-116 0 -192.5 76t-76.5 185q0 105 66.5 171t165.5 66q74 0 139 -41zM474 247q0 63 -44 106.5t-113 43.5q-68 0 -109.5 -43t-41.5 -108q0 -64 44 -109.5t111 -45.5q68 0 110.5 45.5t42.5 110.5z" />
    <glyph glyph-name="ntilde" unicode="&#xf1;" horiz-adv-x="620" 
d="M76 55v418q0 26 17 43.5t43 17.5t43.5 -17.5t17.5 -43.5v-26q66 92 165 92q89 0 138.5 -54.5t49.5 -147.5v-282q0 -26 -17 -43t-43 -17t-43.5 17t-17.5 43v245q0 62 -29.5 95.5t-83.5 33.5t-86.5 -35t-32.5 -96v-243q0 -26 -17.5 -43t-43.5 -17q-25 0 -42.5 17t-17.5 43z
M203 603q-13 -20 -33 -20q-15 0 -26 10t-11 23q0 14 4 23q16 46 40 68.5t62 22.5q31 0 80 -20t64 -20q29 0 46 32q13 20 33 20q15 0 26 -10t11 -23q0 -14 -4 -23q-16 -46 -40 -68.5t-62 -22.5q-30 0 -79.5 20t-64.5 20q-29 0 -46 -32z" />
    <glyph glyph-name="ograve" unicode="&#xf2;" horiz-adv-x="657" 
d="M327 -12q-120 0 -200 79.5t-80 193.5v2q0 115 81 195.5t201 80.5q121 0 201 -79.5t80 -194.5v-2q0 -113 -81 -194t-202 -81zM329 94q72 0 116 48.5t44 118.5v2q0 71 -46 120.5t-116 49.5q-71 0 -115 -48.5t-44 -119.5v-2q0 -70 46 -119.5t115 -49.5zM372 590
q-43 0 -70 27l-68 64q-17 15 -17 30q0 14 23.5 26.5t48.5 12.5q30 0 48 -29l57 -88q9 -16 9 -22q0 -21 -31 -21z" />
    <glyph glyph-name="oacute" unicode="&#xf3;" horiz-adv-x="657" 
d="M327 590q-30 0 -30 21q0 8 8 22l57 88q18 29 48 29q24 0 48 -12.5t24 -26.5q0 -15 -17 -30l-67 -64q-28 -27 -71 -27zM327 -12q-120 0 -200 79.5t-80 193.5v2q0 115 81 195.5t201 80.5q121 0 201 -79.5t80 -194.5v-2q0 -113 -81 -194t-202 -81zM329 94q72 0 116 48.5
t44 118.5v2q0 71 -46 120.5t-116 49.5q-71 0 -115 -48.5t-44 -119.5v-2q0 -70 46 -119.5t115 -49.5z" />
    <glyph glyph-name="ocircumflex" unicode="&#xf4;" horiz-adv-x="657" 
d="M331 662l-52 -45q-32 -27 -74 -27q-27 0 -27 20q0 10 12 24l66 83q23 29 58 29h36q35 0 58 -29l66 -83q12 -14 12 -24q0 -20 -29 -20q-42 0 -74 27zM327 -12q-120 0 -200 79.5t-80 193.5v2q0 115 81 195.5t201 80.5q121 0 201 -79.5t80 -194.5v-2q0 -113 -81 -194
t-202 -81zM329 94q72 0 116 48.5t44 118.5v2q0 71 -46 120.5t-116 49.5q-71 0 -115 -48.5t-44 -119.5v-2q0 -70 46 -119.5t115 -49.5z" />
    <glyph glyph-name="otilde" unicode="&#xf5;" horiz-adv-x="657" 
d="M327 -12q-120 0 -200 79.5t-80 193.5v2q0 115 81 195.5t201 80.5q121 0 201 -79.5t80 -194.5v-2q0 -113 -81 -194t-202 -81zM329 94q72 0 116 48.5t44 118.5v2q0 71 -46 120.5t-116 49.5q-71 0 -115 -48.5t-44 -119.5v-2q0 -70 46 -119.5t115 -49.5zM269 626l-2 -3
q-15 -21 -35 -20q-15 2 -25.5 12.5t-9.5 25.5q2 5 2 11q18 44 38.5 61.5t53.5 16.5q30 -1 66 -22l18 -10q19 -6 23 -7q15 0 22 17q25 25 39 25q15 -2 25.5 -13t10.5 -26l-3 -9q-3 -3 -3 -6q-16 -42 -37.5 -59t-56.5 -15q-23 1 -69 23q-2 2 -6 3t-6 2q0 1 -3 3l-3 2v-1
q-13 5 -18 5q-14 0 -21 -16z" />
    <glyph glyph-name="odieresis" unicode="&#xf6;" horiz-adv-x="657" 
d="M428 720q27 0 46 -17.5t19 -44.5v-7q0 -27 -19 -44t-46 -17q-28 0 -47 17t-19 44v7q0 27 19 44.5t47 17.5zM229 720q27 0 46 -17.5t19 -44.5v-7q0 -27 -19 -44t-46 -17q-28 0 -47 17t-19 44v7q0 27 19 44.5t47 17.5zM327 -12q-120 0 -200 79.5t-80 193.5v2
q0 115 81 195.5t201 80.5q121 0 201 -79.5t80 -194.5v-2q0 -113 -81 -194t-202 -81zM329 94q72 0 116 48.5t44 118.5v2q0 71 -46 120.5t-116 49.5q-71 0 -115 -48.5t-44 -119.5v-2q0 -70 46 -119.5t115 -49.5z" />
    <glyph glyph-name="divide" unicode="&#xf7;" horiz-adv-x="634" 
d="M519 300h-404q-22 0 -37 15.5t-15 36.5t15 36.5t37 15.5h404q22 0 37 -15.5t15 -36.5t-15 -36.5t-37 -15.5zM317 629q29 0 49 -19.5t20 -46.5v-5q0 -28 -20 -47.5t-49 -19.5t-49 19.5t-20 47.5v5q0 27 20 46.5t49 19.5zM317 213q29 0 49 -19.5t20 -47.5v-5q0 -28 -20 -47
t-49 -19t-49 19t-20 47v5q0 28 20 47.5t49 19.5z" />
    <glyph glyph-name="oslash" unicode="&#xf8;" horiz-adv-x="657" 
d="M327 -12q-92 0 -162 48l-29 -30q-18 -18 -38 -18q-16 0 -27.5 11t-11.5 26q0 20 17 37l29 30q-58 74 -58 169v2q0 115 81 195.5t201 80.5q91 0 162 -49l30 31q18 18 38 18q16 0 27.5 -10.5t11.5 -25.5q0 -17 -17 -38l-30 -30q59 -75 59 -170v-2q0 -113 -81 -194t-202 -81
zM165 265v-2q0 -48 22 -88l229 234q-40 27 -89 27q-72 0 -117 -49.5t-45 -121.5zM329 91q73 0 118 49.5t45 120.5v2q0 47 -23 88l-229 -234q38 -26 89 -26z" />
    <glyph glyph-name="ugrave" unicode="&#xf9;" horiz-adv-x="620" 
d="M545 473v-418q0 -25 -17.5 -42.5t-43.5 -17.5q-25 0 -43 17t-18 43v27q-64 -93 -165 -93q-89 0 -138.5 54.5t-49.5 148.5v281q0 26 17.5 43.5t42.5 17.5q26 0 43.5 -17.5t17.5 -43.5v-245q0 -62 29.5 -95t83.5 -33t86.5 34.5t32.5 95.5v243q0 26 17.5 43.5t43.5 17.5
q25 0 43 -17.5t18 -43.5zM327 590q-43 0 -70 27l-68 64q-17 15 -17 30q0 14 23.5 26.5t48.5 12.5q30 0 48 -29l57 -88q9 -16 9 -22q0 -21 -31 -21z" />
    <glyph glyph-name="uacute" unicode="&#xfa;" horiz-adv-x="620" 
d="M302 590q-30 0 -30 21q0 8 8 22l57 88q18 29 48 29q24 0 48 -12.5t24 -26.5q0 -15 -17 -30l-67 -64q-28 -27 -71 -27zM545 473v-418q0 -25 -17.5 -42.5t-43.5 -17.5q-25 0 -43 17t-18 43v27q-64 -93 -165 -93q-89 0 -138.5 54.5t-49.5 148.5v281q0 26 17.5 43.5
t42.5 17.5q26 0 43.5 -17.5t17.5 -43.5v-245q0 -62 29.5 -95t83.5 -33t86.5 34.5t32.5 95.5v243q0 26 17.5 43.5t43.5 17.5q25 0 43 -17.5t18 -43.5z" />
    <glyph glyph-name="ucircumflex" unicode="&#xfb;" horiz-adv-x="620" 
d="M305 662l-52 -45q-32 -27 -74 -27q-27 0 -27 20q0 10 12 24l66 83q23 29 58 29h36q35 0 58 -29l66 -83q12 -14 12 -24q0 -20 -29 -20q-42 0 -74 27zM545 473v-418q0 -25 -17.5 -42.5t-43.5 -17.5q-25 0 -43 17t-18 43v27q-64 -93 -165 -93q-89 0 -138.5 54.5t-49.5 148.5
v281q0 26 17.5 43.5t42.5 17.5q26 0 43.5 -17.5t17.5 -43.5v-245q0 -62 29.5 -95t83.5 -33t86.5 34.5t32.5 95.5v243q0 26 17.5 43.5t43.5 17.5q25 0 43 -17.5t18 -43.5z" />
    <glyph glyph-name="udieresis" unicode="&#xfc;" horiz-adv-x="620" 
d="M406 720q27 0 46 -17.5t19 -44.5v-7q0 -27 -19 -44t-46 -17q-28 0 -47 17t-19 44v7q0 27 19 44.5t47 17.5zM207 720q27 0 46 -17.5t19 -44.5v-7q0 -27 -19 -44t-46 -17q-28 0 -47 17t-19 44v7q0 27 19 44.5t47 17.5zM545 473v-418q0 -25 -17.5 -42.5t-43.5 -17.5
q-25 0 -43 17t-18 43v27q-64 -93 -165 -93q-89 0 -138.5 54.5t-49.5 148.5v281q0 26 17.5 43.5t42.5 17.5q26 0 43.5 -17.5t17.5 -43.5v-245q0 -62 29.5 -95t83.5 -33t86.5 34.5t32.5 95.5v243q0 26 17.5 43.5t43.5 17.5q25 0 43 -17.5t18 -43.5z" />
    <glyph glyph-name="yacute" unicode="&#xfd;" 
d="M172 -163q-50 0 -84 15q-38 14 -38 50q0 23 14 36.5t35 13.5q13 0 22 -4q26 -7 42 -7q27 0 43.5 12.5t31.5 43.5l4 11l-196 438q-7 15 -7 29q0 26 17 42.5t43 16.5q41 0 59 -46l142 -351l132 351q20 46 58 46q24 0 41 -16.5t17 -40.5q0 -17 -5 -29l-193 -463
q-34 -81 -74 -114.5t-104 -33.5zM287 590q-30 0 -30 21q0 8 8 22l57 88q18 29 48 29q24 0 48 -12.5t24 -26.5q0 -15 -17 -30l-67 -64q-28 -27 -71 -27z" />
    <glyph glyph-name="thorn" unicode="&#xfe;" horiz-adv-x="671" 
d="M76 -105v780q0 26 17 43t43 17t43.5 -17t17.5 -43v-235q70 99 180 99q99 0 172 -74t73 -200v-2q0 -126 -72.5 -200t-172.5 -74q-110 0 -180 93v-187q0 -26 -17.5 -43t-43.5 -17q-25 0 -42.5 17t-17.5 43zM348 94q64 0 107.5 46.5t43.5 122.5v2q0 75 -43.5 122t-107.5 47
t-109 -47.5t-45 -121.5v-2q0 -74 45 -121.5t109 -47.5z" />
    <glyph glyph-name="ydieresis" unicode="&#xff;" 
d="M172 -163q-50 0 -84 15q-38 14 -38 50q0 23 14 36.5t35 13.5q13 0 22 -4q26 -7 42 -7q27 0 43.5 12.5t31.5 43.5l4 11l-196 438q-7 15 -7 29q0 26 17 42.5t43 16.5q41 0 59 -46l142 -351l132 351q20 46 58 46q24 0 41 -16.5t17 -40.5q0 -17 -5 -29l-193 -463
q-34 -81 -74 -114.5t-104 -33.5zM394 720q27 0 46 -17.5t19 -44.5v-7q0 -27 -19 -44t-46 -17q-28 0 -47 17t-19 44v7q0 27 19 44.5t47 17.5zM195 720q27 0 46 -17.5t19 -44.5v-7q0 -27 -19 -44t-46 -17q-28 0 -47 17t-19 44v7q0 27 19 44.5t47 17.5z" />
    <glyph glyph-name="Amacron" unicode="&#x100;" horiz-adv-x="773" 
d="M42 52q0 10 8 28l260 580q24 50 74 50h6q49 0 73 -50l260 -580q7 -13 7 -26q0 -25 -16.5 -42t-41.5 -17q-42 0 -60 43l-57 131h-340l-59 -135q-16 -39 -57 -39q-24 0 -40.5 16.5t-16.5 40.5zM262 278h246l-123 283zM518 779h-266q-18 0 -31 13t-13 31t13 31t31 13h266
q18 0 31 -13t13 -31t-13 -31t-31 -13z" />
    <glyph glyph-name="amacron" unicode="&#x101;" 
d="M228 -11q-79 0 -133 43t-54 120v2q0 84 59 127t159 43q73 0 142 -22v13q0 115 -131 115q-64 0 -117 -21q-10 -3 -19 -3q-21 0 -36 14.5t-15 35.5q0 36 33 48q83 31 170 31q118 0 175 -59q57 -57 57 -163v-260q0 -25 -17 -41.5t-42 -16.5q-26 0 -42.5 15t-16.5 36v20
q-64 -77 -172 -77zM262 77q61 0 101 31.5t40 81.5v36q-54 21 -120 21q-59 0 -91.5 -23t-32.5 -65v-2q0 -37 29 -58.5t74 -21.5zM427 606h-266q-18 0 -31 13t-13 31t13 31t31 13h266q18 0 31 -13t13 -31t-13 -31t-31 -13z" />
    <glyph glyph-name="Abreve" unicode="&#x102;" horiz-adv-x="773" 
d="M42 52q0 10 8 28l260 580q24 50 74 50h6q49 0 73 -50l260 -580q7 -13 7 -26q0 -25 -16.5 -42t-41.5 -17q-42 0 -60 43l-57 131h-340l-59 -135q-16 -39 -57 -39q-24 0 -40.5 16.5t-16.5 40.5zM262 278h246l-123 283zM386 763q-102 0 -134 69q-10 20 -10 34q0 17 11.5 28.5
t26.5 11.5q24 0 41 -22q11 -38 65 -38q58 0 70 41q12 19 38 19q15 0 26.5 -11.5t11.5 -28.5q0 -19 -8 -33q-33 -70 -138 -70z" />
    <glyph glyph-name="abreve" unicode="&#x103;" 
d="M228 -11q-79 0 -133 43t-54 120v2q0 84 59 127t159 43q73 0 142 -22v13q0 115 -131 115q-64 0 -117 -21q-10 -3 -19 -3q-21 0 -36 14.5t-15 35.5q0 36 33 48q83 31 170 31q118 0 175 -59q57 -57 57 -163v-260q0 -25 -17 -41.5t-42 -16.5q-26 0 -42.5 15t-16.5 36v20
q-64 -77 -172 -77zM262 77q61 0 101 31.5t40 81.5v36q-54 21 -120 21q-59 0 -91.5 -23t-32.5 -65v-2q0 -37 29 -58.5t74 -21.5zM320 590q-102 0 -134 69q-10 20 -10 34q0 17 11.5 28.5t26.5 11.5q24 0 41 -22q11 -38 65 -38q58 0 70 41q12 19 38 19q15 0 26.5 -11.5
t11.5 -28.5q0 -19 -8 -33q-33 -70 -138 -70z" />
    <glyph glyph-name="Aogonek" unicode="&#x104;" horiz-adv-x="790" 
d="M50 52q0 6 8 28l260 580q24 50 74 50h7q49 0 73 -50l261 -582q7 -15 7 -26q0 -24 -23 -48q-38 -37 -38 -67t44 -41q33 -8 33 -31q0 -31 -40 -31q-53 0 -90.5 21t-37.5 63q0 41 46 90l-71 161h-340l-58 -135q-17 -39 -58 -39q-24 0 -40.5 16.5t-16.5 40.5zM270 278h246
l-123 283z" />
    <glyph glyph-name="aogonek" unicode="&#x105;" 
d="M362 -85q0 44 53 96q-7 5 -11 24t-4 30v1q-64 -77 -172 -77q-79 0 -133 43t-54 120v2q0 84 59 127t159 43q73 0 142 -22v13q0 115 -131 115q-64 0 -117 -21q-10 -3 -19 -3q-21 0 -36 14.5t-15 35.5q0 36 33 48q83 31 170 31q118 0 175 -59q57 -57 57 -163v-261
q0 -25 -24 -48q-40 -39 -40 -68t43 -40q33 -8 33 -31q0 -31 -40 -31q-53 0 -90.5 20.5t-37.5 60.5zM262 77q61 0 101 31.5t40 81.5v36q-54 21 -120 21q-59 0 -91.5 -23t-32.5 -65v-2q0 -37 29 -58.5t74 -21.5z" />
    <glyph glyph-name="Cacute" unicode="&#x106;" horiz-adv-x="738" 
d="M405 763q-30 0 -30 21q0 8 8 22l57 88q18 29 48 29q24 0 48 -12.5t24 -26.5q0 -15 -17 -30l-67 -64q-28 -27 -71 -27zM415 -12q-152 0 -254 104t-102 256v2q0 152 102 257t259 105q137 0 240 -79q24 -20 24 -49q0 -26 -17.5 -43t-43.5 -17q-23 0 -37 12q-78 63 -167 63
q-99 0 -165 -72t-66 -175v-2q0 -104 66 -176t165 -72q96 0 175 67q16 14 37 14q23 0 40.5 -17t17.5 -40q0 -24 -20 -44q-107 -94 -254 -94z" />
    <glyph glyph-name="cacute" unicode="&#x107;" horiz-adv-x="571" 
d="M312 590q-30 0 -30 21q0 8 8 22l57 88q18 29 48 29q24 0 48 -12.5t24 -26.5q0 -15 -17 -30l-67 -64q-28 -27 -71 -27zM320 -12q-117 0 -195 79.5t-78 193.5v2q0 114 78.5 195t196.5 81q109 0 185 -66q19 -17 19 -42q0 -23 -16.5 -39t-39.5 -16q-22 0 -36 12
q-52 45 -113 45q-65 0 -109 -49t-44 -119v-2q0 -71 44.5 -120t113.5 -49q63 0 118 47q13 13 33 13q22 0 37 -15.5t15 -37.5q0 -24 -17 -38q-78 -75 -192 -75z" />
    <glyph glyph-name="Cdotaccent" unicode="&#x10a;" horiz-adv-x="738" 
d="M415 -12q-152 0 -254 104t-102 256v2q0 152 102 257t259 105q137 0 240 -79q24 -20 24 -49q0 -26 -17.5 -43t-43.5 -17q-23 0 -37 12q-78 63 -167 63q-99 0 -165 -72t-66 -175v-2q0 -104 66 -176t165 -72q96 0 175 67q16 14 37 14q23 0 40.5 -17t17.5 -40q0 -24 -20 -44
q-107 -94 -254 -94zM476 831v-7q0 -27 -19.5 -44t-48.5 -17q-28 0 -47.5 17t-19.5 44v7q0 27 19.5 44.5t47.5 17.5t48 -17.5t20 -44.5z" />
    <glyph glyph-name="cdotaccent" unicode="&#x10b;" horiz-adv-x="571" 
d="M320 -12q-117 0 -195 79.5t-78 193.5v2q0 114 78.5 195t196.5 81q109 0 185 -66q19 -17 19 -42q0 -23 -16.5 -39t-39.5 -16q-22 0 -36 12q-52 45 -113 45q-65 0 -109 -49t-44 -119v-2q0 -71 44.5 -120t113.5 -49q63 0 118 47q13 13 33 13q22 0 37 -15.5t15 -37.5
q0 -24 -17 -38q-78 -75 -192 -75zM383 658v-7q0 -27 -19.5 -44t-48.5 -17q-28 0 -47.5 17t-19.5 44v7q0 27 19.5 44.5t47.5 17.5t48 -17.5t20 -44.5z" />
    <glyph glyph-name="Ccaron" unicode="&#x10c;" horiz-adv-x="738" 
d="M409 848l52 45q32 27 74 27q27 0 27 -20q0 -10 -12 -24l-66 -83q-23 -29 -58 -29h-36q-35 0 -58 29l-66 83q-12 14 -12 24q0 20 29 20q42 0 74 -27zM415 -12q-152 0 -254 104t-102 256v2q0 152 102 257t259 105q137 0 240 -79q24 -20 24 -49q0 -26 -17.5 -43t-43.5 -17
q-23 0 -37 12q-78 63 -167 63q-99 0 -165 -72t-66 -175v-2q0 -104 66 -176t165 -72q96 0 175 67q16 14 37 14q23 0 40.5 -17t17.5 -40q0 -24 -20 -44q-107 -94 -254 -94z" />
    <glyph glyph-name="ccaron" unicode="&#x10d;" horiz-adv-x="571" 
d="M316 675l52 45q32 27 74 27q27 0 27 -20q0 -10 -12 -24l-66 -83q-23 -29 -58 -29h-36q-35 0 -58 29l-66 83q-12 14 -12 24q0 20 29 20q42 0 74 -27zM320 -12q-117 0 -195 79.5t-78 193.5v2q0 114 78.5 195t196.5 81q109 0 185 -66q19 -17 19 -42q0 -23 -16.5 -39
t-39.5 -16q-22 0 -36 12q-52 45 -113 45q-65 0 -109 -49t-44 -119v-2q0 -71 44.5 -120t113.5 -49q63 0 118 47q13 13 33 13q22 0 37 -15.5t15 -37.5q0 -24 -17 -38q-78 -75 -192 -75z" />
    <glyph glyph-name="Dcaron" unicode="&#x10e;" horiz-adv-x="782" 
d="M378 838l52 45q32 27 74 27q27 0 27 -20q0 -10 -12 -24l-66 -83q-23 -29 -58 -29h-36q-35 0 -58 29l-66 83q-12 14 -12 24q0 20 29 20q42 0 74 -27zM90 62v576q0 26 18 44t44 18h199q163 0 267.5 -99.5t104.5 -248.5v-2q0 -150 -104.5 -250t-267.5 -100h-199
q-26 0 -44 18t-18 44zM213 112h138q109 0 176 66t67 170v2q0 104 -67 171t-176 67h-138v-476z" />
    <glyph glyph-name="dcaron" unicode="&#x10f;" horiz-adv-x="671" 
d="M651 567l3 124q1 19 12.5 31.5t31.5 12.5h18q31 0 31 -29q0 -12 -4 -23l-37 -121q-8 -25 -29 -25q-12 0 -19.5 8t-6.5 22zM595 675v-620q0 -26 -17.5 -43t-42.5 -17q-26 0 -43.5 17t-17.5 43v33q-70 -99 -180 -99q-99 0 -172 74t-73 200v2q0 126 72.5 200t172.5 74
q111 0 180 -93v229q0 26 17.5 43t42.5 17q26 0 43.5 -17t17.5 -43zM323 434q-64 0 -108 -46t-44 -123v-2q0 -75 44 -122t108 -47q63 0 108 47.5t45 121.5v2q0 74 -45 121.5t-108 47.5z" />
    <glyph glyph-name="Dcroat" unicode="&#x110;" horiz-adv-x="812" 
d="M120 297h-31q-19 0 -32 13t-13 32q0 18 13 31t32 13h31v252q0 26 18 44t44 18h199q163 0 267.5 -99.5t104.5 -248.5v-2q0 -150 -104.5 -250t-267.5 -100h-199q-26 0 -44 18t-18 44v235zM359 297h-117v-185h139q109 0 176 66t67 170v2q0 104 -67 171t-176 67h-139v-202
h117q19 0 32 -13t13 -31q0 -19 -13 -32t-32 -13z" />
    <glyph glyph-name="dcroat" unicode="&#x111;" horiz-adv-x="671" 
d="M631 583h-36v-528q0 -26 -17.5 -43t-42.5 -17q-26 0 -43.5 17t-17.5 43v33q-70 -99 -180 -99q-99 0 -172 74t-73 200v2q0 126 72.5 200t172.5 74q111 0 180 -93v137h-116q-19 0 -33 14t-14 33q0 20 14 33.5t33 13.5h116q1 25 18 41.5t42 16.5t42.5 -16.5t18.5 -41.5h36
q19 0 33 -13.5t14 -33.5q0 -19 -14 -33t-33 -14zM323 434q-64 0 -108 -46t-44 -123v-2q0 -75 44 -122t108 -47q63 0 108 47.5t45 121.5v2q0 74 -45 121.5t-108 47.5z" />
    <glyph glyph-name="Emacron" unicode="&#x112;" horiz-adv-x="670" 
d="M564 0h-412q-26 0 -44 18t-18 44v576q0 26 18 44t44 18h407q23 0 39 -16t16 -39t-16 -39t-39 -16h-346v-182h301q23 0 39 -16.5t16 -39.5t-16 -38.5t-39 -15.5h-301v-188h351q23 0 39 -16t16 -39t-16 -39t-39 -16zM484 769h-266q-18 0 -31 13t-13 31t13 31t31 13h266
q18 0 31 -13t13 -31t-13 -31t-31 -13z" />
    <glyph glyph-name="emacron" unicode="&#x113;" horiz-adv-x="604" 
d="M167 301h271q-6 61 -41 100t-93 39q-56 0 -92.5 -38t-44.5 -101zM508 58q-78 -70 -190 -70q-116 0 -193.5 76.5t-77.5 197.5v2q0 116 73 195.5t185 79.5q80 0 139 -40.5t85.5 -98t26.5 -121.5q0 -26 -16.5 -42t-40.5 -16h-331q10 -64 51 -99t101 -35q68 0 125 46
q14 11 31 11q20 0 34 -14t14 -35t-16 -37zM436 606h-266q-18 0 -31 13t-13 31t13 31t31 13h266q18 0 31 -13t13 -31t-13 -31t-31 -13z" />
    <glyph glyph-name="Ebreve" unicode="&#x114;" horiz-adv-x="670" 
d="M564 0h-412q-26 0 -44 18t-18 44v576q0 26 18 44t44 18h407q23 0 39 -16t16 -39t-16 -39t-39 -16h-346v-182h301q23 0 39 -16.5t16 -39.5t-16 -38.5t-39 -15.5h-301v-188h351q23 0 39 -16t16 -39t-16 -39t-39 -16zM351 756q-108 0 -153 80q-8 18 -8 31q0 18 12 30.5
t30 12.5q25 0 38 -23q26 -46 81 -46t81 46q13 23 38 23q18 0 30 -12.5t12 -30.5q0 -13 -8 -31q-45 -80 -153 -80z" />
    <glyph glyph-name="ebreve" unicode="&#x115;" horiz-adv-x="604" 
d="M167 301h271q-6 61 -41 100t-93 39q-56 0 -92.5 -38t-44.5 -101zM508 58q-78 -70 -190 -70q-116 0 -193.5 76.5t-77.5 197.5v2q0 116 73 195.5t185 79.5q80 0 139 -40.5t85.5 -98t26.5 -121.5q0 -26 -16.5 -42t-40.5 -16h-331q10 -64 51 -99t101 -35q68 0 125 46
q14 11 31 11q20 0 34 -14t14 -35t-16 -37zM303 593q-108 0 -153 80q-8 18 -8 31q0 18 12 30.5t30 12.5q25 0 38 -23q26 -46 81 -46t81 46q13 23 38 23q18 0 30 -12.5t12 -30.5q0 -13 -8 -31q-45 -80 -153 -80z" />
    <glyph glyph-name="Edotaccent" unicode="&#x116;" horiz-adv-x="670" 
d="M564 0h-412q-26 0 -44 18t-18 44v576q0 26 18 44t44 18h407q23 0 39 -16t16 -39t-16 -39t-39 -16h-346v-182h301q23 0 39 -16.5t16 -39.5t-16 -38.5t-39 -15.5h-301v-188h351q23 0 39 -16t16 -39t-16 -39t-39 -16zM419 821v-7q0 -27 -19.5 -44t-48.5 -17q-28 0 -47.5 17
t-19.5 44v7q0 27 19.5 44.5t47.5 17.5t48 -17.5t20 -44.5z" />
    <glyph glyph-name="edotaccent" unicode="&#x117;" horiz-adv-x="604" 
d="M167 301h271q-6 61 -41 100t-93 39q-56 0 -92.5 -38t-44.5 -101zM508 58q-78 -70 -190 -70q-116 0 -193.5 76.5t-77.5 197.5v2q0 116 73 195.5t185 79.5q80 0 139 -40.5t85.5 -98t26.5 -121.5q0 -26 -16.5 -42t-40.5 -16h-331q10 -64 51 -99t101 -35q68 0 125 46
q14 11 31 11q20 0 34 -14t14 -35t-16 -37zM371 658v-7q0 -27 -19.5 -44t-48.5 -17q-28 0 -47.5 17t-19.5 44v7q0 27 19.5 44.5t47.5 17.5t48 -17.5t20 -44.5z" />
    <glyph glyph-name="Eogonek" unicode="&#x118;" horiz-adv-x="670" 
d="M495 0h-343q-26 0 -44 18t-18 44v576q0 26 18 44t44 18h407q23 0 39 -16t16 -39t-16 -39t-39 -16h-346v-182h301q23 0 39 -16.5t16 -39.5t-16 -38.5t-39 -15.5h-301v-188h350q24 0 40 -15t16 -36q0 -13 -4 -23t-9 -15.5t-18 -17.5q-42 -36 -42 -66t43 -41q34 -7 34 -31
q0 -31 -40 -31q-54 0 -91.5 20.5t-37.5 63.5q0 38 41 82z" />
    <glyph glyph-name="eogonek" unicode="&#x119;" horiz-adv-x="604" 
d="M556 279q0 -26 -16.5 -42t-40.5 -16h-331q10 -64 51 -99t101 -35q68 0 125 46q14 11 31 11q20 0 34 -14t14 -35q0 -17 -16 -37q-21 -18 -43 -40q-44 -41 -44 -76q0 -21 10.5 -30.5t33.5 -15.5q33 -8 33 -31q0 -31 -39 -31q-57 0 -93 22t-36 64q0 35 34 72q-20 -4 -46 -4
q-116 0 -193.5 76.5t-77.5 197.5v2q0 116 73 195.5t185 79.5q80 0 139 -40.5t85.5 -98t26.5 -121.5zM167 301h271q-6 61 -41 100t-93 39q-56 0 -92.5 -38t-44.5 -101z" />
    <glyph glyph-name="Ecaron" unicode="&#x11a;" horiz-adv-x="670" 
d="M352 838l52 45q32 27 74 27q27 0 27 -20q0 -10 -12 -24l-66 -83q-23 -29 -58 -29h-36q-35 0 -58 29l-66 83q-12 14 -12 24q0 20 29 20q42 0 74 -27zM564 0h-412q-26 0 -44 18t-18 44v576q0 26 18 44t44 18h407q23 0 39 -16t16 -39t-16 -39t-39 -16h-346v-182h301
q23 0 39 -16.5t16 -39.5t-16 -38.5t-39 -15.5h-301v-188h351q23 0 39 -16t16 -39t-16 -39t-39 -16z" />
    <glyph glyph-name="ecaron" unicode="&#x11b;" horiz-adv-x="604" 
d="M304 675l52 45q32 27 74 27q27 0 27 -20q0 -10 -12 -24l-66 -83q-23 -29 -58 -29h-36q-35 0 -58 29l-66 83q-12 14 -12 24q0 20 29 20q42 0 74 -27zM167 301h271q-6 61 -41 100t-93 39q-56 0 -92.5 -38t-44.5 -101zM508 58q-78 -70 -190 -70q-116 0 -193.5 76.5
t-77.5 197.5v2q0 116 73 195.5t185 79.5q80 0 139 -40.5t85.5 -98t26.5 -121.5q0 -26 -16.5 -42t-40.5 -16h-331q10 -64 51 -99t101 -35q68 0 125 46q14 11 31 11q20 0 34 -14t14 -35t-16 -37z" />
    <glyph glyph-name="Gbreve" unicode="&#x11e;" horiz-adv-x="784" 
d="M422 -12q-162 0 -262.5 102.5t-100.5 257.5v2q0 150 102.5 256t258.5 106q142 0 239 -71q25 -19 25 -50q0 -25 -17.5 -43t-43.5 -18q-16 0 -38 14q-75 55 -170 55t-161 -73t-66 -174v-2q0 -109 66 -179.5t172 -70.5q98 0 169 53v131h-138q-23 0 -39 15t-16 38t16 38.5
t39 15.5h195q26 0 44 -18t18 -44v-187q0 -51 -43 -78q-114 -76 -249 -76zM412 766q-108 0 -153 80q-8 18 -8 31q0 18 12 30.5t30 12.5q25 0 38 -23q26 -46 81 -46t81 46q13 23 38 23q18 0 30 -12.5t12 -30.5q0 -13 -8 -31q-45 -80 -153 -80z" />
    <glyph glyph-name="gbreve" unicode="&#x11f;" horiz-adv-x="671" 
d="M311 -162q-107 0 -204 47q-34 13 -34 48q0 20 15 35t36 15q10 0 22 -5q75 -42 162 -42q81 0 124 41t43 121v41q-75 -97 -186 -97q-98 0 -169 67.5t-71 179.5v2q0 112 71 180t169 68q110 0 185 -90v25q0 25 17.5 42.5t42.5 17.5q26 0 43.5 -17.5t17.5 -43.5v-365
q0 -132 -67 -199q-71 -71 -217 -71zM321 145q64 0 109.5 41t45.5 104v2q0 63 -45.5 104t-109.5 41t-107 -40.5t-43 -104.5v-2q0 -64 43.5 -104.5t106.5 -40.5zM326 593q-108 0 -153 80q-8 18 -8 31q0 18 12 30.5t30 12.5q25 0 38 -23q26 -46 81 -46t81 46q13 23 38 23
q18 0 30 -12.5t12 -30.5q0 -13 -8 -31q-45 -80 -153 -80z" />
    <glyph glyph-name="Gdotaccent" unicode="&#x120;" horiz-adv-x="784" 
d="M422 -12q-162 0 -262.5 102.5t-100.5 257.5v2q0 150 102.5 256t258.5 106q142 0 239 -71q25 -19 25 -50q0 -25 -17.5 -43t-43.5 -18q-16 0 -38 14q-75 55 -170 55t-161 -73t-66 -174v-2q0 -109 66 -179.5t172 -70.5q98 0 169 53v131h-138q-23 0 -39 15t-16 38t16 38.5
t39 15.5h195q26 0 44 -18t18 -44v-187q0 -51 -43 -78q-114 -76 -249 -76zM480 831v-7q0 -27 -19.5 -44t-48.5 -17q-28 0 -47.5 17t-19.5 44v7q0 27 19.5 44.5t47.5 17.5t48 -17.5t20 -44.5z" />
    <glyph glyph-name="gdotaccent" unicode="&#x121;" horiz-adv-x="671" 
d="M311 -162q-107 0 -204 47q-34 13 -34 48q0 20 15 35t36 15q10 0 22 -5q75 -42 162 -42q81 0 124 41t43 121v41q-75 -97 -186 -97q-98 0 -169 67.5t-71 179.5v2q0 112 71 180t169 68q110 0 185 -90v25q0 25 17.5 42.5t42.5 17.5q26 0 43.5 -17.5t17.5 -43.5v-365
q0 -132 -67 -199q-71 -71 -217 -71zM321 145q64 0 109.5 41t45.5 104v2q0 63 -45.5 104t-109.5 41t-107 -40.5t-43 -104.5v-2q0 -64 43.5 -104.5t106.5 -40.5zM394 658v-7q0 -27 -19.5 -44t-48.5 -17q-28 0 -47.5 17t-19.5 44v7q0 27 19.5 44.5t47.5 17.5t48 -17.5t20 -44.5
z" />
    <glyph glyph-name="Gcommaaccent" unicode="&#x122;" horiz-adv-x="784" 
d="M403 -169q-54 9 -54 53v2q0 23 17 38t44 15q29 0 46.5 -19t17.5 -51v-3q0 -71 -43 -108q-38 -33 -86 -33q-26 0 -26 21q0 16 21 21q65 14 63 64zM422 -12q-162 0 -262.5 102.5t-100.5 257.5v2q0 150 102.5 256t258.5 106q142 0 239 -71q25 -19 25 -50q0 -25 -17.5 -43
t-43.5 -18q-16 0 -38 14q-75 55 -170 55t-161 -73t-66 -174v-2q0 -109 66 -179.5t172 -70.5q98 0 169 53v131h-138q-23 0 -39 15t-16 38t16 38.5t39 15.5h195q26 0 44 -18t18 -44v-187q0 -51 -43 -78q-114 -76 -249 -76z" />
    <glyph glyph-name="gcommaaccent" unicode="&#x123;" horiz-adv-x="671" 
d="M333 697q54 -9 54 -53v-2q0 -23 -17 -38t-44 -15q-29 0 -46.5 19t-17.5 51v3q0 71 43 108q38 33 86 33q26 0 26 -21q0 -16 -21 -21q-65 -14 -63 -64zM311 -162q-107 0 -204 47q-34 13 -34 48q0 20 15 35t36 15q10 0 22 -5q75 -42 162 -42q81 0 124 41t43 121v41
q-75 -97 -186 -97q-98 0 -169 67.5t-71 179.5v2q0 112 71 180t169 68q110 0 185 -90v25q0 25 17.5 42.5t42.5 17.5q26 0 43.5 -17.5t17.5 -43.5v-365q0 -132 -67 -199q-71 -71 -217 -71zM321 145q64 0 109.5 41t45.5 104v2q0 63 -45.5 104t-109.5 41t-107 -40.5t-43 -104.5
v-2q0 -64 43.5 -104.5t106.5 -40.5z" />
    <glyph glyph-name="Hbar" unicode="&#x126;" horiz-adv-x="778" 
d="M99 56v455h-33q-18 0 -31 13t-13 30q0 18 13 31t31 13h33v46q0 26 18 43.5t44 17.5t43.5 -17.5t17.5 -43.5v-46h334v46q0 26 17.5 43.5t43.5 17.5t44 -17.5t18 -43.5v-46h32q18 0 31 -13t13 -31q0 -17 -13 -30t-31 -13h-32v-455q0 -26 -18 -43.5t-44 -17.5t-43.5 17.5
t-17.5 43.5v239h-334v-239q0 -26 -17.5 -43.5t-43.5 -17.5t-44 17.5t-18 43.5zM222 409h334v102h-334v-102z" />
    <glyph glyph-name="hbar" unicode="&#x127;" horiz-adv-x="620" 
d="M76 55v547h-38q-15 0 -25.5 10.5t-10.5 25.5q0 14 10.5 25t25.5 11h38v1q0 25 17 42.5t43 17.5t43.5 -17.5t17.5 -42.5v-1h133q15 0 25.5 -11t10.5 -25q0 -15 -10.5 -25.5t-25.5 -10.5h-133v-155q66 92 165 92q89 0 138.5 -54.5t49.5 -147.5v-282q0 -26 -17 -43t-43 -17
t-43.5 17t-17.5 43v245q0 62 -29.5 95.5t-83.5 33.5t-86.5 -35t-32.5 -96v-243q0 -26 -17.5 -43t-43.5 -17q-25 0 -42.5 17t-17.5 43z" />
    <glyph glyph-name="Itilde" unicode="&#x128;" horiz-adv-x="317" 
d="M80 794l-2 -3q-15 -21 -35 -20q-15 2 -25.5 12.5t-9.5 25.5q2 5 2 11q18 44 38.5 61.5t53.5 16.5q30 -1 66 -22l18 -10q20 -6 23 -7q15 0 22 17q25 25 39 25q15 -2 25.5 -13t10.5 -26l-3 -9q-3 -3 -3 -6q-16 -42 -37.5 -59t-56.5 -15q-23 1 -69 23q-2 2 -6 3t-6 2
q0 1 -2.5 3t-3.5 2v-1q-13 5 -18 5q-14 0 -21 -16zM97 56v588q0 26 18 43.5t44 17.5t43.5 -17.5t17.5 -43.5v-588q0 -26 -17.5 -43.5t-43.5 -17.5t-44 17.5t-18 43.5z" />
    <glyph glyph-name="itilde" unicode="&#x129;" horiz-adv-x="286" 
d="M83 55v418q0 26 17 43.5t43 17.5t43.5 -17.5t17.5 -43.5v-418q0 -26 -17.5 -43t-43.5 -17q-25 0 -42.5 17t-17.5 43zM69 626l-2 -3q-15 -21 -35 -20q-15 2 -25.5 12.5t-9.5 25.5q2 5 2 11q18 44 38.5 61.5t53.5 16.5q30 -1 66 -22l18 -10q19 -6 23 -7q15 0 22 17
q25 25 39 25q15 -2 25.5 -13t10.5 -26l-3 -9q-3 -3 -3 -6q-16 -42 -37.5 -59t-56.5 -15q-23 1 -69 23q-2 2 -6 3t-6 2q-1 1 -4 3l-2 2v-1q-13 5 -18 5q-14 0 -21 -16z" />
    <glyph glyph-name="Imacron" unicode="&#x12a;" horiz-adv-x="317" 
d="M97 56v588q0 26 18 43.5t44 17.5t43.5 -17.5t17.5 -43.5v-588q0 -26 -17.5 -43.5t-43.5 -17.5t-44 17.5t-18 43.5zM292 769h-266q-18 0 -31 13t-13 31t13 31t31 13h266q18 0 31 -13t13 -31t-13 -31t-31 -13z" />
    <glyph glyph-name="imacron" unicode="&#x12b;" horiz-adv-x="286" 
d="M83 55v418q0 26 17 43.5t43 17.5t43.5 -17.5t17.5 -43.5v-418q0 -26 -17.5 -43t-43.5 -17q-25 0 -42.5 17t-17.5 43zM276 606h-266q-18 0 -31 13t-13 31t13 31t31 13h266q18 0 31 -13t13 -31t-13 -31t-31 -13z" />
    <glyph glyph-name="Ibreve" unicode="&#x12c;" horiz-adv-x="317" 
d="M97 56v588q0 26 18 43.5t44 17.5t43.5 -17.5t17.5 -43.5v-588q0 -26 -17.5 -43.5t-43.5 -17.5t-44 17.5t-18 43.5zM159 756q-108 0 -153 80q-8 18 -8 31q0 18 12 30.5t30 12.5q25 0 38 -23q26 -46 81 -46t81 46q13 23 38 23q18 0 30 -12.5t12 -30.5q0 -13 -8 -31
q-45 -80 -153 -80z" />
    <glyph glyph-name="ibreve" unicode="&#x12d;" horiz-adv-x="286" 
d="M83 55v418q0 26 17 43.5t43 17.5t43.5 -17.5t17.5 -43.5v-418q0 -26 -17.5 -43t-43.5 -17q-25 0 -42.5 17t-17.5 43zM143 593q-108 0 -153 80q-8 18 -8 31q0 18 12 30.5t30 12.5q25 0 38 -23q26 -46 81 -46t81 46q13 23 38 23q18 0 30 -12.5t12 -30.5q0 -13 -8 -31
q-45 -80 -153 -80z" />
    <glyph glyph-name="Iogonek" unicode="&#x12e;" horiz-adv-x="317" 
d="M67 -82q0 40 48 93q-18 17 -18 41v592q0 26 18 43.5t44 17.5t43.5 -17.5t17.5 -43.5v-589q0 -27 -23 -50q-39 -42 -39 -68q0 -30 44 -41q34 -7 34 -31q0 -31 -40 -31q-54 0 -91.5 21t-37.5 63z" />
    <glyph glyph-name="iogonek" unicode="&#x12f;" horiz-adv-x="286" 
d="M204 473v-421q0 -25 -24 -48q-40 -39 -40 -68t43 -40q33 -8 33 -31q0 -31 -40 -31q-53 0 -90.5 20.5t-37.5 60.5q0 48 53 96q-18 17 -18 40v422q0 26 17 43.5t43 17.5t43.5 -17.5t17.5 -43.5zM74 664v6q0 27 19.5 43t49.5 16t49.5 -16t19.5 -43v-6q0 -27 -19.5 -43.5
t-49.5 -16.5t-49.5 16.5t-19.5 43.5z" />
    <glyph glyph-name="Idotaccent" unicode="&#x130;" horiz-adv-x="317" 
d="M97 56v588q0 26 18 43.5t44 17.5t43.5 -17.5t17.5 -43.5v-588q0 -26 -17.5 -43.5t-43.5 -17.5t-44 17.5t-18 43.5zM227 821v-7q0 -27 -19.5 -44t-48.5 -17q-28 0 -47.5 17t-19.5 44v7q0 27 19.5 44.5t47.5 17.5t48 -17.5t20 -44.5z" />
    <glyph glyph-name="dotlessi" unicode="&#x131;" horiz-adv-x="286" 
d="M83 55v418q0 26 17 43.5t43 17.5t43.5 -17.5t17.5 -43.5v-418q0 -26 -17.5 -43t-43.5 -17q-25 0 -42.5 17t-17.5 43z" />
    <glyph glyph-name="Kcommaaccent" unicode="&#x136;" horiz-adv-x="713" 
d="M356 -161q-54 9 -54 53v2q0 23 17 38t44 15q29 0 46.5 -19t17.5 -51v-3q0 -71 -43 -108q-38 -33 -86 -33q-26 0 -26 21q0 16 21 21q65 14 63 64zM90 56v588q0 26 18 43.5t44 17.5t43.5 -17.5t17.5 -43.5v-296l332 334q23 23 51 23q26 0 41.5 -16.5t15.5 -40.5
q0 -27 -22 -46l-218 -210l236 -293q17 -20 17 -44q0 -26 -18 -43t-44 -17q-30 0 -52 29l-225 287l-114 -110v-145q0 -26 -17.5 -43.5t-43.5 -17.5t-44 17.5t-18 43.5z" />
    <glyph glyph-name="kcommaaccent" unicode="&#x137;" horiz-adv-x="580" 
d="M295 -166q-54 9 -54 53v2q0 23 17 38t44 15q29 0 46.5 -19t17.5 -51v-3q0 -71 -43 -108q-38 -33 -86 -33q-26 0 -26 21q0 17 21 21q65 14 63 64zM76 55v620q0 25 17 42.5t43 17.5t43.5 -17.5t17.5 -42.5v-390l227 223q26 26 52 26q23 0 38 -16t15 -39q0 -26 -27 -51
l-140 -129l160 -209q16 -22 16 -40q0 -24 -16.5 -39.5t-40.5 -15.5q-32 0 -53 27l-151 201l-80 -76v-92q0 -26 -17.5 -43t-43.5 -17q-25 0 -42.5 17t-17.5 43z" />
    <glyph glyph-name="Lacute" unicode="&#x139;" horiz-adv-x="619" 
d="M169 753q-30 0 -30 21q0 8 8 22l57 88q18 29 48 29q24 0 48 -12.5t24 -26.5q0 -15 -17 -30l-67 -64q-28 -27 -71 -27zM90 62v582q0 26 18 43.5t44 17.5t43.5 -17.5t17.5 -43.5v-532h317q23 0 39.5 -16.5t16.5 -39.5t-16.5 -39.5t-39.5 -16.5h-378q-26 0 -44 18t-18 44z
" />
    <glyph glyph-name="lacute" unicode="&#x13a;" horiz-adv-x="286" 
d="M141 770q-30 0 -30 21q0 8 8 22l57 88q18 29 48 29q24 0 48 -12.5t24 -26.5q0 -15 -17 -30l-67 -64q-28 -27 -71 -27zM83 55v620q0 25 17 42.5t43 17.5t43.5 -17.5t17.5 -42.5v-620q0 -26 -17.5 -43t-43.5 -17q-25 0 -42.5 17t-17.5 43z" />
    <glyph glyph-name="Lcommaaccent" unicode="&#x13b;" horiz-adv-x="619" 
d="M325 -166q-54 9 -54 53v2q0 23 17 38t44 15q29 0 46.5 -19t17.5 -51v-3q0 -71 -43 -108q-38 -33 -86 -33q-26 0 -26 21q0 17 21 21q65 14 63 64zM90 62v582q0 26 18 43.5t44 17.5t43.5 -17.5t17.5 -43.5v-532h317q23 0 39.5 -16.5t16.5 -39.5t-16.5 -39.5t-39.5 -16.5
h-378q-26 0 -44 18t-18 44z" />
    <glyph glyph-name="lcommaaccent" unicode="&#x13c;" horiz-adv-x="286" 
d="M135 -166q-54 9 -54 53v2q0 23 17 38t44 15q29 0 46.5 -19t17.5 -51v-3q0 -71 -43 -108q-38 -33 -86 -33q-26 0 -26 21q0 17 21 21q65 14 63 64zM83 55v620q0 25 17 42.5t43 17.5t43.5 -17.5t17.5 -42.5v-620q0 -26 -17.5 -43t-43.5 -17q-25 0 -42.5 17t-17.5 43z" />
    <glyph glyph-name="Lcaron" unicode="&#x13d;" horiz-adv-x="619" 
d="M297 534l3 124q1 19 12.5 31.5t31.5 12.5h18q31 0 31 -29q0 -12 -4 -23l-37 -121q-8 -25 -29 -25q-12 0 -19.5 8t-6.5 22zM90 62v582q0 26 18 43.5t44 17.5t43.5 -17.5t17.5 -43.5v-532h317q23 0 39.5 -16.5t16.5 -39.5t-16.5 -39.5t-39.5 -16.5h-378q-26 0 -44 18
t-18 44z" />
    <glyph glyph-name="lcaron" unicode="&#x13e;" horiz-adv-x="286" 
d="M260 567l3 124q1 19 12.5 31.5t31.5 12.5h18q31 0 31 -29q0 -12 -4 -23l-37 -121q-8 -25 -29 -25q-12 0 -19.5 8t-6.5 22zM83 55v620q0 25 17 42.5t43 17.5t43.5 -17.5t17.5 -42.5v-620q0 -26 -17.5 -43t-43.5 -17q-25 0 -42.5 17t-17.5 43z" />
    <glyph glyph-name="Ldot" unicode="&#x13f;" horiz-adv-x="619" 
d="M90 62v582q0 26 18 43.5t44 17.5t43.5 -17.5t17.5 -43.5v-532h317q23 0 39.5 -16.5t16.5 -39.5t-16.5 -39.5t-39.5 -16.5h-378q-26 0 -44 18t-18 44zM543 381v-7q0 -27 -19.5 -44t-48.5 -17q-28 0 -47.5 17t-19.5 44v7q0 27 19.5 44.5t47.5 17.5t48 -17.5t20 -44.5z" />
    <glyph glyph-name="ldot" unicode="&#x140;" horiz-adv-x="367" 
d="M382 380v-11q0 -23 -15.5 -39t-39.5 -16t-39.5 16t-15.5 39v11q0 23 15.5 39t39.5 16t39.5 -16t15.5 -39zM83 55v620q0 25 17 42.5t43 17.5t43.5 -17.5t17.5 -42.5v-620q0 -26 -17.5 -43t-43.5 -17q-25 0 -42.5 17t-17.5 43z" />
    <glyph glyph-name="Lslash" unicode="&#x141;" horiz-adv-x="649" 
d="M410 366l-168 -51v-203h318q23 0 39.5 -16.5t16.5 -39.5t-16.5 -39.5t-39.5 -16.5h-378q-26 0 -44 18t-18 44v216l-6 -2q-3 0 -7.5 -1t-7.5 -1.5t-5 -0.5q-23 0 -38.5 16.5t-15.5 39.5q0 40 39 52l41 12v251q0 26 17.5 43.5t43.5 17.5t43.5 -17.5t17.5 -43.5v-214l133 40
q7 3 20 3q23 0 38.5 -16t15.5 -39q0 -40 -39 -52z" />
    <glyph glyph-name="lslash" unicode="&#x142;" horiz-adv-x="346" 
d="M277 346l-44 -14v-277q0 -26 -17 -43t-43 -17q-25 0 -42.5 17t-17.5 43v241l-9 -2q-7 -3 -20 -3q-23 0 -38.5 16t-15.5 39q0 40 39 52q2 0 6 1.5t7 2.5q4 2 15 4.5t16 4.5v264q0 25 17 42.5t43 17.5t43 -17.5t17 -42.5v-228l9 3q7 3 20 3q23 0 38.5 -16t15.5 -39
q0 -40 -39 -52z" />
    <glyph glyph-name="Nacute" unicode="&#x143;" horiz-adv-x="790" 
d="M391 753q-30 0 -30 21q0 8 8 22l57 88q18 29 48 29q24 0 48 -12.5t24 -26.5q0 -15 -17 -30l-67 -64q-28 -27 -71 -27zM90 55v587q0 26 18 44t44 18h13q35 0 64 -36l350 -453v430q0 25 17.5 42.5t42.5 17.5q26 0 43.5 -17.5t17.5 -42.5v-588q0 -26 -17 -43.5t-43 -17.5h-5
q-37 0 -64 37l-360 466v-444q0 -25 -17.5 -42.5t-42.5 -17.5q-26 0 -43.5 17.5t-17.5 42.5z" />
    <glyph glyph-name="nacute" unicode="&#x144;" horiz-adv-x="620" 
d="M309 590q-30 0 -30 21q0 8 8 22l57 88q18 29 48 29q24 0 48 -12.5t24 -26.5q0 -15 -17 -30l-67 -64q-28 -27 -71 -27zM76 55v418q0 26 17 43.5t43 17.5t43.5 -17.5t17.5 -43.5v-26q66 92 165 92q89 0 138.5 -54.5t49.5 -147.5v-282q0 -26 -17 -43t-43 -17t-43.5 17
t-17.5 43v245q0 62 -29.5 95.5t-83.5 33.5t-86.5 -35t-32.5 -96v-243q0 -26 -17.5 -43t-43.5 -17q-25 0 -42.5 17t-17.5 43z" />
    <glyph glyph-name="Ncommaaccent" unicode="&#x145;" horiz-adv-x="790" 
d="M386 -161q-54 9 -54 53v2q0 23 17 38t44 15q29 0 46.5 -19t17.5 -51v-3q0 -71 -43 -108q-38 -33 -86 -33q-26 0 -26 21q0 16 21 21q65 14 63 64zM90 55v587q0 26 18 44t44 18h13q35 0 64 -36l350 -453v430q0 25 17.5 42.5t42.5 17.5q26 0 43.5 -17.5t17.5 -42.5v-588
q0 -26 -17 -43.5t-43 -17.5h-5q-37 0 -64 37l-360 466v-444q0 -25 -17.5 -42.5t-42.5 -17.5q-26 0 -43.5 17.5t-17.5 42.5z" />
    <glyph glyph-name="ncommaaccent" unicode="&#x146;" horiz-adv-x="620" 
d="M304 -166q-54 9 -54 53v2q0 23 17 38t44 15q29 0 46.5 -19t17.5 -51v-3q0 -71 -43 -108q-38 -33 -86 -33q-26 0 -26 21q0 17 21 21q65 14 63 64zM76 55v418q0 26 17 43.5t43 17.5t43.5 -17.5t17.5 -43.5v-26q66 92 165 92q89 0 138.5 -54.5t49.5 -147.5v-282
q0 -26 -17 -43t-43 -17t-43.5 17t-17.5 43v245q0 62 -29.5 95.5t-83.5 33.5t-86.5 -35t-32.5 -96v-243q0 -26 -17.5 -43t-43.5 -17q-25 0 -42.5 17t-17.5 43z" />
    <glyph glyph-name="Ncaron" unicode="&#x147;" horiz-adv-x="790" 
d="M396 838l52 45q32 27 74 27q27 0 27 -20q0 -10 -12 -24l-66 -83q-23 -29 -58 -29h-36q-35 0 -58 29l-66 83q-12 14 -12 24q0 20 29 20q42 0 74 -27zM90 55v587q0 26 18 44t44 18h13q35 0 64 -36l350 -453v430q0 25 17.5 42.5t42.5 17.5q26 0 43.5 -17.5t17.5 -42.5v-588
q0 -26 -17 -43.5t-43 -17.5h-5q-37 0 -64 37l-360 466v-444q0 -25 -17.5 -42.5t-42.5 -17.5q-26 0 -43.5 17.5t-17.5 42.5z" />
    <glyph glyph-name="ncaron" unicode="&#x148;" horiz-adv-x="620" 
d="M313 675l52 45q32 27 74 27q27 0 27 -20q0 -10 -12 -24l-66 -83q-23 -29 -58 -29h-36q-35 0 -58 29l-66 83q-12 14 -12 24q0 20 29 20q42 0 74 -27zM76 55v418q0 26 17 43.5t43 17.5t43.5 -17.5t17.5 -43.5v-26q66 92 165 92q89 0 138.5 -54.5t49.5 -147.5v-282
q0 -26 -17 -43t-43 -17t-43.5 17t-17.5 43v245q0 62 -29.5 95.5t-83.5 33.5t-86.5 -35t-32.5 -96v-243q0 -26 -17.5 -43t-43.5 -17q-25 0 -42.5 17t-17.5 43z" />
    <glyph glyph-name="Omacron" unicode="&#x14c;" horiz-adv-x="850" 
d="M558 779h-266q-18 0 -31 13t-13 31t13 31t31 13h266q18 0 31 -13t13 -31t-13 -31t-31 -13zM424 -12q-159 0 -262 105t-103 255v2q0 150 104.5 256t262.5 106q159 0 262 -105t103 -255v-2q0 -150 -104.5 -256t-262.5 -106zM426 102q103 0 169.5 71t66.5 175v2
q0 104 -67.5 176.5t-170.5 72.5t-169.5 -71.5t-66.5 -175.5v-2q0 -104 67.5 -176t170.5 -72z" />
    <glyph glyph-name="omacron" unicode="&#x14d;" horiz-adv-x="657" 
d="M461 606h-266q-18 0 -31 13t-13 31t13 31t31 13h266q18 0 31 -13t13 -31t-13 -31t-31 -13zM327 -12q-120 0 -200 79.5t-80 193.5v2q0 115 81 195.5t201 80.5q121 0 201 -79.5t80 -194.5v-2q0 -113 -81 -194t-202 -81zM329 94q72 0 116 48.5t44 118.5v2q0 71 -46 120.5
t-116 49.5q-71 0 -115 -48.5t-44 -119.5v-2q0 -70 46 -119.5t115 -49.5z" />
    <glyph glyph-name="Obreve" unicode="&#x14e;" horiz-adv-x="850" 
d="M424 -12q-159 0 -262 105t-103 255v2q0 150 104.5 256t262.5 106q159 0 262 -105t103 -255v-2q0 -150 -104.5 -256t-262.5 -106zM426 102q103 0 169.5 71t66.5 175v2q0 104 -67.5 176.5t-170.5 72.5t-169.5 -71.5t-66.5 -175.5v-2q0 -104 67.5 -176t170.5 -72zM425 766
q-108 0 -153 80q-8 18 -8 31q0 18 12 30.5t30 12.5q25 0 38 -23q26 -46 81 -46t81 46q13 23 38 23q18 0 30 -12.5t12 -30.5q0 -13 -8 -31q-45 -80 -153 -80z" />
    <glyph glyph-name="obreve" unicode="&#x14f;" horiz-adv-x="657" 
d="M327 -12q-120 0 -200 79.5t-80 193.5v2q0 115 81 195.5t201 80.5q121 0 201 -79.5t80 -194.5v-2q0 -113 -81 -194t-202 -81zM329 94q72 0 116 48.5t44 118.5v2q0 71 -46 120.5t-116 49.5q-71 0 -115 -48.5t-44 -119.5v-2q0 -70 46 -119.5t115 -49.5zM328 593
q-108 0 -153 80q-8 18 -8 31q0 18 12 30.5t30 12.5q25 0 38 -23q26 -46 81 -46t81 46q13 23 38 23q18 0 30 -12.5t12 -30.5q0 -13 -8 -31q-45 -80 -153 -80z" />
    <glyph glyph-name="Ohungarumlaut" unicode="&#x150;" horiz-adv-x="850" 
d="M503 763q-29 0 -29 21q0 8 8 22l58 88q17 29 46 29q24 0 47 -12t23 -26t-17 -31l-67 -64q-28 -27 -69 -27zM320 763q-29 0 -29 21q0 8 8 22l58 88q17 29 46 29q24 0 47 -12t23 -26t-17 -31l-67 -64q-27 -27 -69 -27zM424 -12q-159 0 -262 105t-103 255v2q0 150 104.5 256
t262.5 106q159 0 262 -105t103 -255v-2q0 -150 -104.5 -256t-262.5 -106zM426 102q103 0 169.5 71t66.5 175v2q0 104 -67.5 176.5t-170.5 72.5t-169.5 -71.5t-66.5 -175.5v-2q0 -104 67.5 -176t170.5 -72z" />
    <glyph glyph-name="ohungarumlaut" unicode="&#x151;" horiz-adv-x="657" 
d="M407 590q-29 0 -29 21q0 8 8 22l58 88q17 29 46 29q24 0 47 -12t23 -26t-17 -31l-67 -64q-28 -27 -69 -27zM224 590q-29 0 -29 21q0 8 8 22l58 88q17 29 46 29q24 0 47 -12t23 -26t-17 -31l-67 -64q-27 -27 -69 -27zM327 -12q-120 0 -200 79.5t-80 193.5v2
q0 115 81 195.5t201 80.5q121 0 201 -79.5t80 -194.5v-2q0 -113 -81 -194t-202 -81zM329 94q72 0 116 48.5t44 118.5v2q0 71 -46 120.5t-116 49.5q-71 0 -115 -48.5t-44 -119.5v-2q0 -70 46 -119.5t115 -49.5z" />
    <glyph glyph-name="OE" unicode="&#x152;" horiz-adv-x="1098" 
d="M992 0h-561q-164 0 -268 99t-104 249v2q0 150 104.5 250t267.5 100h556q23 0 39.5 -16t16.5 -39t-16.5 -39t-39.5 -16h-324v-182h279q23 0 39.5 -16.5t16.5 -39.5t-16.5 -38.5t-39.5 -15.5h-279v-188h329q23 0 39.5 -16t16.5 -39t-16.5 -39t-39.5 -16zM431 112h109v476
h-109q-109 0 -176 -66t-67 -170v-2q0 -104 67 -171t176 -67z" />
    <glyph glyph-name="oe" unicode="&#x153;" horiz-adv-x="1040" 
d="M602 301h272q-6 61 -41.5 100t-92.5 39q-56 0 -93 -38t-45 -101zM326 94q70 0 113 48.5t43 118.5v2q0 71 -45.5 120.5t-112.5 49.5q-69 0 -112.5 -49t-43.5 -119v-2q0 -70 44.5 -119.5t113.5 -49.5zM943 58q-78 -70 -189 -70q-68 0 -125 29.5t-93 81.5
q-77 -111 -215 -111q-114 0 -194 80t-80 193v2q0 114 81 195t198 81q67 0 122 -29t89 -80q72 109 204 109q117 0 183.5 -79.5t66.5 -180.5q0 -26 -16.5 -42t-40.5 -16h-331q11 -64 52 -99t100 -35q67 0 125 46q14 11 31 11q21 0 34.5 -14t13.5 -35q0 -24 -16 -37z" />
    <glyph glyph-name="Racute" unicode="&#x154;" horiz-adv-x="723" 
d="M90 56v582q0 26 18 44t44 18h250q130 0 202 -70q58 -61 58 -151v-2q0 -158 -159 -209l134 -169q20 -25 20 -47q0 -25 -17.5 -41t-41.5 -16q-35 0 -60 32l-170 217h-155v-188q0 -26 -17.5 -43.5t-43.5 -17.5t-44 17.5t-18 43.5zM213 353h180q66 0 105 31.5t39 85.5v2
q0 57 -37.5 86.5t-107.5 29.5h-179v-235zM365 753q-30 0 -30 21q0 8 8 22l57 88q18 29 48 29q24 0 48 -12.5t24 -26.5q0 -15 -17 -30l-67 -64q-28 -27 -71 -27z" />
    <glyph glyph-name="racute" unicode="&#x155;" horiz-adv-x="413" 
d="M220 590q-30 0 -30 21q0 8 8 22l57 88q18 29 48 29q24 0 48 -12.5t24 -26.5q0 -15 -17 -30l-67 -64q-28 -27 -71 -27zM76 55v418q0 26 17 43.5t43 17.5t43.5 -17.5t17.5 -43.5v-54q21 51 57.5 83.5t75.5 32.5q29 0 44.5 -16.5t15.5 -43.5q0 -23 -13.5 -38.5t-34.5 -19.5
q-68 -12 -106.5 -63.5t-38.5 -142.5v-156q0 -25 -17.5 -42.5t-43.5 -17.5q-25 0 -42.5 17t-17.5 43z" />
    <glyph glyph-name="Rcommaaccent" unicode="&#x156;" horiz-adv-x="723" 
d="M90 56v582q0 26 18 44t44 18h250q130 0 202 -70q58 -61 58 -151v-2q0 -158 -159 -209l134 -169q20 -25 20 -47q0 -25 -17.5 -41t-41.5 -16q-35 0 -60 32l-170 217h-155v-188q0 -26 -17.5 -43.5t-43.5 -17.5t-44 17.5t-18 43.5zM213 353h180q66 0 105 31.5t39 85.5v2
q0 57 -37.5 86.5t-107.5 29.5h-179v-235zM360 -161q-54 9 -54 53v2q0 23 17 38t44 15q29 0 46.5 -19t17.5 -51v-3q0 -71 -43 -108q-38 -33 -86 -33q-26 0 -26 21q0 16 21 21q65 14 63 64z" />
    <glyph glyph-name="rcommaaccent" unicode="&#x157;" horiz-adv-x="413" 
d="M135 -166q-54 9 -54 53v2q0 23 17 38t44 15q29 0 46.5 -19t17.5 -51v-3q0 -71 -43 -108q-38 -33 -86 -33q-26 0 -26 21q0 17 21 21q65 14 63 64zM76 55v418q0 26 17 43.5t43 17.5t43.5 -17.5t17.5 -43.5v-54q21 51 57.5 83.5t75.5 32.5q29 0 44.5 -16.5t15.5 -43.5
q0 -23 -13.5 -38.5t-34.5 -19.5q-68 -12 -106.5 -63.5t-38.5 -142.5v-156q0 -25 -17.5 -42.5t-43.5 -17.5q-25 0 -42.5 17t-17.5 43z" />
    <glyph glyph-name="Rcaron" unicode="&#x158;" horiz-adv-x="723" 
d="M90 56v582q0 26 18 44t44 18h250q130 0 202 -70q58 -61 58 -151v-2q0 -158 -159 -209l134 -169q20 -25 20 -47q0 -25 -17.5 -41t-41.5 -16q-35 0 -60 32l-170 217h-155v-188q0 -26 -17.5 -43.5t-43.5 -17.5t-44 17.5t-18 43.5zM213 353h180q66 0 105 31.5t39 85.5v2
q0 57 -37.5 86.5t-107.5 29.5h-179v-235zM369 838l52 45q32 27 74 27q27 0 27 -20q0 -10 -12 -24l-66 -83q-23 -29 -58 -29h-36q-35 0 -58 29l-66 83q-12 14 -12 24q0 20 29 20q42 0 74 -27z" />
    <glyph glyph-name="rcaron" unicode="&#x159;" horiz-adv-x="413" 
d="M225 675l52 45q32 27 74 27q27 0 27 -20q0 -10 -12 -24l-66 -83q-23 -29 -58 -29h-36q-35 0 -58 29l-66 83q-12 14 -12 24q0 20 29 20q42 0 74 -27zM76 55v418q0 26 17 43.5t43 17.5t43.5 -17.5t17.5 -43.5v-54q21 51 57.5 83.5t75.5 32.5q29 0 44.5 -16.5t15.5 -43.5
q0 -23 -13.5 -38.5t-34.5 -19.5q-68 -12 -106.5 -63.5t-38.5 -142.5v-156q0 -25 -17.5 -42.5t-43.5 -17.5q-25 0 -42.5 17t-17.5 43z" />
    <glyph glyph-name="Sacute" unicode="&#x15a;" horiz-adv-x="640" 
d="M322 763q-30 0 -30 21q0 8 8 22l57 88q18 29 48 29q24 0 48 -12.5t24 -26.5q0 -15 -17 -30l-67 -64q-28 -27 -71 -27zM335 -10q-145 0 -263 88q-24 18 -24 47q0 24 17 40.5t41 16.5q23 0 36 -11q90 -72 196 -72q57 0 90.5 24.5t33.5 63.5v2q0 39 -32.5 62.5t-125.5 44.5
q-121 28 -177 73t-56 136v2q0 90 67 146.5t172 56.5q125 0 222 -65q27 -14 27 -49q0 -24 -17 -40.5t-41 -16.5q-17 0 -32 9q-83 53 -161 53q-53 0 -83.5 -23.5t-30.5 -59.5v-2q0 -41 33.5 -63.5t133.5 -46.5q117 -30 170.5 -75.5t53.5 -129.5v-2q0 -97 -69 -153t-181 -56z
" />
    <glyph glyph-name="sacute" unicode="&#x15b;" horiz-adv-x="501" 
d="M250 590q-30 0 -30 21q0 8 8 22l57 88q18 29 48 29q24 0 48 -12.5t24 -26.5q0 -15 -17 -30l-67 -64q-28 -27 -71 -27zM257 -10q-112 0 -201 63q-23 12 -23 42q0 20 14 34.5t35 14.5q15 0 26 -7q74 -51 152 -51q39 0 60.5 15.5t21.5 41.5v2q0 33 -60 55q-14 6 -58 19
q-35 9 -59.5 19t-51 27.5t-40.5 45t-14 63.5v2q0 73 53.5 117t134.5 44q85 0 166 -43q29 -15 29 -46q0 -21 -14.5 -35t-35.5 -14q-12 0 -24 6q-67 36 -124 36q-35 0 -54.5 -14t-19.5 -38v-2q0 -18 19 -32.5t39.5 -22.5t60.5 -20q35 -11 59 -21.5t50.5 -28.5t40.5 -44t14 -60
v-2q0 -80 -55 -123t-141 -43z" />
    <glyph glyph-name="Scedilla" unicode="&#x15e;" horiz-adv-x="640" 
d="M585 201v-2q0 -88 -57.5 -142.5t-153.5 -64.5l-53 -123q-12 -29 -39 -29q-20 0 -45 14.5t-25 29.5q0 12 8 23l59 87q-113 14 -207 84q-24 18 -24 47q0 24 17 40.5t41 16.5q23 0 36 -11q90 -72 196 -72q57 0 90.5 24.5t33.5 63.5v2q0 39 -32.5 62.5t-125.5 44.5
q-121 28 -177 73t-56 136v2q0 90 67 146.5t172 56.5q125 0 222 -65q27 -14 27 -49q0 -24 -17 -40.5t-41 -16.5q-17 0 -32 9q-83 53 -161 53q-53 0 -83.5 -23.5t-30.5 -59.5v-2q0 -41 33.5 -63.5t133.5 -46.5q117 -30 170.5 -75.5t53.5 -129.5z" />
    <glyph glyph-name="scedilla" unicode="&#x15f;" horiz-adv-x="501" 
d="M453 158v-2q0 -71 -44 -113t-116 -51l-53 -123q-12 -29 -39 -29q-20 0 -45 14.5t-25 29.5q0 12 8 23l60 88q-76 12 -143 58q-23 12 -23 42q0 20 14 34.5t35 14.5q15 0 26 -7q74 -51 152 -51q39 0 60.5 15.5t21.5 41.5v2q0 33 -60 55q-14 6 -58 19q-35 9 -59.5 19
t-51 27.5t-40.5 45t-14 63.5v2q0 73 53.5 117t134.5 44q85 0 166 -43q29 -15 29 -46q0 -21 -14.5 -35t-35.5 -14q-12 0 -24 6q-67 36 -124 36q-35 0 -54.5 -14t-19.5 -38v-2q0 -18 19 -32.5t39.5 -22.5t60.5 -20q35 -11 59 -21.5t50.5 -28.5t40.5 -44t14 -60z" />
    <glyph glyph-name="Scaron" unicode="&#x160;" horiz-adv-x="640" 
d="M326 848l52 45q32 27 74 27q27 0 27 -20q0 -10 -12 -24l-66 -83q-23 -29 -58 -29h-36q-35 0 -58 29l-66 83q-12 14 -12 24q0 20 29 20q42 0 74 -27zM335 -10q-145 0 -263 88q-24 18 -24 47q0 24 17 40.5t41 16.5q23 0 36 -11q90 -72 196 -72q57 0 90.5 24.5t33.5 63.5v2
q0 39 -32.5 62.5t-125.5 44.5q-121 28 -177 73t-56 136v2q0 90 67 146.5t172 56.5q125 0 222 -65q27 -14 27 -49q0 -24 -17 -40.5t-41 -16.5q-17 0 -32 9q-83 53 -161 53q-53 0 -83.5 -23.5t-30.5 -59.5v-2q0 -41 33.5 -63.5t133.5 -46.5q117 -30 170.5 -75.5t53.5 -129.5
v-2q0 -97 -69 -153t-181 -56z" />
    <glyph glyph-name="scaron" unicode="&#x161;" horiz-adv-x="501" 
d="M254 675l52 45q32 27 74 27q27 0 27 -20q0 -10 -12 -24l-66 -83q-23 -29 -58 -29h-36q-35 0 -58 29l-66 83q-12 14 -12 24q0 20 29 20q42 0 74 -27zM257 -10q-112 0 -201 63q-23 12 -23 42q0 20 14 34.5t35 14.5q15 0 26 -7q74 -51 152 -51q39 0 60.5 15.5t21.5 41.5v2
q0 33 -60 55q-14 6 -58 19q-35 9 -59.5 19t-51 27.5t-40.5 45t-14 63.5v2q0 73 53.5 117t134.5 44q85 0 166 -43q29 -15 29 -46q0 -21 -14.5 -35t-35.5 -14q-12 0 -24 6q-67 36 -124 36q-35 0 -54.5 -14t-19.5 -38v-2q0 -18 19 -32.5t39.5 -22.5t60.5 -20q35 -11 59 -21.5
t50.5 -28.5t40.5 -44t14 -60v-2q0 -80 -55 -123t-141 -43z" />
    <glyph glyph-name="Tcommaaccent" unicode="&#x162;" horiz-adv-x="648" 
d="M315 -166q-54 9 -54 53v2q0 23 17 38t44 15q29 0 46.5 -19t17.5 -51v-3q0 -71 -43 -108q-38 -33 -86 -33q-26 0 -26 21q0 17 21 21q65 14 63 64zM262 56v530h-170q-24 0 -40.5 17t-16.5 40t16.5 40t40.5 17h465q23 0 39.5 -17t16.5 -40t-16.5 -40t-39.5 -17h-171v-530
q0 -26 -18 -43.5t-44 -17.5t-44 17.5t-18 43.5z" />
    <glyph glyph-name="tcommaaccent" unicode="&#x163;" horiz-adv-x="411" 
d="M215 -166q-54 9 -54 53v2q0 23 17 38t44 15q29 0 46.5 -19t17.5 -51v-3q0 -71 -43 -108q-38 -33 -86 -33q-26 0 -26 21q0 17 21 21q65 14 63 64zM253 -9q-152 0 -152 155v278h-20q-22 0 -37 15t-15 37t15 37t37 15h20v90q0 25 17.5 42.5t43.5 17.5q25 0 42.5 -17.5
t17.5 -42.5v-90h95q22 0 37.5 -15t15.5 -37t-15.5 -37t-37.5 -15h-95v-259q0 -66 65 -66q9 0 19 1.5t11 1.5q21 0 36 -14.5t15 -35.5q0 -34 -32 -47q-42 -14 -83 -14z" />
    <glyph glyph-name="Tcaron" unicode="&#x164;" horiz-adv-x="648" 
d="M325 838l52 45q32 27 74 27q27 0 27 -20q0 -10 -12 -24l-66 -83q-23 -29 -58 -29h-36q-35 0 -58 29l-66 83q-12 14 -12 24q0 20 29 20q42 0 74 -27zM262 56v530h-170q-24 0 -40.5 17t-16.5 40t16.5 40t40.5 17h465q23 0 39.5 -17t16.5 -40t-16.5 -40t-39.5 -17h-171v-530
q0 -26 -18 -43.5t-44 -17.5t-44 17.5t-18 43.5z" />
    <glyph glyph-name="tcaron" unicode="&#x165;" horiz-adv-x="411" 
d="M305 612l3 124q1 19 12.5 31.5t31.5 12.5h18q31 0 31 -29q0 -12 -4 -23l-37 -121q-8 -25 -29 -25q-12 0 -19.5 8t-6.5 22zM253 -9q-152 0 -152 155v278h-20q-22 0 -37 15t-15 37t15 37t37 15h20v90q0 25 17.5 42.5t43.5 17.5q25 0 42.5 -17.5t17.5 -42.5v-90h95
q22 0 37.5 -15t15.5 -37t-15.5 -37t-37.5 -15h-95v-259q0 -66 65 -66q9 0 19 1.5t11 1.5q21 0 36 -14.5t15 -35.5q0 -34 -32 -47q-42 -14 -83 -14z" />
    <glyph glyph-name="Utilde" unicode="&#x168;" horiz-adv-x="757" 
d="M306 794l-2 -3q-15 -21 -35 -20q-15 2 -25.5 12.5t-9.5 25.5q2 5 2 11q18 44 38.5 61.5t53.5 16.5q30 -1 66 -22l18 -10q20 -6 23 -7q15 0 22 17q25 25 39 25q15 -2 25.5 -13t10.5 -26l-3 -9q-3 -3 -3 -6q-16 -42 -37.5 -59t-56.5 -15q-23 1 -69 23q-2 2 -6 3t-6 2
q0 1 -2.5 3t-3.5 2v-1q-13 5 -18 5q-14 0 -21 -16zM377 -11q-139 0 -218.5 79.5t-79.5 228.5v347q0 26 18 43.5t44 17.5t43.5 -17.5t17.5 -43.5v-342q0 -97 46.5 -148t130.5 -51q83 0 129.5 49.5t46.5 144.5v347q0 26 18 43.5t44 17.5t43.5 -17.5t17.5 -43.5v-341
q0 -153 -80 -233.5t-221 -80.5z" />
    <glyph glyph-name="utilde" unicode="&#x169;" horiz-adv-x="620" 
d="M237 626l-2 -3q-15 -21 -35 -20q-15 2 -25.5 12.5t-9.5 25.5q2 5 2 11q18 44 38.5 61.5t53.5 16.5q30 -1 66 -22l18 -10q19 -6 23 -7q15 0 22 17q25 25 39 25q15 -2 25.5 -13t10.5 -26l-3 -9q-3 -3 -3 -6q-16 -42 -37.5 -59t-56.5 -15q-23 1 -69 23q-2 2 -6 3t-6 2
q0 1 -2.5 3t-3.5 2v-1q-13 5 -18 5q-14 0 -21 -16zM545 473v-418q0 -25 -17.5 -42.5t-43.5 -17.5q-25 0 -43 17t-18 43v27q-64 -93 -165 -93q-89 0 -138.5 54.5t-49.5 148.5v281q0 26 17.5 43.5t42.5 17.5q26 0 43.5 -17.5t17.5 -43.5v-245q0 -62 29.5 -95t83.5 -33
t86.5 34.5t32.5 95.5v243q0 26 17.5 43.5t43.5 17.5q25 0 43 -17.5t18 -43.5z" />
    <glyph glyph-name="Umacron" unicode="&#x16a;" horiz-adv-x="757" 
d="M377 -11q-139 0 -218.5 79.5t-79.5 228.5v347q0 26 18 43.5t44 17.5t43.5 -17.5t17.5 -43.5v-342q0 -97 46.5 -148t130.5 -51q83 0 129.5 49.5t46.5 144.5v347q0 26 18 43.5t44 17.5t43.5 -17.5t17.5 -43.5v-341q0 -153 -80 -233.5t-221 -80.5zM511 769h-266
q-18 0 -31 13t-13 31t13 31t31 13h266q18 0 31 -13t13 -31t-13 -31t-31 -13z" />
    <glyph glyph-name="umacron" unicode="&#x16b;" horiz-adv-x="620" 
d="M545 473v-418q0 -25 -17.5 -42.5t-43.5 -17.5q-25 0 -43 17t-18 43v27q-64 -93 -165 -93q-89 0 -138.5 54.5t-49.5 148.5v281q0 26 17.5 43.5t42.5 17.5q26 0 43.5 -17.5t17.5 -43.5v-245q0 -62 29.5 -95t83.5 -33t86.5 34.5t32.5 95.5v243q0 26 17.5 43.5t43.5 17.5
q25 0 43 -17.5t18 -43.5zM439 606h-266q-18 0 -31 13t-13 31t13 31t31 13h266q18 0 31 -13t13 -31t-13 -31t-31 -13z" />
    <glyph glyph-name="Ubreve" unicode="&#x16c;" horiz-adv-x="757" 
d="M377 -11q-139 0 -218.5 79.5t-79.5 228.5v347q0 26 18 43.5t44 17.5t43.5 -17.5t17.5 -43.5v-342q0 -97 46.5 -148t130.5 -51q83 0 129.5 49.5t46.5 144.5v347q0 26 18 43.5t44 17.5t43.5 -17.5t17.5 -43.5v-341q0 -153 -80 -233.5t-221 -80.5zM378 752q-108 0 -153 80
q-8 18 -8 31q0 18 12 30.5t30 12.5q25 0 38 -23q26 -46 81 -46t81 46q13 23 38 23q18 0 30 -12.5t12 -30.5q0 -13 -8 -31q-45 -80 -153 -80z" />
    <glyph glyph-name="ubreve" unicode="&#x16d;" horiz-adv-x="620" 
d="M545 473v-418q0 -25 -17.5 -42.5t-43.5 -17.5q-25 0 -43 17t-18 43v27q-64 -93 -165 -93q-89 0 -138.5 54.5t-49.5 148.5v281q0 26 17.5 43.5t42.5 17.5q26 0 43.5 -17.5t17.5 -43.5v-245q0 -62 29.5 -95t83.5 -33t86.5 34.5t32.5 95.5v243q0 26 17.5 43.5t43.5 17.5
q25 0 43 -17.5t18 -43.5zM306 593q-108 0 -153 80q-8 18 -8 31q0 18 12 30.5t30 12.5q25 0 38 -23q26 -46 81 -46t81 46q13 23 38 23q18 0 30 -12.5t12 -30.5q0 -13 -8 -31q-45 -80 -153 -80z" />
    <glyph glyph-name="Uring" unicode="&#x16e;" horiz-adv-x="757" 
d="M378 742q-45 0 -79.5 32t-34.5 77v2q0 45 34.5 77t79.5 32t79.5 -32t34.5 -77v-2q0 -45 -34.5 -77t-79.5 -32zM378 790q26 0 44 18t18 43v2q0 25 -18 43t-44 18t-44 -18t-18 -43v-2q0 -25 18 -43t44 -18zM377 -11q-139 0 -218.5 79.5t-79.5 228.5v347q0 26 18 43.5
t44 17.5t43.5 -17.5t17.5 -43.5v-342q0 -97 46.5 -148t130.5 -51q83 0 129.5 49.5t46.5 144.5v347q0 26 18 43.5t44 17.5t43.5 -17.5t17.5 -43.5v-341q0 -153 -80 -233.5t-221 -80.5z" />
    <glyph glyph-name="uring" unicode="&#x16f;" horiz-adv-x="620" 
d="M306 592q-45 0 -79.5 32t-34.5 77v2q0 45 34.5 77t79.5 32t79.5 -32t34.5 -77v-2q0 -45 -34.5 -77t-79.5 -32zM306 640q26 0 44 18t18 43v2q0 25 -18 43t-44 18t-44 -18t-18 -43v-2q0 -25 18 -43t44 -18zM545 473v-418q0 -25 -17.5 -42.5t-43.5 -17.5q-25 0 -43 17
t-18 43v27q-64 -93 -165 -93q-89 0 -138.5 54.5t-49.5 148.5v281q0 26 17.5 43.5t42.5 17.5q26 0 43.5 -17.5t17.5 -43.5v-245q0 -62 29.5 -95t83.5 -33t86.5 34.5t32.5 95.5v243q0 26 17.5 43.5t43.5 17.5q25 0 43 -17.5t18 -43.5z" />
    <glyph glyph-name="Uhungarumlaut" unicode="&#x170;" horiz-adv-x="757" 
d="M377 -11q-139 0 -218.5 79.5t-79.5 228.5v347q0 26 18 43.5t44 17.5t43.5 -17.5t17.5 -43.5v-342q0 -97 46.5 -148t130.5 -51q83 0 129.5 49.5t46.5 144.5v347q0 26 18 43.5t44 17.5t43.5 -17.5t17.5 -43.5v-341q0 -153 -80 -233.5t-221 -80.5zM457 753q-29 0 -29 21
q0 8 8 22l58 88q17 29 46 29q24 0 47 -12t23 -26t-17 -31l-67 -64q-28 -27 -69 -27zM274 753q-29 0 -29 21q0 8 8 22l58 88q17 29 46 29q24 0 47 -12t23 -26t-17 -31l-67 -64q-27 -27 -69 -27z" />
    <glyph glyph-name="uhungarumlaut" unicode="&#x171;" horiz-adv-x="620" 
d="M545 473v-418q0 -25 -17.5 -42.5t-43.5 -17.5q-25 0 -43 17t-18 43v27q-64 -93 -165 -93q-89 0 -138.5 54.5t-49.5 148.5v281q0 26 17.5 43.5t42.5 17.5q26 0 43.5 -17.5t17.5 -43.5v-245q0 -62 29.5 -95t83.5 -33t86.5 34.5t32.5 95.5v243q0 26 17.5 43.5t43.5 17.5
q25 0 43 -17.5t18 -43.5zM385 590q-29 0 -29 21q0 8 8 22l58 88q17 29 46 29q24 0 47 -12t23 -26t-17 -31l-67 -64q-28 -27 -69 -27zM202 590q-29 0 -29 21q0 8 8 22l58 88q17 29 46 29q24 0 47 -12t23 -26t-17 -31l-67 -64q-27 -27 -69 -27z" />
    <glyph glyph-name="Uogonek" unicode="&#x172;" horiz-adv-x="757" 
d="M294 -82q0 36 33 74q-117 15 -182.5 92t-65.5 213v347q0 26 18 43.5t44 17.5t43.5 -17.5t17.5 -43.5v-342q0 -97 46.5 -148t130.5 -51q83 0 129.5 49.5t46.5 144.5v347q0 26 18 43.5t44 17.5t43.5 -17.5t17.5 -43.5v-341q0 -144 -71 -223.5t-197 -88.5q-24 -25 -24 -54
q0 -30 44 -41q33 -8 33 -31q0 -31 -40 -31q-53 0 -91 21t-38 63z" />
    <glyph glyph-name="uogonek" unicode="&#x173;" horiz-adv-x="620" 
d="M545 473v-421q0 -25 -24 -48q-40 -39 -40 -68t43 -40q33 -8 33 -31q0 -31 -40 -31q-53 0 -90.5 20.5t-37.5 60.5q0 48 53 96q-9 7 -14 29t-5 38v4q-64 -93 -165 -93q-89 0 -138.5 54.5t-49.5 148.5v281q0 26 17.5 43.5t42.5 17.5q26 0 43.5 -17.5t17.5 -43.5v-245
q0 -62 29.5 -95t83.5 -33t86.5 34.5t32.5 95.5v243q0 26 17.5 43.5t43.5 17.5q25 0 43 -17.5t18 -43.5z" />
    <glyph glyph-name="Wcircumflex" unicode="&#x174;" horiz-adv-x="1099" 
d="M548 825l-52 -45q-32 -27 -74 -27q-27 0 -27 20q0 10 12 24l66 83q23 29 58 29h36q35 0 58 -29l66 -83q12 -14 12 -24q0 -20 -29 -20q-42 0 -74 27zM254 41l-207 580q-5 13 -5 24q0 26 18 43t45 17q48 0 61 -45l161 -481l158 479q19 49 62 49h9q47 0 62 -49l158 -479
l161 482q16 44 60 44q25 0 43 -17t18 -42q0 -11 -6 -25l-207 -580q-18 -51 -64 -51h-12q-45 0 -63 51l-156 457l-156 -457q-18 -51 -64 -51h-12q-45 0 -64 51z" />
    <glyph glyph-name="wcircumflex" unicode="&#x175;" horiz-adv-x="853" 
d="M424 662l-52 -45q-32 -27 -74 -27q-27 0 -27 20q0 10 12 24l66 83q23 29 58 29h36q35 0 58 -29l66 -83q12 -14 12 -24q0 -20 -29 -20q-42 0 -74 27zM257 -9h-4q-49 0 -67 54l-142 402q-6 16 -6 31q0 23 16.5 39.5t42.5 16.5q44 0 59 -48l102 -320l103 320q15 48 62 48h7
q47 0 62 -48l104 -320l103 321q14 47 59 47q24 0 40.5 -16t16.5 -40q0 -15 -5 -27l-144 -406q-19 -54 -67 -54h-4q-50 0 -66 52l-103 314l-104 -314q-16 -52 -65 -52z" />
    <glyph glyph-name="Ycircumflex" unicode="&#x176;" horiz-adv-x="696" 
d="M287 56v216l-241 331q-14 21 -14 43q0 25 18 42t44 17q36 0 60 -37l195 -281l198 282q24 37 59 37q26 0 43 -17.5t17 -42.5q0 -21 -17 -44l-239 -327v-219q0 -26 -18 -43.5t-44 -17.5t-43.5 17.5t-17.5 43.5zM347 825l-52 -45q-32 -27 -74 -27q-27 0 -27 20q0 10 12 24
l66 83q23 29 58 29h36q35 0 58 -29l66 -83q12 -14 12 -24q0 -20 -29 -20q-42 0 -74 27z" />
    <glyph glyph-name="ycircumflex" unicode="&#x177;" 
d="M172 -163q-50 0 -84 15q-38 14 -38 50q0 23 14 36.5t35 13.5q13 0 22 -4q26 -7 42 -7q27 0 43.5 12.5t31.5 43.5l4 11l-196 438q-7 15 -7 29q0 26 17 42.5t43 16.5q41 0 59 -46l142 -351l132 351q20 46 58 46q24 0 41 -16.5t17 -40.5q0 -17 -5 -29l-193 -463
q-34 -81 -74 -114.5t-104 -33.5zM293 662l-52 -45q-32 -27 -74 -27q-27 0 -27 20q0 10 12 24l66 83q23 29 58 29h36q35 0 58 -29l66 -83q12 -14 12 -24q0 -20 -29 -20q-42 0 -74 27z" />
    <glyph glyph-name="Ydieresis" unicode="&#x178;" horiz-adv-x="696" 
d="M287 56v216l-241 331q-14 21 -14 43q0 25 18 42t44 17q36 0 60 -37l195 -281l198 282q24 37 59 37q26 0 43 -17.5t17 -42.5q0 -21 -17 -44l-239 -327v-219q0 -26 -18 -43.5t-44 -17.5t-43.5 17.5t-17.5 43.5zM448 883q27 0 46 -17.5t19 -44.5v-7q0 -27 -19 -44t-46 -17
q-28 0 -47 17t-19 44v7q0 27 19 44.5t47 17.5zM249 883q27 0 46 -17.5t19 -44.5v-7q0 -27 -19 -44t-46 -17q-28 0 -47 17t-19 44v7q0 27 19 44.5t47 17.5z" />
    <glyph glyph-name="Zacute" unicode="&#x179;" horiz-adv-x="702" 
d="M354 753q-30 0 -30 21q0 8 8 22l57 88q18 29 48 29q24 0 48 -12.5t24 -26.5q0 -15 -17 -30l-67 -64q-28 -27 -71 -27zM589 0h-473q-22 0 -38.5 16t-16.5 38v3q0 31 23 57l394 477h-351q-22 0 -38 15.5t-16 38.5t16 39t38 16h460q23 0 39 -16t16 -38v-3q0 -29 -22 -57
l-395 -477h364q23 0 39 -16t16 -39t-16 -38.5t-39 -15.5z" />
    <glyph glyph-name="zacute" unicode="&#x17a;" horiz-adv-x="560" 
d="M279 590q-30 0 -30 21q0 8 8 22l57 88q18 29 48 29q24 0 48 -12.5t24 -26.5q0 -15 -17 -30l-67 -64q-28 -27 -71 -27zM466 0h-358q-26 0 -42.5 14t-16.5 35v2q0 30 27 58l281 320h-249q-21 0 -35.5 14.5t-14.5 34.5q0 21 14.5 35.5t35.5 14.5h348q25 0 41.5 -13.5
t16.5 -34.5v-3q0 -31 -26 -58l-282 -320h260q21 0 35.5 -14.5t14.5 -35.5q0 -20 -14.5 -34.5t-35.5 -14.5z" />
    <glyph glyph-name="Zdotaccent" unicode="&#x17b;" horiz-adv-x="702" 
d="M589 0h-473q-22 0 -38.5 16t-16.5 38v3q0 31 23 57l394 477h-351q-22 0 -38 15.5t-16 38.5t16 39t38 16h460q23 0 39 -16t16 -38v-3q0 -29 -22 -57l-395 -477h364q23 0 39 -16t16 -39t-16 -38.5t-39 -15.5zM425 821v-7q0 -27 -19.5 -44t-48.5 -17q-28 0 -47.5 17
t-19.5 44v7q0 27 19.5 44.5t47.5 17.5t48 -17.5t20 -44.5z" />
    <glyph glyph-name="zdotaccent" unicode="&#x17c;" horiz-adv-x="560" 
d="M466 0h-358q-26 0 -42.5 14t-16.5 35v2q0 30 27 58l281 320h-249q-21 0 -35.5 14.5t-14.5 34.5q0 21 14.5 35.5t35.5 14.5h348q25 0 41.5 -13.5t16.5 -34.5v-3q0 -31 -26 -58l-282 -320h260q21 0 35.5 -14.5t14.5 -35.5q0 -20 -14.5 -34.5t-35.5 -14.5zM350 658v-7
q0 -27 -19.5 -44t-48.5 -17q-28 0 -47.5 17t-19.5 44v7q0 27 19.5 44.5t47.5 17.5t48 -17.5t20 -44.5z" />
    <glyph glyph-name="Zcaron" unicode="&#x17d;" horiz-adv-x="702" 
d="M358 838l52 45q32 27 74 27q27 0 27 -20q0 -10 -12 -24l-66 -83q-23 -29 -58 -29h-36q-35 0 -58 29l-66 83q-12 14 -12 24q0 20 29 20q42 0 74 -27zM589 0h-473q-22 0 -38.5 16t-16.5 38v3q0 31 23 57l394 477h-351q-22 0 -38 15.5t-16 38.5t16 39t38 16h460q23 0 39 -16
t16 -38v-3q0 -29 -22 -57l-395 -477h364q23 0 39 -16t16 -39t-16 -38.5t-39 -15.5z" />
    <glyph glyph-name="zcaron" unicode="&#x17e;" horiz-adv-x="560" 
d="M283 675l52 45q32 27 74 27q27 0 27 -20q0 -10 -12 -24l-66 -83q-23 -29 -58 -29h-36q-35 0 -58 29l-66 83q-12 14 -12 24q0 20 29 20q42 0 74 -27zM466 0h-358q-26 0 -42.5 14t-16.5 35v2q0 30 27 58l281 320h-249q-21 0 -35.5 14.5t-14.5 34.5q0 21 14.5 35.5
t35.5 14.5h348q25 0 41.5 -13.5t16.5 -34.5v-3q0 -31 -26 -58l-282 -320h260q21 0 35.5 -14.5t14.5 -35.5q0 -20 -14.5 -34.5t-35.5 -14.5z" />
    <glyph glyph-name="florin" unicode="&#x192;" horiz-adv-x="527" 
d="M106 -7q-30 0 -47.5 14t-17.5 37q0 20 13.5 34t36.5 16q52 4 63 67l35 195h-34q-21 0 -36 14.5t-15 35.5t15 36t36 15h51l18 94q15 78 55.5 116.5t119.5 38.5q27 0 52 -3q19 -2 32 -16.5t13 -34.5q0 -21 -14.5 -35.5t-35.5 -14.5q-1 0 -9.5 1t-14.5 1q-35 0 -54 -18
t-27 -60l-12 -69h81q22 0 36.5 -15t14.5 -36t-14.5 -35.5t-36.5 -14.5h-99l-38 -213q-14 -79 -55 -114.5t-112 -35.5z" />
    <glyph glyph-name="Ohorn" unicode="&#x1a0;" horiz-adv-x="850" 
d="M424 -12q-159 0 -262 105t-103 255v2q0 150 104.5 256t262.5 106q32 0 74 -7q12 0 39 -0.5t49 -0.5l23 -1q18 0 28.5 3t15 11.5t5.5 16t1 24.5v3q0 21 13.5 34t39.5 13q20 0 33 -13.5t13 -33.5v-1q0 -60 -21 -91t-76 -39q128 -109 128 -278v-2q0 -150 -104.5 -256
t-262.5 -106zM426 102q103 0 169.5 71t66.5 175v2q0 104 -67.5 176.5t-170.5 72.5t-169.5 -71.5t-66.5 -175.5v-2q0 -104 67.5 -176t170.5 -72z" />
    <glyph glyph-name="ohorn" unicode="&#x1a1;" horiz-adv-x="657" 
d="M327 -12q-120 0 -200 79.5t-80 193.5v2q0 115 81 195.5t201 80.5q31 0 60 -6q8 0 26 -0.5t33 -0.5l16 -1q18 0 28.5 3t15 11.5t5.5 16t1 24.5v3q0 21 13.5 34t39.5 13q20 0 33 -13.5t13 -33.5v-1q0 -57 -18.5 -88t-66.5 -40q82 -82 82 -195v-2q0 -113 -81 -194t-202 -81z
M329 94q72 0 116 48.5t44 118.5v2q0 71 -46 120.5t-116 49.5q-71 0 -115 -48.5t-44 -119.5v-2q0 -70 46 -119.5t115 -49.5z" />
    <glyph glyph-name="Uhorn" unicode="&#x1af;" horiz-adv-x="757" 
d="M377 -11q-139 0 -218.5 79.5t-79.5 228.5v347q0 26 18 43.5t44 17.5t43.5 -17.5t17.5 -43.5v-342q0 -97 46.5 -148t130.5 -51q83 0 129.5 49.5t46.5 144.5v347q0 26 18 43.5t44 17.5h2q4 0 14 -2q21 1 30.5 8.5t11 16t1.5 30.5v3q0 21 13.5 34t39.5 13q20 0 33 -13.5
t13 -33.5v-1q0 -60 -21 -91t-76 -39v-327q0 -153 -80 -233.5t-221 -80.5z" />
    <glyph glyph-name="uhorn" unicode="&#x1b0;" horiz-adv-x="620" 
d="M644 589v-1q0 -60 -22 -91.5t-77 -39.5v-402q0 -25 -17.5 -42.5t-43.5 -17.5q-25 0 -43 17t-18 43v27q-64 -93 -165 -93q-89 0 -138.5 54.5t-49.5 148.5v281q0 26 17.5 43.5t42.5 17.5q26 0 43.5 -17.5t17.5 -43.5v-245q0 -62 29.5 -95t83.5 -33t86.5 34.5t32.5 95.5v243
q0 26 17.5 43.5t43.5 17.5q10 0 19 -3q21 1 30 9t10.5 16.5t1.5 29.5v3q0 21 13.5 34t39.5 13q20 0 33 -13.5t13 -33.5z" />
    <glyph glyph-name="Aringacute" unicode="&#x1fa;" horiz-adv-x="790" 
d="M392 907q-30 0 -30 21q0 8 8 22l57 88q18 29 48 29q24 0 48 -12.5t24 -26.5q0 -15 -17 -30l-67 -64q-28 -27 -71 -27zM461 684l271 -605q7 -13 7 -25q0 -24 -17 -41.5t-42 -17.5q-41 0 -60 43l-57 131h-340l-58 -135q-18 -39 -57 -39q-24 0 -41 16.5t-17 40.5q0 7 7 26
l272 606q-48 33 -48 87v2q0 45 34.5 77t79.5 32t79.5 -32t34.5 -77v-2q0 -56 -48 -87zM395 710q26 0 44 18t18 43v2q0 25 -18 43t-44 18t-44 -18t-18 -43v-2q0 -25 18 -43t44 -18zM270 278h246l-123 283z" />
    <glyph glyph-name="aringacute" unicode="&#x1fb;" 
d="M228 -11q-79 0 -133 43t-54 120v2q0 84 59 127t159 43q73 0 142 -22v13q0 115 -131 115q-64 0 -117 -21q-10 -3 -19 -3q-21 0 -36 14.5t-15 35.5q0 36 33 48q83 31 170 31q118 0 175 -59q57 -57 57 -163v-260q0 -25 -17 -41.5t-42 -16.5q-26 0 -42.5 15t-16.5 36v20
q-64 -77 -172 -77zM294 593q-45 0 -79.5 32t-34.5 77v2q0 45 34.5 77t79.5 32t79.5 -32t34.5 -77v-2q0 -45 -34.5 -77t-79.5 -32zM262 77q61 0 101 31.5t40 81.5v36q-54 21 -120 21q-59 0 -91.5 -23t-32.5 -65v-2q0 -37 29 -58.5t74 -21.5zM291 843q-30 0 -30 21q0 8 8 22
l57 88q18 29 48 29q24 0 48 -12.5t24 -26.5q0 -15 -17 -30l-67 -64q-28 -27 -71 -27zM294 641q26 0 44 18t18 43v2q0 25 -18 43t-44 18t-44 -18t-18 -43v-2q0 -25 18 -43t44 -18z" />
    <glyph glyph-name="AEacute" unicode="&#x1fc;" horiz-adv-x="1045" 
d="M618 753q-30 0 -30 21q0 8 8 22l57 88q18 29 48 29q24 0 48 -12.5t24 -26.5q0 -15 -17 -30l-67 -64q-28 -27 -71 -27zM34 45q0 21 10 35l337 577q24 43 72 43h481q23 0 39 -16t16 -39t-16 -39t-39 -16h-324v-182h279q23 0 39 -16.5t16 -39.5t-16 -38.5t-39 -15.5h-279
v-188h329q23 0 39 -16t16 -39t-16 -39t-39 -16h-390q-26 0 -44 18t-18 44v107h-264l-81 -141q-19 -34 -54 -34q-23 0 -38.5 14.5t-15.5 36.5zM286 278h201v315h-20z" />
    <glyph glyph-name="aeacute" unicode="&#x1fd;" horiz-adv-x="952" 
d="M469 590q-30 0 -30 21q0 8 8 22l57 88q18 29 48 29q24 0 48 -12.5t24 -26.5q0 -15 -17 -30l-67 -64q-28 -27 -71 -27zM514 301h272q-6 61 -41 100t-93 39q-56 0 -93 -38t-45 -101zM260 78q83 0 157 68q-16 35 -20 81q-56 20 -116 20q-58 0 -90 -23t-32 -65v-2
q0 -36 29 -57.5t72 -21.5zM855 58q-78 -70 -190 -70q-127 0 -204 90q-109 -89 -221 -89q-86 0 -142.5 43.5t-56.5 119.5v2q0 84 58.5 127t157.5 43q71 0 140 -22v13q0 115 -129 115q-58 0 -115 -21q-10 -3 -19 -3q-21 0 -36 14.5t-15 35.5q0 36 33 48q79 31 168 31
q136 0 186 -86q69 90 185 90q78 0 136.5 -40.5t85 -98t26.5 -121.5q0 -26 -16.5 -42t-40.5 -16h-330q10 -64 51 -99t100 -35q69 0 126 46q14 11 30 11q21 0 35 -14t14 -35q0 -22 -17 -37z" />
    <glyph glyph-name="Oslashacute" unicode="&#x1fe;" horiz-adv-x="850" 
d="M424 -12q-125 0 -218 67l-48 -48q-15 -17 -38 -17q-19 0 -31 11.5t-12 28.5q0 20 17 37l47 49q-82 101 -82 232v2q0 150 104.5 256t262.5 106q123 0 218 -68l48 49q17 17 38 17q18 0 30.5 -11.5t12.5 -27.5q0 -21 -17 -38l-47 -49q82 -101 82 -232v-2q0 -150 -104.5 -256
t-262.5 -106zM426 99q103 0 170.5 72.5t67.5 176.5v2q0 79 -42 143l-335 -350q61 -44 139 -44zM186 352v-2q0 -79 42 -143l334 349q-63 45 -138 45q-103 0 -170.5 -72.5t-67.5 -176.5zM421 763q-30 0 -30 21q0 8 8 22l57 88q18 29 48 29q24 0 48 -12.5t24 -26.5
q0 -15 -17 -30l-67 -64q-28 -27 -71 -27z" />
    <glyph glyph-name="oslashacute" unicode="&#x1ff;" horiz-adv-x="657" 
d="M327 -12q-92 0 -162 48l-29 -30q-18 -18 -38 -18q-16 0 -27.5 11t-11.5 26q0 20 17 37l29 30q-58 74 -58 169v2q0 115 81 195.5t201 80.5q91 0 162 -49l30 31q18 18 38 18q16 0 27.5 -10.5t11.5 -25.5q0 -17 -17 -38l-30 -30q59 -75 59 -170v-2q0 -113 -81 -194t-202 -81
zM165 265v-2q0 -48 22 -88l229 234q-40 27 -89 27q-72 0 -117 -49.5t-45 -121.5zM329 91q73 0 118 49.5t45 120.5v2q0 47 -23 88l-229 -234q38 -26 89 -26zM325 590q-30 0 -30 21q0 8 8 22l57 88q18 29 48 29q24 0 48 -12.5t24 -26.5q0 -15 -17 -30l-67 -64q-28 -27 -71 -27
z" />
    <glyph glyph-name="Scommaaccent" unicode="&#x218;" horiz-adv-x="640" 
d="M316 -169q-54 9 -54 53v2q0 23 17 38t44 15q29 0 46.5 -19t17.5 -51v-3q0 -71 -43 -108q-38 -33 -86 -33q-26 0 -26 21q0 16 21 21q65 14 63 64zM335 -10q-145 0 -263 88q-24 18 -24 47q0 24 17 40.5t41 16.5q23 0 36 -11q90 -72 196 -72q57 0 90.5 24.5t33.5 63.5v2
q0 39 -32.5 62.5t-125.5 44.5q-121 28 -177 73t-56 136v2q0 90 67 146.5t172 56.5q125 0 222 -65q27 -14 27 -49q0 -24 -17 -40.5t-41 -16.5q-17 0 -32 9q-83 53 -161 53q-53 0 -83.5 -23.5t-30.5 -59.5v-2q0 -41 33.5 -63.5t133.5 -46.5q117 -30 170.5 -75.5t53.5 -129.5
v-2q0 -97 -69 -153t-181 -56z" />
    <glyph glyph-name="scommaaccent" unicode="&#x219;" horiz-adv-x="501" 
d="M245 -166q-54 9 -54 53v2q0 23 17 38t44 15q29 0 46.5 -19t17.5 -51v-3q0 -71 -43 -108q-38 -33 -86 -33q-26 0 -26 21q0 17 21 21q65 14 63 64zM257 -10q-112 0 -201 63q-23 12 -23 42q0 20 14 34.5t35 14.5q15 0 26 -7q74 -51 152 -51q39 0 60.5 15.5t21.5 41.5v2
q0 33 -60 55q-14 6 -58 19q-35 9 -59.5 19t-51 27.5t-40.5 45t-14 63.5v2q0 73 53.5 117t134.5 44q85 0 166 -43q29 -15 29 -46q0 -21 -14.5 -35t-35.5 -14q-12 0 -24 6q-67 36 -124 36q-35 0 -54.5 -14t-19.5 -38v-2q0 -18 19 -32.5t39.5 -22.5t60.5 -20q35 -11 59 -21.5
t50.5 -28.5t40.5 -44t14 -60v-2q0 -80 -55 -123t-141 -43z" />
    <glyph glyph-name="schwa" unicode="&#x259;" horiz-adv-x="604" 
d="M437 227h-271q6 -61 41 -100t93 -39q56 0 92.5 38t44.5 101zM96 470q78 70 190 70q116 0 193.5 -76.5t77.5 -197.5v-2q0 -116 -73 -195.5t-185 -79.5q-80 0 -139 40.5t-85.5 98t-26.5 121.5q0 26 16.5 42t40.5 16h331q-10 64 -51 99t-101 35q-67 0 -125 -46
q-14 -11 -31 -11q-20 0 -34 14t-14 35t16 37z" />
    <glyph glyph-name="circumflex" unicode="&#x2c6;" horiz-adv-x="500" 
d="M249 662l-52 -45q-32 -27 -74 -27q-27 0 -27 20q0 10 12 24l66 83q23 29 58 29h36q35 0 58 -29l66 -83q12 -14 12 -24q0 -20 -29 -20q-42 0 -74 27z" />
    <glyph glyph-name="caron" unicode="&#x2c7;" horiz-adv-x="500" 
d="M251 675l52 45q32 27 74 27q27 0 27 -20q0 -10 -12 -24l-66 -83q-23 -29 -58 -29h-36q-35 0 -58 29l-66 83q-12 14 -12 24q0 20 29 20q42 0 74 -27z" />
    <glyph glyph-name="breve" unicode="&#x2d8;" horiz-adv-x="500" 
d="M250 593q-108 0 -153 80q-8 18 -8 31q0 18 12 30.5t30 12.5q25 0 38 -23q26 -46 81 -46t81 46q13 23 38 23q18 0 30 -12.5t12 -30.5q0 -13 -8 -31q-45 -80 -153 -80z" />
    <glyph glyph-name="dotaccent" unicode="&#x2d9;" horiz-adv-x="500" 
d="M318 658v-7q0 -27 -19.5 -44t-48.5 -17q-28 0 -47.5 17t-19.5 44v7q0 27 19.5 44.5t47.5 17.5t48 -17.5t20 -44.5z" />
    <glyph glyph-name="ring" unicode="&#x2da;" horiz-adv-x="500" 
d="M250 593q-45 0 -79.5 32t-34.5 77v2q0 45 34.5 77t79.5 32t79.5 -32t34.5 -77v-2q0 -45 -34.5 -77t-79.5 -32zM250 641q26 0 44 18t18 43v2q0 25 -18 43t-44 18t-44 -18t-18 -43v-2q0 -25 18 -43t44 -18z" />
    <glyph glyph-name="ogonek" unicode="&#x2db;" horiz-adv-x="500" 
d="M182 -82q0 44 52 94l81 -5q-41 -37 -41 -70q0 -30 44 -41q33 -8 33 -31q0 -31 -40 -31q-53 0 -91 21t-38 63z" />
    <glyph glyph-name="tilde" unicode="&#x2dc;" horiz-adv-x="500" 
d="M137 603q-13 -20 -33 -20q-15 0 -26 10t-11 23q0 14 4 23q16 46 40 68.5t62 22.5q31 0 80 -20t64 -20q29 0 46 32q13 20 33 20q15 0 26 -10t11 -23q0 -14 -4 -23q-16 -46 -40 -68.5t-62 -22.5q-30 0 -79.5 20t-64.5 20q-29 0 -46 -32z" />
    <glyph glyph-name="hungarumlaut" unicode="&#x2dd;" horiz-adv-x="500" 
d="M283 590q-29 0 -29 21q0 8 8 22l58 88q17 29 46 29q24 0 47 -12t23 -26t-17 -31l-67 -64q-28 -27 -69 -27zM100 590q-29 0 -29 21q0 8 8 22l58 88q17 29 46 29q24 0 47 -12t23 -26t-17 -31l-67 -64q-27 -27 -69 -27z" />
    <glyph glyph-name="commaaccent" unicode="&#x326;" horiz-adv-x="500" 
d="M242 -166q-54 9 -54 53v2q0 23 17 38t44 15q29 0 46.5 -19t17.5 -51v-3q0 -71 -43 -108q-38 -33 -86 -33q-26 0 -26 21q0 17 21 21q65 14 63 64z" />
    <glyph glyph-name="Wgrave" unicode="&#x1e80;" horiz-adv-x="1099" 
d="M254 41l-207 580q-5 13 -5 24q0 26 18 43t45 17q48 0 61 -45l161 -481l158 479q19 49 62 49h9q47 0 62 -49l158 -479l161 482q16 44 60 44q25 0 43 -17t18 -42q0 -11 -6 -25l-207 -580q-18 -51 -64 -51h-12q-45 0 -63 51l-156 457l-156 -457q-18 -51 -64 -51h-12
q-45 0 -64 51zM552 753q-43 0 -70 27l-68 64q-17 15 -17 30q0 14 23.5 26.5t48.5 12.5q30 0 48 -29l57 -88q9 -16 9 -22q0 -21 -31 -21z" />
    <glyph glyph-name="wgrave" unicode="&#x1e81;" horiz-adv-x="853" 
d="M257 -9h-4q-49 0 -67 54l-142 402q-6 16 -6 31q0 23 16.5 39.5t42.5 16.5q44 0 59 -48l102 -320l103 320q15 48 62 48h7q47 0 62 -48l104 -320l103 321q14 47 59 47q24 0 40.5 -16t16.5 -40q0 -15 -5 -27l-144 -406q-19 -54 -67 -54h-4q-50 0 -66 52l-103 314l-104 -314
q-16 -52 -65 -52zM428 590q-43 0 -70 27l-68 64q-17 15 -17 30q0 14 23.5 26.5t48.5 12.5q30 0 48 -29l57 -88q9 -16 9 -22q0 -21 -31 -21z" />
    <glyph glyph-name="Wacute" unicode="&#x1e82;" horiz-adv-x="1099" 
d="M546 753q-30 0 -30 21q0 8 8 22l57 88q18 29 48 29q24 0 48 -12.5t24 -26.5q0 -15 -17 -30l-67 -64q-28 -27 -71 -27zM254 41l-207 580q-5 13 -5 24q0 26 18 43t45 17q48 0 61 -45l161 -481l158 479q19 49 62 49h9q47 0 62 -49l158 -479l161 482q16 44 60 44q25 0 43 -17
t18 -42q0 -11 -6 -25l-207 -580q-18 -51 -64 -51h-12q-45 0 -63 51l-156 457l-156 -457q-18 -51 -64 -51h-12q-45 0 -64 51z" />
    <glyph glyph-name="wacute" unicode="&#x1e83;" horiz-adv-x="853" 
d="M422 590q-30 0 -30 21q0 8 8 22l57 88q18 29 48 29q24 0 48 -12.5t24 -26.5q0 -15 -17 -30l-67 -64q-28 -27 -71 -27zM257 -9h-4q-49 0 -67 54l-142 402q-6 16 -6 31q0 23 16.5 39.5t42.5 16.5q44 0 59 -48l102 -320l103 320q15 48 62 48h7q47 0 62 -48l104 -320l103 321
q14 47 59 47q24 0 40.5 -16t16.5 -40q0 -15 -5 -27l-144 -406q-19 -54 -67 -54h-4q-50 0 -66 52l-103 314l-104 -314q-16 -52 -65 -52z" />
    <glyph glyph-name="Wdieresis" unicode="&#x1e84;" horiz-adv-x="1099" 
d="M649 883q27 0 46 -17.5t19 -44.5v-7q0 -27 -19 -44t-46 -17q-28 0 -47 17t-19 44v7q0 27 19 44.5t47 17.5zM450 883q27 0 46 -17.5t19 -44.5v-7q0 -27 -19 -44t-46 -17q-28 0 -47 17t-19 44v7q0 27 19 44.5t47 17.5zM254 41l-207 580q-5 13 -5 24q0 26 18 43t45 17
q48 0 61 -45l161 -481l158 479q19 49 62 49h9q47 0 62 -49l158 -479l161 482q16 44 60 44q25 0 43 -17t18 -42q0 -11 -6 -25l-207 -580q-18 -51 -64 -51h-12q-45 0 -63 51l-156 457l-156 -457q-18 -51 -64 -51h-12q-45 0 -64 51z" />
    <glyph glyph-name="wdieresis" unicode="&#x1e85;" horiz-adv-x="853" 
d="M525 720q27 0 46 -17.5t19 -44.5v-7q0 -27 -19 -44t-46 -17q-28 0 -47 17t-19 44v7q0 27 19 44.5t47 17.5zM326 720q27 0 46 -17.5t19 -44.5v-7q0 -27 -19 -44t-46 -17q-28 0 -47 17t-19 44v7q0 27 19 44.5t47 17.5zM257 -9h-4q-49 0 -67 54l-142 402q-6 16 -6 31
q0 23 16.5 39.5t42.5 16.5q44 0 59 -48l102 -320l103 320q15 48 62 48h7q47 0 62 -48l104 -320l103 321q14 47 59 47q24 0 40.5 -16t16.5 -40q0 -15 -5 -27l-144 -406q-19 -54 -67 -54h-4q-50 0 -66 52l-103 314l-104 -314q-16 -52 -65 -52z" />
    <glyph glyph-name="uni1EA0" unicode="&#x1ea0;" horiz-adv-x="773" 
d="M319 -155q0 27 18.5 45.5t48.5 18.5q27 0 45.5 -18.5t18.5 -45.5q0 -29 -18.5 -48t-45.5 -19q-30 0 -48.5 19t-18.5 48zM42 52q0 10 8 28l260 580q24 50 74 50h6q49 0 73 -50l260 -580q7 -13 7 -26q0 -25 -16.5 -42t-41.5 -17q-42 0 -60 43l-57 131h-340l-59 -135
q-16 -39 -57 -39q-24 0 -40.5 16.5t-16.5 40.5zM262 278h246l-123 283z" />
    <glyph glyph-name="uni1EA1" unicode="&#x1ea1;" 
d="M211 -155q0 27 18.5 45.5t48.5 18.5q27 0 45.5 -18.5t18.5 -45.5q0 -29 -18.5 -48t-45.5 -19q-30 0 -48.5 19t-18.5 48zM228 -11q-79 0 -133 43t-54 120v2q0 84 59 127t159 43q73 0 142 -22v13q0 115 -131 115q-64 0 -117 -21q-10 -3 -19 -3q-21 0 -36 14.5t-15 35.5
q0 36 33 48q83 31 170 31q118 0 175 -59q57 -57 57 -163v-260q0 -25 -17 -41.5t-42 -16.5q-26 0 -42.5 15t-16.5 36v20q-64 -77 -172 -77zM262 77q61 0 101 31.5t40 81.5v36q-54 21 -120 21q-59 0 -91.5 -23t-32.5 -65v-2q0 -37 29 -58.5t74 -21.5z" />
    <glyph glyph-name="uni1EA2" unicode="&#x1ea2;" horiz-adv-x="773" 
d="M397 763h-1q-33 0 -35 27q-2 8 -2 18q-1 7 -1 20q0 25 30 31q36 3 36 21t-24 18q-12 0 -36 -15q-11 -11 -24 -11q-14 0 -24.5 8.5t-10.5 21.5q0 5 6 23q37 37 90 37q44 0 71 -23t27 -59q0 -30 -20.5 -51t-50.5 -28v-13q-4 -25 -31 -25zM42 52q0 10 8 28l260 580
q24 50 74 50h6q49 0 73 -50l260 -580q7 -13 7 -26q0 -25 -16.5 -42t-41.5 -17q-42 0 -60 43l-57 131h-340l-59 -135q-16 -39 -57 -39q-24 0 -40.5 16.5t-16.5 40.5zM262 278h246l-123 283z" />
    <glyph glyph-name="uni1EA3" unicode="&#x1ea3;" 
d="M320 590h-1q-33 0 -35 27q-2 8 -2 18q-1 7 -1 20q0 25 30 31q36 3 36 21t-24 18q-12 0 -36 -15q-11 -11 -24 -11q-14 0 -24.5 8.5t-10.5 21.5q0 5 6 23q37 37 90 37q44 0 71 -23t27 -59q0 -30 -20.5 -51t-50.5 -28v-13q-4 -25 -31 -25zM228 -11q-79 0 -133 43t-54 120v2
q0 84 59 127t159 43q73 0 142 -22v13q0 115 -131 115q-64 0 -117 -21q-10 -3 -19 -3q-21 0 -36 14.5t-15 35.5q0 36 33 48q83 31 170 31q118 0 175 -59q57 -57 57 -163v-260q0 -25 -17 -41.5t-42 -16.5q-26 0 -42.5 15t-16.5 36v20q-64 -77 -172 -77zM262 77q61 0 101 31.5
t40 81.5v36q-54 21 -120 21q-59 0 -91.5 -23t-32.5 -65v-2q0 -37 29 -58.5t74 -21.5z" />
    <glyph glyph-name="uni1EA4" unicode="&#x1ea4;" horiz-adv-x="773" 
d="M530 889q-30 0 -30 21q0 8 8 22l57 88q18 29 48 29q24 0 48 -12.5t24 -26.5q0 -15 -17 -30l-67 -64q-28 -27 -71 -27zM42 52q0 10 8 28l260 580q24 50 74 50h6q49 0 73 -50l260 -580q7 -13 7 -26q0 -25 -16.5 -42t-41.5 -17q-42 0 -60 43l-57 131h-340l-59 -135
q-16 -39 -57 -39q-24 0 -40.5 16.5t-16.5 40.5zM262 278h246l-123 283zM384 835l-52 -45q-32 -27 -74 -27q-27 0 -27 20q0 10 12 24l66 83q23 29 58 29h36q35 0 58 -29l66 -83q12 -14 12 -24q0 -20 -29 -20q-42 0 -74 27z" />
    <glyph glyph-name="uni1EA5" unicode="&#x1ea5;" 
d="M454 716q-30 0 -30 21q0 8 8 22l57 88q18 29 48 29q24 0 48 -12.5t24 -26.5q0 -15 -17 -30l-67 -64q-28 -27 -71 -27zM228 -11q-79 0 -133 43t-54 120v2q0 84 59 127t159 43q73 0 142 -22v13q0 115 -131 115q-64 0 -117 -21q-10 -3 -19 -3q-21 0 -36 14.5t-15 35.5
q0 36 33 48q83 31 170 31q118 0 175 -59q57 -57 57 -163v-260q0 -25 -17 -41.5t-42 -16.5q-26 0 -42.5 15t-16.5 36v20q-64 -77 -172 -77zM262 77q61 0 101 31.5t40 81.5v36q-54 21 -120 21q-59 0 -91.5 -23t-32.5 -65v-2q0 -37 29 -58.5t74 -21.5zM308 662l-52 -45
q-32 -27 -74 -27q-27 0 -27 20q0 10 12 24l66 83q23 29 58 29h36q35 0 58 -29l66 -83q12 -14 12 -24q0 -20 -29 -20q-42 0 -74 27z" />
    <glyph glyph-name="uni1EA6" unicode="&#x1ea6;" horiz-adv-x="773" 
d="M575 889q-43 0 -70 27l-68 64q-17 15 -17 30q0 14 23.5 26.5t48.5 12.5q30 0 48 -29l57 -88q9 -16 9 -22q0 -21 -31 -21zM42 52q0 10 8 28l260 580q24 50 74 50h6q49 0 73 -50l260 -580q7 -13 7 -26q0 -25 -16.5 -42t-41.5 -17q-42 0 -60 43l-57 131h-340l-59 -135
q-16 -39 -57 -39q-24 0 -40.5 16.5t-16.5 40.5zM262 278h246l-123 283zM384 835l-52 -45q-32 -27 -74 -27q-27 0 -27 20q0 10 12 24l66 83q23 29 58 29h36q35 0 58 -29l66 -83q12 -14 12 -24q0 -20 -29 -20q-42 0 -74 27z" />
    <glyph glyph-name="uni1EA7" unicode="&#x1ea7;" 
d="M499 716q-43 0 -70 27l-68 64q-17 15 -17 30q0 14 23.5 26.5t48.5 12.5q30 0 48 -29l57 -88q9 -16 9 -22q0 -21 -31 -21zM228 -11q-79 0 -133 43t-54 120v2q0 84 59 127t159 43q73 0 142 -22v13q0 115 -131 115q-64 0 -117 -21q-10 -3 -19 -3q-21 0 -36 14.5t-15 35.5
q0 36 33 48q83 31 170 31q118 0 175 -59q57 -57 57 -163v-260q0 -25 -17 -41.5t-42 -16.5q-26 0 -42.5 15t-16.5 36v20q-64 -77 -172 -77zM262 77q61 0 101 31.5t40 81.5v36q-54 21 -120 21q-59 0 -91.5 -23t-32.5 -65v-2q0 -37 29 -58.5t74 -21.5zM308 662l-52 -45
q-32 -27 -74 -27q-27 0 -27 20q0 10 12 24l66 83q23 29 58 29h36q35 0 58 -29l66 -83q12 -14 12 -24q0 -20 -29 -20q-42 0 -74 27z" />
    <glyph glyph-name="uni1EA8" unicode="&#x1ea8;" horiz-adv-x="773" 
d="M42 52q0 10 8 28l260 580q24 50 74 50h6q49 0 73 -50l260 -580q7 -13 7 -26q0 -25 -16.5 -42t-41.5 -17q-42 0 -60 43l-57 131h-340l-59 -135q-16 -39 -57 -39q-24 0 -40.5 16.5t-16.5 40.5zM262 278h246l-123 283zM384 835l-52 -45q-32 -27 -74 -27q-27 0 -27 20
q0 10 12 24l66 83q23 29 58 29h36q35 0 58 -29l66 -83q12 -14 12 -24q0 -20 -29 -20q-42 0 -74 27zM529 889h-1q-33 0 -35 27q-2 8 -2 18q-1 7 -1 20q0 25 30 31q36 3 36 21t-24 18q-12 0 -36 -15q-11 -11 -24 -11q-14 0 -24.5 8.5t-10.5 21.5q0 5 6 23q37 37 90 37
q44 0 71 -23t27 -59q0 -30 -20.5 -51t-50.5 -28v-13q-4 -25 -31 -25z" />
    <glyph glyph-name="uni1EA9" unicode="&#x1ea9;" 
d="M453 716h-1q-33 0 -35 27q-2 8 -2 18q-1 7 -1 20q0 25 30 31q36 3 36 21t-24 18q-12 0 -36 -15q-11 -11 -24 -11q-14 0 -24.5 8.5t-10.5 21.5q0 5 6 23q37 37 90 37q44 0 71 -23t27 -59q0 -30 -20.5 -51t-50.5 -28v-13q-4 -25 -31 -25zM228 -11q-79 0 -133 43t-54 120v2
q0 84 59 127t159 43q73 0 142 -22v13q0 115 -131 115q-64 0 -117 -21q-10 -3 -19 -3q-21 0 -36 14.5t-15 35.5q0 36 33 48q83 31 170 31q118 0 175 -59q57 -57 57 -163v-260q0 -25 -17 -41.5t-42 -16.5q-26 0 -42.5 15t-16.5 36v20q-64 -77 -172 -77zM262 77q61 0 101 31.5
t40 81.5v36q-54 21 -120 21q-59 0 -91.5 -23t-32.5 -65v-2q0 -37 29 -58.5t74 -21.5zM308 662l-52 -45q-32 -27 -74 -27q-27 0 -27 20q0 10 12 24l66 83q23 29 58 29h36q35 0 58 -29l66 -83q12 -14 12 -24q0 -20 -29 -20q-42 0 -74 27z" />
    <glyph glyph-name="uni1EAA" unicode="&#x1eaa;" horiz-adv-x="773" 
d="M313 973l-2 -3q-15 -21 -35 -20q-15 2 -25.5 12.5t-9.5 25.5q2 5 2 11q18 44 38.5 61.5t53.5 16.5q30 -1 66 -22l18 -10q19 -7 23 -7q15 0 22 17q25 25 39 25q15 -2 25.5 -13t10.5 -26l-3 -9q-3 -3 -3 -6q-16 -42 -37.5 -59t-56.5 -15q-23 1 -69 23q-2 2 -6 2.5t-6 2.5
l-2 2q-3 2 -4 3v-1q-13 5 -18 5q-14 0 -21 -16zM42 52q0 10 8 28l260 580q24 50 74 50h6q49 0 73 -50l260 -580q7 -13 7 -26q0 -25 -16.5 -42t-41.5 -17q-42 0 -60 43l-57 131h-340l-59 -135q-16 -39 -57 -39q-24 0 -40.5 16.5t-16.5 40.5zM262 278h246l-123 283zM384 835
l-52 -45q-32 -27 -74 -27q-27 0 -27 20q0 10 12 24l66 83q23 29 58 29h36q35 0 58 -29l66 -83q12 -14 12 -24q0 -20 -29 -20q-42 0 -74 27z" />
    <glyph glyph-name="uni1EAB" unicode="&#x1eab;" 
d="M237 800l-2 -3q-15 -21 -35 -20q-15 2 -25.5 12.5t-9.5 25.5q2 5 2 11q18 44 38.5 61.5t53.5 16.5q30 -1 66 -22l18 -10q19 -6 23 -7q15 0 22 17q25 25 39 25q15 -2 25.5 -13t10.5 -26l-3 -9q-3 -3 -3 -6q-16 -42 -37.5 -59t-56.5 -15q-23 1 -69 23q-2 2 -6 3t-6 2
q0 1 -2.5 3t-3.5 2v-1q-13 5 -18 5q-14 0 -21 -16zM228 -11q-79 0 -133 43t-54 120v2q0 84 59 127t159 43q73 0 142 -22v13q0 115 -131 115q-64 0 -117 -21q-10 -3 -19 -3q-21 0 -36 14.5t-15 35.5q0 36 33 48q83 31 170 31q118 0 175 -59q57 -57 57 -163v-260
q0 -25 -17 -41.5t-42 -16.5q-26 0 -42.5 15t-16.5 36v20q-64 -77 -172 -77zM262 77q61 0 101 31.5t40 81.5v36q-54 21 -120 21q-59 0 -91.5 -23t-32.5 -65v-2q0 -37 29 -58.5t74 -21.5zM308 662l-52 -45q-32 -27 -74 -27q-27 0 -27 20q0 10 12 24l66 83q23 29 58 29h36
q35 0 58 -29l66 -83q12 -14 12 -24q0 -20 -29 -20q-42 0 -74 27z" />
    <glyph glyph-name="uni1EAC" unicode="&#x1eac;" horiz-adv-x="773" 
d="M319 -155q0 27 18.5 45.5t48.5 18.5q27 0 45.5 -18.5t18.5 -45.5q0 -29 -18.5 -48t-45.5 -19q-30 0 -48.5 19t-18.5 48zM42 52q0 10 8 28l260 580q24 50 74 50h6q49 0 73 -50l260 -580q7 -13 7 -26q0 -25 -16.5 -42t-41.5 -17q-42 0 -60 43l-57 131h-340l-59 -135
q-16 -39 -57 -39q-24 0 -40.5 16.5t-16.5 40.5zM262 278h246l-123 283zM384 835l-52 -45q-32 -27 -74 -27q-27 0 -27 20q0 10 12 24l66 83q23 29 58 29h36q35 0 58 -29l66 -83q12 -14 12 -24q0 -20 -29 -20q-42 0 -74 27z" />
    <glyph glyph-name="uni1EAD" unicode="&#x1ead;" 
d="M211 -155q0 27 18.5 45.5t48.5 18.5q27 0 45.5 -18.5t18.5 -45.5q0 -29 -18.5 -48t-45.5 -19q-30 0 -48.5 19t-18.5 48zM228 -11q-79 0 -133 43t-54 120v2q0 84 59 127t159 43q73 0 142 -22v13q0 115 -131 115q-64 0 -117 -21q-10 -3 -19 -3q-21 0 -36 14.5t-15 35.5
q0 36 33 48q83 31 170 31q118 0 175 -59q57 -57 57 -163v-260q0 -25 -17 -41.5t-42 -16.5q-26 0 -42.5 15t-16.5 36v20q-64 -77 -172 -77zM262 77q61 0 101 31.5t40 81.5v36q-54 21 -120 21q-59 0 -91.5 -23t-32.5 -65v-2q0 -37 29 -58.5t74 -21.5zM308 662l-52 -45
q-32 -27 -74 -27q-27 0 -27 20q0 10 12 24l66 83q23 29 58 29h36q35 0 58 -29l66 -83q12 -14 12 -24q0 -20 -29 -20q-42 0 -74 27z" />
    <glyph glyph-name="uni1EAE" unicode="&#x1eae;" horiz-adv-x="773" 
d="M379 931q-30 0 -30 21q0 8 8 22l57 88q18 29 48 29q24 0 48 -12.5t24 -26.5q0 -15 -17 -30l-67 -64q-28 -27 -71 -27zM42 52q0 10 8 28l260 580q24 50 74 50h6q49 0 73 -50l260 -580q7 -13 7 -26q0 -25 -16.5 -42t-41.5 -17q-42 0 -60 43l-57 131h-340l-59 -135
q-16 -39 -57 -39q-24 0 -40.5 16.5t-16.5 40.5zM262 278h246l-123 283zM386 763q-102 0 -134 69q-10 20 -10 34q0 17 11.5 28.5t26.5 11.5q24 0 41 -22q11 -38 65 -38q58 0 70 41q12 19 38 19q15 0 26.5 -11.5t11.5 -28.5q0 -19 -8 -33q-33 -70 -138 -70z" />
    <glyph glyph-name="uni1EAF" unicode="&#x1eaf;" 
d="M313 758q-30 0 -30 21q0 8 8 22l57 88q18 29 48 29q24 0 48 -12.5t24 -26.5q0 -15 -17 -30l-67 -64q-28 -27 -71 -27zM228 -11q-79 0 -133 43t-54 120v2q0 84 59 127t159 43q73 0 142 -22v13q0 115 -131 115q-64 0 -117 -21q-10 -3 -19 -3q-21 0 -36 14.5t-15 35.5
q0 36 33 48q83 31 170 31q118 0 175 -59q57 -57 57 -163v-260q0 -25 -17 -41.5t-42 -16.5q-26 0 -42.5 15t-16.5 36v20q-64 -77 -172 -77zM262 77q61 0 101 31.5t40 81.5v36q-54 21 -120 21q-59 0 -91.5 -23t-32.5 -65v-2q0 -37 29 -58.5t74 -21.5zM320 590q-102 0 -134 69
q-10 20 -10 34q0 17 11.5 28.5t26.5 11.5q24 0 41 -22q11 -38 65 -38q58 0 70 41q12 19 38 19q15 0 26.5 -11.5t11.5 -28.5q0 -19 -8 -33q-33 -70 -138 -70z" />
    <glyph glyph-name="uni1EB0" unicode="&#x1eb0;" horiz-adv-x="773" 
d="M405 931q-43 0 -70 27l-68 64q-17 15 -17 30q0 14 23.5 26.5t48.5 12.5q30 0 48 -29l57 -88q9 -16 9 -22q0 -21 -31 -21zM42 52q0 10 8 28l260 580q24 50 74 50h6q49 0 73 -50l260 -580q7 -13 7 -26q0 -25 -16.5 -42t-41.5 -17q-42 0 -60 43l-57 131h-340l-59 -135
q-16 -39 -57 -39q-24 0 -40.5 16.5t-16.5 40.5zM262 278h246l-123 283zM386 763q-102 0 -134 69q-10 20 -10 34q0 17 11.5 28.5t26.5 11.5q24 0 41 -22q11 -38 65 -38q58 0 70 41q12 19 38 19q15 0 26.5 -11.5t11.5 -28.5q0 -19 -8 -33q-33 -70 -138 -70z" />
    <glyph glyph-name="uni1EB1" unicode="&#x1eb1;" 
d="M339 758q-43 0 -70 27l-68 64q-17 15 -17 30q0 14 23.5 26.5t48.5 12.5q30 0 48 -29l57 -88q9 -16 9 -22q0 -21 -31 -21zM228 -11q-79 0 -133 43t-54 120v2q0 84 59 127t159 43q73 0 142 -22v13q0 115 -131 115q-64 0 -117 -21q-10 -3 -19 -3q-21 0 -36 14.5t-15 35.5
q0 36 33 48q83 31 170 31q118 0 175 -59q57 -57 57 -163v-260q0 -25 -17 -41.5t-42 -16.5q-26 0 -42.5 15t-16.5 36v20q-64 -77 -172 -77zM262 77q61 0 101 31.5t40 81.5v36q-54 21 -120 21q-59 0 -91.5 -23t-32.5 -65v-2q0 -37 29 -58.5t74 -21.5zM320 590q-102 0 -134 69
q-10 20 -10 34q0 17 11.5 28.5t26.5 11.5q24 0 41 -22q11 -38 65 -38q58 0 70 41q12 19 38 19q15 0 26.5 -11.5t11.5 -28.5q0 -19 -8 -33q-33 -70 -138 -70z" />
    <glyph glyph-name="uni1EB2" unicode="&#x1eb2;" horiz-adv-x="773" 
d="M391 931h-1q-33 0 -35 27q-2 8 -2 18q-1 7 -1 20q0 25 30 31q36 3 36 21t-24 18q-12 0 -36 -15q-11 -11 -24 -11q-14 0 -24.5 8.5t-10.5 21.5q0 5 6 23q37 37 90 37q44 0 71 -23t27 -59q0 -30 -20.5 -51t-50.5 -28v-13q-4 -25 -31 -25zM42 52q0 10 8 28l260 580
q24 50 74 50h6q49 0 73 -50l260 -580q7 -13 7 -26q0 -25 -16.5 -42t-41.5 -17q-42 0 -60 43l-57 131h-340l-59 -135q-16 -39 -57 -39q-24 0 -40.5 16.5t-16.5 40.5zM262 278h246l-123 283zM386 763q-102 0 -134 69q-10 20 -10 34q0 17 11.5 28.5t26.5 11.5q24 0 41 -22
q11 -38 65 -38q58 0 70 41q12 19 38 19q15 0 26.5 -11.5t11.5 -28.5q0 -19 -8 -33q-33 -70 -138 -70z" />
    <glyph glyph-name="uni1EB3" unicode="&#x1eb3;" 
d="M325 758h-1q-33 0 -35 27q-2 8 -2 18q-1 7 -1 20q0 25 30 31q36 3 36 21t-24 18q-12 0 -36 -15q-11 -11 -24 -11q-14 0 -24.5 8.5t-10.5 21.5q0 5 6 23q37 37 90 37q44 0 71 -23t27 -59q0 -30 -20.5 -51t-50.5 -28v-13q-4 -25 -31 -25zM228 -11q-79 0 -133 43t-54 120v2
q0 84 59 127t159 43q73 0 142 -22v13q0 115 -131 115q-64 0 -117 -21q-10 -3 -19 -3q-21 0 -36 14.5t-15 35.5q0 36 33 48q83 31 170 31q118 0 175 -59q57 -57 57 -163v-260q0 -25 -17 -41.5t-42 -16.5q-26 0 -42.5 15t-16.5 36v20q-64 -77 -172 -77zM262 77q61 0 101 31.5
t40 81.5v36q-54 21 -120 21q-59 0 -91.5 -23t-32.5 -65v-2q0 -37 29 -58.5t74 -21.5zM320 590q-102 0 -134 69q-10 20 -10 34q0 17 11.5 28.5t26.5 11.5q24 0 41 -22q11 -38 65 -38q58 0 70 41q12 19 38 19q15 0 26.5 -11.5t11.5 -28.5q0 -19 -8 -33q-33 -70 -138 -70z" />
    <glyph glyph-name="uni1EB4" unicode="&#x1eb4;" horiz-adv-x="773" 
d="M312 955l-2 -3q-15 -21 -35 -20q-15 2 -25.5 12.5t-9.5 25.5q2 5 2 11q18 44 38.5 61.5t53.5 16.5q30 -1 66 -22l18 -10q20 -7 23 -7q15 0 22 17q25 25 39 25q15 -2 25.5 -13t10.5 -26l-3 -9q-3 -3 -3 -6q-16 -42 -37.5 -59t-56.5 -15q-23 1 -69 23q-2 2 -6 2.5t-6 2.5
q-1 0 -3.5 2t-2.5 3v-1q-13 5 -18 5q-14 0 -21 -16zM42 52q0 10 8 28l260 580q24 50 74 50h6q49 0 73 -50l260 -580q7 -13 7 -26q0 -25 -16.5 -42t-41.5 -17q-42 0 -60 43l-57 131h-340l-59 -135q-16 -39 -57 -39q-24 0 -40.5 16.5t-16.5 40.5zM262 278h246l-123 283z
M386 763q-102 0 -134 69q-10 20 -10 34q0 17 11.5 28.5t26.5 11.5q24 0 41 -22q11 -38 65 -38q58 0 70 41q12 19 38 19q15 0 26.5 -11.5t11.5 -28.5q0 -19 -8 -33q-33 -70 -138 -70z" />
    <glyph glyph-name="uni1EB5" unicode="&#x1eb5;" 
d="M246 782l-2 -3q-15 -21 -35 -20q-15 2 -25.5 12.5t-9.5 25.5q2 5 2 11q18 44 38.5 61.5t53.5 16.5q30 -1 66 -22l18 -10q19 -6 23 -7q15 0 22 17q25 25 39 25q15 -2 25.5 -13t10.5 -26l-3 -9q-3 -3 -3 -6q-16 -42 -37.5 -59t-56.5 -15q-23 1 -69 23q-2 2 -6 3t-6 2l-3 3
l-3 2v-1q-13 5 -18 5q-14 0 -21 -16zM228 -11q-79 0 -133 43t-54 120v2q0 84 59 127t159 43q73 0 142 -22v13q0 115 -131 115q-64 0 -117 -21q-10 -3 -19 -3q-21 0 -36 14.5t-15 35.5q0 36 33 48q83 31 170 31q118 0 175 -59q57 -57 57 -163v-260q0 -25 -17 -41.5t-42 -16.5
q-26 0 -42.5 15t-16.5 36v20q-64 -77 -172 -77zM262 77q61 0 101 31.5t40 81.5v36q-54 21 -120 21q-59 0 -91.5 -23t-32.5 -65v-2q0 -37 29 -58.5t74 -21.5zM320 590q-102 0 -134 69q-10 20 -10 34q0 17 11.5 28.5t26.5 11.5q24 0 41 -22q11 -38 65 -38q58 0 70 41
q12 19 38 19q15 0 26.5 -11.5t11.5 -28.5q0 -19 -8 -33q-33 -70 -138 -70z" />
    <glyph glyph-name="uni1EB6" unicode="&#x1eb6;" horiz-adv-x="773" 
d="M319 -155q0 27 18.5 45.5t48.5 18.5q27 0 45.5 -18.5t18.5 -45.5q0 -29 -18.5 -48t-45.5 -19q-30 0 -48.5 19t-18.5 48zM42 52q0 10 8 28l260 580q24 50 74 50h6q49 0 73 -50l260 -580q7 -13 7 -26q0 -25 -16.5 -42t-41.5 -17q-42 0 -60 43l-57 131h-340l-59 -135
q-16 -39 -57 -39q-24 0 -40.5 16.5t-16.5 40.5zM262 278h246l-123 283zM386 763q-102 0 -134 69q-10 20 -10 34q0 17 11.5 28.5t26.5 11.5q24 0 41 -22q11 -38 65 -38q58 0 70 41q12 19 38 19q15 0 26.5 -11.5t11.5 -28.5q0 -19 -8 -33q-33 -70 -138 -70z" />
    <glyph glyph-name="uni1EB7" unicode="&#x1eb7;" 
d="M211 -155q0 27 18.5 45.5t48.5 18.5q27 0 45.5 -18.5t18.5 -45.5q0 -29 -18.5 -48t-45.5 -19q-30 0 -48.5 19t-18.5 48zM228 -11q-79 0 -133 43t-54 120v2q0 84 59 127t159 43q73 0 142 -22v13q0 115 -131 115q-64 0 -117 -21q-10 -3 -19 -3q-21 0 -36 14.5t-15 35.5
q0 36 33 48q83 31 170 31q118 0 175 -59q57 -57 57 -163v-260q0 -25 -17 -41.5t-42 -16.5q-26 0 -42.5 15t-16.5 36v20q-64 -77 -172 -77zM262 77q61 0 101 31.5t40 81.5v36q-54 21 -120 21q-59 0 -91.5 -23t-32.5 -65v-2q0 -37 29 -58.5t74 -21.5zM320 590q-102 0 -134 69
q-10 20 -10 34q0 17 11.5 28.5t26.5 11.5q24 0 41 -22q11 -38 65 -38q58 0 70 41q12 19 38 19q15 0 26.5 -11.5t11.5 -28.5q0 -19 -8 -33q-33 -70 -138 -70z" />
    <glyph glyph-name="uni1EB8" unicode="&#x1eb8;" horiz-adv-x="670" 
d="M280 -155q0 27 18.5 45.5t48.5 18.5q27 0 45.5 -18.5t18.5 -45.5q0 -29 -18.5 -48t-45.5 -19q-30 0 -48.5 19t-18.5 48zM564 0h-412q-26 0 -44 18t-18 44v576q0 26 18 44t44 18h407q23 0 39 -16t16 -39t-16 -39t-39 -16h-346v-182h301q23 0 39 -16.5t16 -39.5t-16 -38.5
t-39 -15.5h-301v-188h351q23 0 39 -16t16 -39t-16 -39t-39 -16z" />
    <glyph glyph-name="uni1EB9" unicode="&#x1eb9;" horiz-adv-x="604" 
d="M238 -155q0 27 18.5 45.5t48.5 18.5q27 0 45.5 -18.5t18.5 -45.5q0 -29 -18.5 -48t-45.5 -19q-30 0 -48.5 19t-18.5 48zM167 301h271q-6 61 -41 100t-93 39q-56 0 -92.5 -38t-44.5 -101zM508 58q-78 -70 -190 -70q-116 0 -193.5 76.5t-77.5 197.5v2q0 116 73 195.5
t185 79.5q80 0 139 -40.5t85.5 -98t26.5 -121.5q0 -26 -16.5 -42t-40.5 -16h-331q10 -64 51 -99t101 -35q68 0 125 46q14 11 31 11q20 0 34 -14t14 -35t-16 -37z" />
    <glyph glyph-name="uni1EBA" unicode="&#x1eba;" horiz-adv-x="670" 
d="M368 763h-1q-33 0 -35 27q-2 8 -2 18q-1 7 -1 20q0 25 30 31q36 3 36 21t-24 18q-12 0 -36 -15q-11 -11 -24 -11q-14 0 -24.5 8.5t-10.5 21.5q0 5 6 23q37 37 90 37q44 0 71 -23t27 -59q0 -30 -20.5 -51t-50.5 -28v-13q-4 -25 -31 -25zM152 0q-26 0 -44 18t-18 44v576
q0 26 18 44t44 18h407q23 0 39 -16t16 -39t-16 -39t-39 -16h-346v-182h301q23 0 39 -16.5t16 -39.5t-16 -38.5t-39 -15.5h-301v-188h351q23 0 39 -16t16 -39t-16 -39t-39 -16h-412z" />
    <glyph glyph-name="uni1EBB" unicode="&#x1ebb;" horiz-adv-x="604" 
d="M333 590h-1q-33 0 -35 27q-2 8 -2 18q-1 7 -1 20q0 25 30 31q36 3 36 21t-24 18q-12 0 -36 -15q-11 -11 -24 -11q-14 0 -24.5 8.5t-10.5 21.5q0 5 6 23q37 37 90 37q44 0 71 -23t27 -59q0 -30 -20.5 -51t-50.5 -28v-13q-4 -25 -31 -25zM167 301h271q-6 61 -41 100t-93 39
q-56 0 -92.5 -38t-44.5 -101zM508 58q-78 -70 -190 -70q-116 0 -193.5 76.5t-77.5 197.5v2q0 116 73 195.5t185 79.5q80 0 139 -40.5t85.5 -98t26.5 -121.5q0 -26 -16.5 -42t-40.5 -16h-331q10 -64 51 -99t101 -35q68 0 125 46q14 11 31 11q20 0 34 -14t14 -35t-16 -37z" />
    <glyph glyph-name="uni1EBC" unicode="&#x1ebc;" horiz-adv-x="670" 
d="M276 794l-2 -3q-15 -21 -35 -20q-15 2 -25.5 12.5t-9.5 25.5q2 5 2 11q18 44 38.5 61.5t53.5 16.5q30 -1 66 -22l18 -10q19 -6 23 -7q15 0 22 17q25 25 39 25q15 -2 25.5 -13t10.5 -26l-3 -9q-3 -3 -3 -6q-16 -42 -37.5 -59t-56.5 -15q-23 1 -69 23q-2 2 -6 3t-6 2l-3 3
l-3 2v-1q-13 5 -18 5q-14 0 -21 -16zM152 0q-26 0 -44 18t-18 44v576q0 26 18 44t44 18h407q23 0 39 -16t16 -39t-16 -39t-39 -16h-346v-182h301q23 0 39 -16.5t16 -39.5t-16 -38.5t-39 -15.5h-301v-188h351q23 0 39 -16t16 -39t-16 -39t-39 -16h-412z" />
    <glyph glyph-name="uni1EBD" unicode="&#x1ebd;" horiz-adv-x="604" 
d="M252 626l-2 -3q-15 -21 -35 -20q-15 2 -25.5 12.5t-9.5 25.5q2 5 2 11q18 44 38.5 61.5t53.5 16.5q30 -1 66 -22l18 -10q19 -6 23 -7q15 0 22 17q25 25 39 25q15 -2 25.5 -13t10.5 -26l-3 -9q-3 -3 -3 -6q-16 -42 -37.5 -59t-56.5 -15q-23 1 -69 23q-2 2 -6 3t-6 2
q0 1 -2.5 3t-3.5 2v-1q-13 5 -18 5q-14 0 -21 -16zM167 301h271q-6 61 -41 100t-93 39q-56 0 -92.5 -38t-44.5 -101zM508 58q-78 -70 -190 -70q-116 0 -193.5 76.5t-77.5 197.5v2q0 116 73 195.5t185 79.5q80 0 139 -40.5t85.5 -98t26.5 -121.5q0 -26 -16.5 -42t-40.5 -16
h-331q10 -64 51 -99t101 -35q68 0 125 46q14 11 31 11q20 0 34 -14t14 -35t-16 -37z" />
    <glyph glyph-name="uni1EBE" unicode="&#x1ebe;" horiz-adv-x="670" 
d="M496 879q-30 0 -30 21q0 8 8 22l57 88q18 29 48 29q24 0 48 -12.5t24 -26.5q0 -15 -17 -30l-67 -64q-28 -27 -71 -27zM350 825l-52 -45q-32 -27 -74 -27q-27 0 -27 20q0 10 12 24l66 83q23 29 58 29h36q35 0 58 -29l66 -83q12 -14 12 -24q0 -20 -29 -20q-42 0 -74 27z
M564 0h-412q-26 0 -44 18t-18 44v576q0 26 18 44t44 18h407q23 0 39 -16t16 -39t-16 -39t-39 -16h-346v-182h301q23 0 39 -16.5t16 -39.5t-16 -38.5t-39 -15.5h-301v-188h351q23 0 39 -16t16 -39t-16 -39t-39 -16z" />
    <glyph glyph-name="uni1EBF" unicode="&#x1ebf;" horiz-adv-x="604" 
d="M457 716q-30 0 -30 21q0 8 8 22l57 88q18 29 48 29q24 0 48 -12.5t24 -26.5q0 -15 -17 -30l-67 -64q-28 -27 -71 -27zM311 662l-52 -45q-32 -27 -74 -27q-27 0 -27 20q0 10 12 24l66 83q23 29 58 29h36q35 0 58 -29l66 -83q12 -14 12 -24q0 -20 -29 -20q-42 0 -74 27z
M167 301h271q-6 61 -41 100t-93 39q-56 0 -92.5 -38t-44.5 -101zM508 58q-78 -70 -190 -70q-116 0 -193.5 76.5t-77.5 197.5v2q0 116 73 195.5t185 79.5q80 0 139 -40.5t85.5 -98t26.5 -121.5q0 -26 -16.5 -42t-40.5 -16h-331q10 -64 51 -99t101 -35q68 0 125 46
q14 11 31 11q20 0 34 -14t14 -35t-16 -37z" />
    <glyph glyph-name="uni1EC0" unicode="&#x1ec0;" horiz-adv-x="670" 
d="M541 879q-43 0 -70 27l-68 64q-17 15 -17 30q0 14 23.5 26.5t48.5 12.5q30 0 48 -29l57 -88q9 -16 9 -22q0 -21 -31 -21zM350 825l-52 -45q-32 -27 -74 -27q-27 0 -27 20q0 10 12 24l66 83q23 29 58 29h36q35 0 58 -29l66 -83q12 -14 12 -24q0 -20 -29 -20q-42 0 -74 27z
M564 0h-412q-26 0 -44 18t-18 44v576q0 26 18 44t44 18h407q23 0 39 -16t16 -39t-16 -39t-39 -16h-346v-182h301q23 0 39 -16.5t16 -39.5t-16 -38.5t-39 -15.5h-301v-188h351q23 0 39 -16t16 -39t-16 -39t-39 -16z" />
    <glyph glyph-name="uni1EC1" unicode="&#x1ec1;" horiz-adv-x="604" 
d="M502 716q-43 0 -70 27l-68 64q-17 15 -17 30q0 14 23.5 26.5t48.5 12.5q30 0 48 -29l57 -88q9 -16 9 -22q0 -21 -31 -21zM311 662l-52 -45q-32 -27 -74 -27q-27 0 -27 20q0 10 12 24l66 83q23 29 58 29h36q35 0 58 -29l66 -83q12 -14 12 -24q0 -20 -29 -20q-42 0 -74 27z
M167 301h271q-6 61 -41 100t-93 39q-56 0 -92.5 -38t-44.5 -101zM508 58q-78 -70 -190 -70q-116 0 -193.5 76.5t-77.5 197.5v2q0 116 73 195.5t185 79.5q80 0 139 -40.5t85.5 -98t26.5 -121.5q0 -26 -16.5 -42t-40.5 -16h-331q10 -64 51 -99t101 -35q68 0 125 46
q14 11 31 11q20 0 34 -14t14 -35t-16 -37z" />
    <glyph glyph-name="uni1EC2" unicode="&#x1ec2;" horiz-adv-x="670" 
d="M495 879h-1q-33 0 -35 27q-2 8 -2 18q-1 7 -1 20q0 25 30 31q36 3 36 21t-24 18q-12 0 -36 -15q-11 -11 -24 -11q-14 0 -24.5 8.5t-10.5 21.5q0 5 6 23q37 37 90 37q44 0 71 -23t27 -59q0 -30 -20.5 -51t-50.5 -28v-13q-4 -25 -31 -25zM350 825l-52 -45q-32 -27 -74 -27
q-27 0 -27 20q0 10 12 24l66 83q23 29 58 29h36q35 0 58 -29l66 -83q12 -14 12 -24q0 -20 -29 -20q-42 0 -74 27zM152 0q-26 0 -44 18t-18 44v576q0 26 18 44t44 18h407q23 0 39 -16t16 -39t-16 -39t-39 -16h-346v-182h301q23 0 39 -16.5t16 -39.5t-16 -38.5t-39 -15.5h-301
v-188h351q23 0 39 -16t16 -39t-16 -39t-39 -16h-412z" />
    <glyph glyph-name="uni1EC3" unicode="&#x1ec3;" horiz-adv-x="604" 
d="M456 716h-1q-33 0 -35 27q-2 8 -2 18q-1 7 -1 20q0 25 30 31q36 3 36 21t-24 18q-12 0 -36 -15q-11 -11 -24 -11q-14 0 -24.5 8.5t-10.5 21.5q0 5 6 23q37 37 90 37q44 0 71 -23t27 -59q0 -30 -20.5 -51t-50.5 -28v-13q-4 -25 -31 -25zM311 662l-52 -45q-32 -27 -74 -27
q-27 0 -27 20q0 10 12 24l66 83q23 29 58 29h36q35 0 58 -29l66 -83q12 -14 12 -24q0 -20 -29 -20q-42 0 -74 27zM167 301h271q-6 61 -41 100t-93 39q-56 0 -92.5 -38t-44.5 -101zM508 58q-78 -70 -190 -70q-116 0 -193.5 76.5t-77.5 197.5v2q0 116 73 195.5t185 79.5
q80 0 139 -40.5t85.5 -98t26.5 -121.5q0 -26 -16.5 -42t-40.5 -16h-331q10 -64 51 -99t101 -35q68 0 125 46q14 11 31 11q20 0 34 -14t14 -35t-16 -37z" />
    <glyph glyph-name="uni1EC4" unicode="&#x1ec4;" horiz-adv-x="670" 
d="M279 963l-2 -3q-15 -21 -35 -20q-15 2 -25.5 12.5t-9.5 25.5q2 5 2 11q18 44 38.5 61.5t53.5 16.5q30 -1 66 -22l18 -10q20 -7 23 -7q15 0 22 17q25 25 39 25q15 -2 25.5 -13t10.5 -26l-3 -9q-3 -3 -3 -6q-16 -42 -37.5 -59t-56.5 -15q-23 1 -69 23q-2 1 -6 2t-6 3
q-1 0 -3.5 2t-2.5 3v-1q-13 5 -18 5q-14 0 -21 -16zM350 825l-52 -45q-32 -27 -74 -27q-27 0 -27 20q0 10 12 24l66 83q23 29 58 29h36q35 0 58 -29l66 -83q12 -14 12 -24q0 -20 -29 -20q-42 0 -74 27zM152 0q-26 0 -44 18t-18 44v576q0 26 18 44t44 18h407q23 0 39 -16
t16 -39t-16 -39t-39 -16h-346v-182h301q23 0 39 -16.5t16 -39.5t-16 -38.5t-39 -15.5h-301v-188h351q23 0 39 -16t16 -39t-16 -39t-39 -16h-412z" />
    <glyph glyph-name="uni1EC5" unicode="&#x1ec5;" horiz-adv-x="604" 
d="M240 800l-2 -3q-15 -21 -35 -20q-15 2 -25.5 12.5t-9.5 25.5q2 5 2 11q18 44 38.5 61.5t53.5 16.5q30 -1 66 -22l18 -10q19 -6 23 -7q15 0 22 17q25 25 39 25q15 -2 25.5 -13t10.5 -26l-3 -9q-3 -3 -3 -6q-16 -42 -37.5 -59t-56.5 -15q-23 1 -69 23q-2 2 -6 3t-6 2l-3 3
t-3 2v-1q-13 5 -18 5q-14 0 -21 -16zM311 662l-52 -45q-32 -27 -74 -27q-27 0 -27 20q0 10 12 24l66 83q23 29 58 29h36q35 0 58 -29l66 -83q12 -14 12 -24q0 -20 -29 -20q-42 0 -74 27zM167 301h271q-6 61 -41 100t-93 39q-56 0 -92.5 -38t-44.5 -101zM508 58
q-78 -70 -190 -70q-116 0 -193.5 76.5t-77.5 197.5v2q0 116 73 195.5t185 79.5q80 0 139 -40.5t85.5 -98t26.5 -121.5q0 -26 -16.5 -42t-40.5 -16h-331q10 -64 51 -99t101 -35q68 0 125 46q14 11 31 11q20 0 34 -14t14 -35t-16 -37z" />
    <glyph glyph-name="uni1EC6" unicode="&#x1ec6;" horiz-adv-x="670" 
d="M280 -155q0 27 18.5 45.5t48.5 18.5q27 0 45.5 -18.5t18.5 -45.5q0 -29 -18.5 -48t-45.5 -19q-30 0 -48.5 19t-18.5 48zM350 825l-52 -45q-32 -27 -74 -27q-27 0 -27 20q0 10 12 24l66 83q23 29 58 29h36q35 0 58 -29l66 -83q12 -14 12 -24q0 -20 -29 -20q-42 0 -74 27z
M564 0h-412q-26 0 -44 18t-18 44v576q0 26 18 44t44 18h407q23 0 39 -16t16 -39t-16 -39t-39 -16h-346v-182h301q23 0 39 -16.5t16 -39.5t-16 -38.5t-39 -15.5h-301v-188h351q23 0 39 -16t16 -39t-16 -39t-39 -16z" />
    <glyph glyph-name="uni1EC7" unicode="&#x1ec7;" horiz-adv-x="604" 
d="M238 -155q0 27 18.5 45.5t48.5 18.5q27 0 45.5 -18.5t18.5 -45.5q0 -29 -18.5 -48t-45.5 -19q-30 0 -48.5 19t-18.5 48zM311 662l-52 -45q-32 -27 -74 -27q-27 0 -27 20q0 10 12 24l66 83q23 29 58 29h36q35 0 58 -29l66 -83q12 -14 12 -24q0 -20 -29 -20q-42 0 -74 27z
M167 301h271q-6 61 -41 100t-93 39q-56 0 -92.5 -38t-44.5 -101zM508 58q-78 -70 -190 -70q-116 0 -193.5 76.5t-77.5 197.5v2q0 116 73 195.5t185 79.5q80 0 139 -40.5t85.5 -98t26.5 -121.5q0 -26 -16.5 -42t-40.5 -16h-331q10 -64 51 -99t101 -35q68 0 125 46
q14 11 31 11q20 0 34 -14t14 -35t-16 -37z" />
    <glyph glyph-name="uni1EC8" unicode="&#x1ec8;" horiz-adv-x="317" 
d="M168 763h-1q-33 0 -35 27q-2 8 -2 18q-1 7 -1 20q0 25 30 31q36 3 36 21t-24 18q-12 0 -36 -15q-11 -11 -24 -11q-14 0 -24.5 8.5t-10.5 21.5q0 5 6 23q37 37 90 37q44 0 71 -23t27 -59q0 -30 -20.5 -51t-50.5 -28v-13q-4 -25 -31 -25zM97 56v588q0 26 18 43.5t44 17.5
t43.5 -17.5t17.5 -43.5v-588q0 -26 -17.5 -43.5t-43.5 -17.5t-44 17.5t-18 43.5z" />
    <glyph glyph-name="uni1EC9" unicode="&#x1ec9;" horiz-adv-x="286" 
d="M83 55v418q0 26 17 43.5t43 17.5t43.5 -17.5t17.5 -43.5v-418q0 -26 -17.5 -43t-43.5 -17q-25 0 -42.5 17t-17.5 43zM153 590h-1q-33 0 -35 27q-2 8 -2 18q-1 7 -1 20q0 25 30 31q36 3 36 21t-24 18q-12 0 -36 -15q-11 -11 -24 -11q-14 0 -24.5 8.5t-10.5 21.5q0 5 6 23
q37 37 90 37q44 0 71 -23t27 -59q0 -30 -20.5 -51t-50.5 -28v-13q-4 -25 -31 -25z" />
    <glyph glyph-name="uni1ECA" unicode="&#x1eca;" horiz-adv-x="317" 
d="M93 -155q0 27 18.5 45.5t48.5 18.5q27 0 45.5 -18.5t18.5 -45.5q0 -29 -18.5 -48t-45.5 -19q-30 0 -48.5 19t-18.5 48zM97 56v588q0 26 18 43.5t44 17.5t43.5 -17.5t17.5 -43.5v-588q0 -26 -17.5 -43.5t-43.5 -17.5t-44 17.5t-18 43.5z" />
    <glyph glyph-name="uni1ECB" unicode="&#x1ecb;" horiz-adv-x="286" 
d="M78 -155q0 27 18.5 45.5t48.5 18.5q27 0 45.5 -18.5t18.5 -45.5q0 -29 -18.5 -48t-45.5 -19q-30 0 -48.5 19t-18.5 48zM83 55v418q0 26 17 43.5t43 17.5t43.5 -17.5t17.5 -43.5v-418q0 -26 -17.5 -43t-43.5 -17q-25 0 -42.5 17t-17.5 43zM78 681q0 27 18.5 45.5
t48.5 18.5q27 0 45.5 -18.5t18.5 -45.5q0 -29 -18.5 -48t-45.5 -19q-30 0 -48.5 19t-18.5 48z" />
    <glyph glyph-name="uni1ECC" unicode="&#x1ecc;" horiz-adv-x="850" 
d="M360 -155q0 27 18.5 45.5t48.5 18.5q27 0 45.5 -18.5t18.5 -45.5q0 -29 -18.5 -48t-45.5 -19q-30 0 -48.5 19t-18.5 48zM424 -12q-159 0 -262 105t-103 255v2q0 150 104.5 256t262.5 106q159 0 262 -105t103 -255v-2q0 -150 -104.5 -256t-262.5 -106zM426 102
q103 0 169.5 71t66.5 175v2q0 104 -67.5 176.5t-170.5 72.5t-169.5 -71.5t-66.5 -175.5v-2q0 -104 67.5 -176t170.5 -72z" />
    <glyph glyph-name="uni1ECD" unicode="&#x1ecd;" horiz-adv-x="657" 
d="M263 -155q0 27 18.5 45.5t48.5 18.5q27 0 45.5 -18.5t18.5 -45.5q0 -29 -18.5 -48t-45.5 -19q-30 0 -48.5 19t-18.5 48zM327 -12q-120 0 -200 79.5t-80 193.5v2q0 115 81 195.5t201 80.5q121 0 201 -79.5t80 -194.5v-2q0 -113 -81 -194t-202 -81zM329 94q72 0 116 48.5
t44 118.5v2q0 71 -46 120.5t-116 49.5q-71 0 -115 -48.5t-44 -119.5v-2q0 -70 46 -119.5t115 -49.5z" />
    <glyph glyph-name="uni1ECE" unicode="&#x1ece;" horiz-adv-x="850" 
d="M457 763h-1q-33 0 -35 27q-2 8 -2 18q-1 7 -1 20q0 25 30 31q36 3 36 21t-24 18q-12 0 -36 -15q-11 -11 -24 -11q-14 0 -24.5 8.5t-10.5 21.5q0 5 6 23q37 37 90 37q44 0 71 -23t27 -59q0 -30 -20.5 -51t-50.5 -28v-13q-4 -25 -31 -25zM424 -12q-159 0 -262 105t-103 255
v2q0 150 104.5 256t262.5 106q159 0 262 -105t103 -255v-2q0 -150 -104.5 -256t-262.5 -106zM426 102q103 0 169.5 71t66.5 175v2q0 104 -67.5 176.5t-170.5 72.5t-169.5 -71.5t-66.5 -175.5v-2q0 -104 67.5 -176t170.5 -72z" />
    <glyph glyph-name="uni1ECF" unicode="&#x1ecf;" horiz-adv-x="657" 
d="M352 590h-1q-33 0 -35 27q-2 8 -2 18q-1 7 -1 20q0 25 30 31q36 3 36 21t-24 18q-12 0 -36 -15q-11 -11 -24 -11q-14 0 -24.5 8.5t-10.5 21.5q0 5 6 23q37 37 90 37q44 0 71 -23t27 -59q0 -30 -20.5 -51t-50.5 -28v-13q-4 -25 -31 -25zM327 -12q-120 0 -200 79.5
t-80 193.5v2q0 115 81 195.5t201 80.5q121 0 201 -79.5t80 -194.5v-2q0 -113 -81 -194t-202 -81zM329 94q72 0 116 48.5t44 118.5v2q0 71 -46 120.5t-116 49.5q-71 0 -115 -48.5t-44 -119.5v-2q0 -70 46 -119.5t115 -49.5z" />
    <glyph glyph-name="uni1ED0" unicode="&#x1ed0;" horiz-adv-x="850" 
d="M572 889q-30 0 -30 21q0 8 8 22l57 88q18 29 48 29q24 0 48 -12.5t24 -26.5q0 -15 -17 -30l-67 -64q-28 -27 -71 -27zM426 835l-52 -45q-32 -27 -74 -27q-27 0 -27 20q0 10 12 24l66 83q23 29 58 29h36q35 0 58 -29l66 -83q12 -14 12 -24q0 -20 -29 -20q-42 0 -74 27z
M424 -12q-159 0 -262 105t-103 255v2q0 150 104.5 256t262.5 106q159 0 262 -105t103 -255v-2q0 -150 -104.5 -256t-262.5 -106zM426 102q103 0 169.5 71t66.5 175v2q0 104 -67.5 176.5t-170.5 72.5t-169.5 -71.5t-66.5 -175.5v-2q0 -104 67.5 -176t170.5 -72z" />
    <glyph glyph-name="uni1ED1" unicode="&#x1ed1;" horiz-adv-x="657" 
d="M477 716q-30 0 -30 21q0 8 8 22l57 88q18 29 48 29q24 0 48 -12.5t24 -26.5q0 -15 -17 -30l-67 -64q-28 -27 -71 -27zM331 662l-52 -45q-32 -27 -74 -27q-27 0 -27 20q0 10 12 24l66 83q23 29 58 29h36q35 0 58 -29l66 -83q12 -14 12 -24q0 -20 -29 -20q-42 0 -74 27z
M327 -12q-120 0 -200 79.5t-80 193.5v2q0 115 81 195.5t201 80.5q121 0 201 -79.5t80 -194.5v-2q0 -113 -81 -194t-202 -81zM329 94q72 0 116 48.5t44 118.5v2q0 71 -46 120.5t-116 49.5q-71 0 -115 -48.5t-44 -119.5v-2q0 -70 46 -119.5t115 -49.5z" />
    <glyph glyph-name="uni1ED2" unicode="&#x1ed2;" horiz-adv-x="850" 
d="M617 889q-43 0 -70 27l-68 64q-17 15 -17 30q0 14 23.5 26.5t48.5 12.5q30 0 48 -29l57 -88q9 -16 9 -22q0 -21 -31 -21zM426 835l-52 -45q-32 -27 -74 -27q-27 0 -27 20q0 10 12 24l66 83q23 29 58 29h36q35 0 58 -29l66 -83q12 -14 12 -24q0 -20 -29 -20q-42 0 -74 27z
M424 -12q-159 0 -262 105t-103 255v2q0 150 104.5 256t262.5 106q159 0 262 -105t103 -255v-2q0 -150 -104.5 -256t-262.5 -106zM426 102q103 0 169.5 71t66.5 175v2q0 104 -67.5 176.5t-170.5 72.5t-169.5 -71.5t-66.5 -175.5v-2q0 -104 67.5 -176t170.5 -72z" />
    <glyph glyph-name="uni1ED3" unicode="&#x1ed3;" horiz-adv-x="657" 
d="M522 716q-43 0 -70 27l-68 64q-17 15 -17 30q0 14 23.5 26.5t48.5 12.5q30 0 48 -29l57 -88q9 -16 9 -22q0 -21 -31 -21zM331 662l-52 -45q-32 -27 -74 -27q-27 0 -27 20q0 10 12 24l66 83q23 29 58 29h36q35 0 58 -29l66 -83q12 -14 12 -24q0 -20 -29 -20q-42 0 -74 27z
M327 -12q-120 0 -200 79.5t-80 193.5v2q0 115 81 195.5t201 80.5q121 0 201 -79.5t80 -194.5v-2q0 -113 -81 -194t-202 -81zM329 94q72 0 116 48.5t44 118.5v2q0 71 -46 120.5t-116 49.5q-71 0 -115 -48.5t-44 -119.5v-2q0 -70 46 -119.5t115 -49.5z" />
    <glyph glyph-name="uni1ED4" unicode="&#x1ed4;" horiz-adv-x="850" 
d="M571 889h-1q-33 0 -35 27q-2 8 -2 18q-1 7 -1 20q0 25 30 31q36 3 36 21t-24 18q-12 0 -36 -15q-11 -11 -24 -11q-14 0 -24.5 8.5t-10.5 21.5q0 5 6 23q37 37 90 37q44 0 71 -23t27 -59q0 -30 -20.5 -51t-50.5 -28v-13q-4 -25 -31 -25zM426 835l-52 -45q-32 -27 -74 -27
q-27 0 -27 20q0 10 12 24l66 83q23 29 58 29h36q35 0 58 -29l66 -83q12 -14 12 -24q0 -20 -29 -20q-42 0 -74 27zM424 -12q-159 0 -262 105t-103 255v2q0 150 104.5 256t262.5 106q159 0 262 -105t103 -255v-2q0 -150 -104.5 -256t-262.5 -106zM426 102q103 0 169.5 71
t66.5 175v2q0 104 -67.5 176.5t-170.5 72.5t-169.5 -71.5t-66.5 -175.5v-2q0 -104 67.5 -176t170.5 -72z" />
    <glyph glyph-name="uni1ED5" unicode="&#x1ed5;" horiz-adv-x="657" 
d="M476 716h-1q-33 0 -35 27q-2 8 -2 18q-1 7 -1 20q0 25 30 31q36 3 36 21t-24 18q-12 0 -36 -15q-11 -11 -24 -11q-14 0 -24.5 8.5t-10.5 21.5q0 5 6 23q37 37 90 37q44 0 71 -23t27 -59q0 -30 -20.5 -51t-50.5 -28v-13q-4 -25 -31 -25zM331 662l-52 -45q-32 -27 -74 -27
q-27 0 -27 20q0 10 12 24l66 83q23 29 58 29h36q35 0 58 -29l66 -83q12 -14 12 -24q0 -20 -29 -20q-42 0 -74 27zM327 -12q-120 0 -200 79.5t-80 193.5v2q0 115 81 195.5t201 80.5q121 0 201 -79.5t80 -194.5v-2q0 -113 -81 -194t-202 -81zM329 94q72 0 116 48.5t44 118.5v2
q0 71 -46 120.5t-116 49.5q-71 0 -115 -48.5t-44 -119.5v-2q0 -70 46 -119.5t115 -49.5z" />
    <glyph glyph-name="uni1ED6" unicode="&#x1ed6;" horiz-adv-x="850" 
d="M355 973l-2 -3q-15 -21 -35 -20q-15 2 -25.5 12.5t-9.5 25.5q2 5 2 11q18 44 38.5 61.5t53.5 16.5q30 -1 66 -22l18 -10q19 -7 23 -7q15 0 22 17q25 25 39 25q15 -2 25.5 -13t10.5 -26l-3 -9q-3 -3 -3 -6q-16 -42 -37.5 -59t-56.5 -15q-23 1 -69 23q-2 2 -6 2.5t-6 2.5
l-3 2q-3 2 -3 3v-1q-13 5 -18 5q-14 0 -21 -16zM426 835l-52 -45q-32 -27 -74 -27q-27 0 -27 20q0 10 12 24l66 83q23 29 58 29h36q35 0 58 -29l66 -83q12 -14 12 -24q0 -20 -29 -20q-42 0 -74 27zM424 -12q-159 0 -262 105t-103 255v2q0 150 104.5 256t262.5 106
q159 0 262 -105t103 -255v-2q0 -150 -104.5 -256t-262.5 -106zM426 102q103 0 169.5 71t66.5 175v2q0 104 -67.5 176.5t-170.5 72.5t-169.5 -71.5t-66.5 -175.5v-2q0 -104 67.5 -176t170.5 -72z" />
    <glyph glyph-name="uni1ED7" unicode="&#x1ed7;" horiz-adv-x="657" 
d="M260 800l-2 -3q-15 -21 -35 -20q-15 2 -25.5 12.5t-9.5 25.5q2 5 2 11q18 44 38.5 61.5t53.5 16.5q30 -1 66 -22l18 -10q20 -6 23 -7q15 0 22 17q25 25 39 25q15 -2 25.5 -13t10.5 -26l-3 -9q-3 -3 -3 -6q-16 -42 -37.5 -59t-56.5 -15q-23 1 -69 23q-2 2 -6 3t-6 2l-3 3
t-3 2v-1q-13 5 -18 5q-14 0 -21 -16zM331 662l-52 -45q-32 -27 -74 -27q-27 0 -27 20q0 10 12 24l66 83q23 29 58 29h36q35 0 58 -29l66 -83q12 -14 12 -24q0 -20 -29 -20q-42 0 -74 27zM327 -12q-120 0 -200 79.5t-80 193.5v2q0 115 81 195.5t201 80.5q121 0 201 -79.5
t80 -194.5v-2q0 -113 -81 -194t-202 -81zM329 94q72 0 116 48.5t44 118.5v2q0 71 -46 120.5t-116 49.5q-71 0 -115 -48.5t-44 -119.5v-2q0 -70 46 -119.5t115 -49.5z" />
    <glyph glyph-name="uni1ED8" unicode="&#x1ed8;" horiz-adv-x="850" 
d="M426 835l-52 -45q-32 -27 -74 -27q-27 0 -27 20q0 10 12 24l66 83q23 29 58 29h36q35 0 58 -29l66 -83q12 -14 12 -24q0 -20 -29 -20q-42 0 -74 27zM424 -12q-159 0 -262 105t-103 255v2q0 150 104.5 256t262.5 106q159 0 262 -105t103 -255v-2q0 -150 -104.5 -256
t-262.5 -106zM426 102q103 0 169.5 71t66.5 175v2q0 104 -67.5 176.5t-170.5 72.5t-169.5 -71.5t-66.5 -175.5v-2q0 -104 67.5 -176t170.5 -72zM360 -155q0 27 18.5 45.5t48.5 18.5q27 0 45.5 -18.5t18.5 -45.5q0 -29 -18.5 -48t-45.5 -19q-30 0 -48.5 19t-18.5 48z" />
    <glyph glyph-name="uni1ED9" unicode="&#x1ed9;" horiz-adv-x="657" 
d="M263 -155q0 27 18.5 45.5t48.5 18.5q27 0 45.5 -18.5t18.5 -45.5q0 -29 -18.5 -48t-45.5 -19q-30 0 -48.5 19t-18.5 48zM331 662l-52 -45q-32 -27 -74 -27q-27 0 -27 20q0 10 12 24l66 83q23 29 58 29h36q35 0 58 -29l66 -83q12 -14 12 -24q0 -20 -29 -20q-42 0 -74 27z
M327 -12q-120 0 -200 79.5t-80 193.5v2q0 115 81 195.5t201 80.5q121 0 201 -79.5t80 -194.5v-2q0 -113 -81 -194t-202 -81zM329 94q72 0 116 48.5t44 118.5v2q0 71 -46 120.5t-116 49.5q-71 0 -115 -48.5t-44 -119.5v-2q0 -70 46 -119.5t115 -49.5z" />
    <glyph glyph-name="uni1EDA" unicode="&#x1eda;" horiz-adv-x="850" 
d="M428 763q-30 0 -30 21q0 8 8 22l57 88q18 29 48 29q24 0 48 -12.5t24 -26.5q0 -15 -17 -30l-67 -64q-28 -27 -71 -27zM424 -12q-159 0 -262 105t-103 255v2q0 150 104.5 256t262.5 106q32 0 74 -7q12 0 39 -0.5t49 -0.5l23 -1q18 0 28.5 3t15 11.5t5.5 16t1 24.5v3
q0 21 13.5 34t39.5 13q20 0 33 -13.5t13 -33.5v-1q0 -60 -21 -91t-76 -39q128 -109 128 -278v-2q0 -150 -104.5 -256t-262.5 -106zM426 102q103 0 169.5 71t66.5 175v2q0 104 -67.5 176.5t-170.5 72.5t-169.5 -71.5t-66.5 -175.5v-2q0 -104 67.5 -176t170.5 -72z" />
    <glyph glyph-name="uni1EDB" unicode="&#x1edb;" horiz-adv-x="657" 
d="M327 590q-30 0 -30 21q0 8 8 22l57 88q18 29 48 29q24 0 48 -12.5t24 -26.5q0 -15 -17 -30l-67 -64q-28 -27 -71 -27zM327 -12q-120 0 -200 79.5t-80 193.5v2q0 115 81 195.5t201 80.5q31 0 60 -6q8 0 26 -0.5t33 -0.5l16 -1q18 0 28.5 3t15 11.5t5.5 16t1 24.5v3
q0 21 13.5 34t39.5 13q20 0 33 -13.5t13 -33.5v-1q0 -57 -18.5 -88t-66.5 -40q82 -82 82 -195v-2q0 -113 -81 -194t-202 -81zM329 94q72 0 116 48.5t44 118.5v2q0 71 -46 120.5t-116 49.5q-71 0 -115 -48.5t-44 -119.5v-2q0 -70 46 -119.5t115 -49.5z" />
    <glyph glyph-name="uni1EDC" unicode="&#x1edc;" horiz-adv-x="850" 
d="M474 763q-43 0 -70 27l-68 64q-17 15 -17 30q0 14 23.5 26.5t48.5 12.5q30 0 48 -29l57 -88q9 -16 9 -22q0 -21 -31 -21zM424 -12q-159 0 -262 105t-103 255v2q0 150 104.5 256t262.5 106q32 0 74 -7q12 0 39 -0.5t49 -0.5l23 -1q18 0 28.5 3t15 11.5t5.5 16t1 24.5v3
q0 21 13.5 34t39.5 13q20 0 33 -13.5t13 -33.5v-1q0 -60 -21 -91t-76 -39q128 -109 128 -278v-2q0 -150 -104.5 -256t-262.5 -106zM426 102q103 0 169.5 71t66.5 175v2q0 104 -67.5 176.5t-170.5 72.5t-169.5 -71.5t-66.5 -175.5v-2q0 -104 67.5 -176t170.5 -72z" />
    <glyph glyph-name="uni1EDD" unicode="&#x1edd;" horiz-adv-x="657" 
d="M372 590q-43 0 -70 27l-68 64q-17 15 -17 30q0 14 23.5 26.5t48.5 12.5q30 0 48 -29l57 -88q9 -16 9 -22q0 -21 -31 -21zM327 -12q-120 0 -200 79.5t-80 193.5v2q0 115 81 195.5t201 80.5q31 0 60 -6q8 0 26 -0.5t33 -0.5l16 -1q18 0 28.5 3t15 11.5t5.5 16t1 24.5v3
q0 21 13.5 34t39.5 13q20 0 33 -13.5t13 -33.5v-1q0 -57 -18.5 -88t-66.5 -40q82 -82 82 -195v-2q0 -113 -81 -194t-202 -81zM329 94q72 0 116 48.5t44 118.5v2q0 71 -46 120.5t-116 49.5q-71 0 -115 -48.5t-44 -119.5v-2q0 -70 46 -119.5t115 -49.5z" />
    <glyph glyph-name="uni1EDE" unicode="&#x1ede;" horiz-adv-x="850" 
d="M457 763h-1q-33 0 -35 27q-2 8 -2 18q-1 7 -1 20q0 25 30 31q36 3 36 21t-24 18q-12 0 -36 -15q-11 -11 -24 -11q-14 0 -24.5 8.5t-10.5 21.5q0 5 6 23q37 37 90 37q44 0 71 -23t27 -59q0 -30 -20.5 -51t-50.5 -28v-13q-4 -25 -31 -25zM424 -12q-159 0 -262 105t-103 255
v2q0 150 104.5 256t262.5 106q32 0 74 -7q12 0 39 -0.5t49 -0.5l23 -1q18 0 28.5 3t15 11.5t5.5 16t1 24.5v3q0 21 13.5 34t39.5 13q20 0 33 -13.5t13 -33.5v-1q0 -60 -21 -91t-76 -39q128 -109 128 -278v-2q0 -150 -104.5 -256t-262.5 -106zM426 102q103 0 169.5 71
t66.5 175v2q0 104 -67.5 176.5t-170.5 72.5t-169.5 -71.5t-66.5 -175.5v-2q0 -104 67.5 -176t170.5 -72z" />
    <glyph glyph-name="uni1EDF" unicode="&#x1edf;" horiz-adv-x="657" 
d="M352 590h-1q-33 0 -35 27q-2 8 -2 18q-1 7 -1 20q0 25 30 31q36 3 36 21t-24 18q-12 0 -36 -15q-11 -11 -24 -11q-14 0 -24.5 8.5t-10.5 21.5q0 5 6 23q37 37 90 37q44 0 71 -23t27 -59q0 -30 -20.5 -51t-50.5 -28v-13q-4 -25 -31 -25zM327 -12q-120 0 -200 79.5
t-80 193.5v2q0 115 81 195.5t201 80.5q31 0 60 -6q8 0 26 -0.5t33 -0.5l16 -1q18 0 28.5 3t15 11.5t5.5 16t1 24.5v3q0 21 13.5 34t39.5 13q20 0 33 -13.5t13 -33.5v-1q0 -57 -18.5 -88t-66.5 -40q82 -82 82 -195v-2q0 -113 -81 -194t-202 -81zM329 94q72 0 116 48.5
t44 118.5v2q0 71 -46 120.5t-116 49.5q-71 0 -115 -48.5t-44 -119.5v-2q0 -70 46 -119.5t115 -49.5z" />
    <glyph glyph-name="uni1EE0" unicode="&#x1ee0;" horiz-adv-x="850" 
d="M357 794l-2 -3q-15 -21 -35 -20q-15 2 -25.5 12.5t-9.5 25.5q2 5 2 11q18 44 38.5 61.5t53.5 16.5q30 -1 66 -22l18 -10q20 -6 23 -7q15 0 22 17q25 25 39 25q15 -2 25.5 -13t10.5 -26l-3 -9q-3 -3 -3 -6q-16 -42 -37.5 -59t-56.5 -15q-23 1 -69 23q-2 2 -6 3t-6 2
q-1 1 -4 3l-2 2v-1q-13 5 -18 5q-14 0 -21 -16zM424 -12q-159 0 -262 105t-103 255v2q0 150 104.5 256t262.5 106q32 0 74 -7q12 0 39 -0.5t49 -0.5l23 -1q18 0 28.5 3t15 11.5t5.5 16t1 24.5v3q0 21 13.5 34t39.5 13q20 0 33 -13.5t13 -33.5v-1q0 -60 -21 -91t-76 -39
q128 -109 128 -278v-2q0 -150 -104.5 -256t-262.5 -106zM426 102q103 0 169.5 71t66.5 175v2q0 104 -67.5 176.5t-170.5 72.5t-169.5 -71.5t-66.5 -175.5v-2q0 -104 67.5 -176t170.5 -72z" />
    <glyph glyph-name="uni1EE1" unicode="&#x1ee1;" horiz-adv-x="657" 
d="M269 626l-2 -3q-15 -21 -35 -20q-15 2 -25.5 12.5t-9.5 25.5q2 5 2 11q18 44 38.5 61.5t53.5 16.5q30 -1 66 -22l18 -10q19 -6 23 -7q15 0 22 17q25 25 39 25q15 -2 25.5 -13t10.5 -26l-3 -9q-3 -3 -3 -6q-16 -42 -37.5 -59t-56.5 -15q-23 1 -69 23q-2 2 -6 3t-6 2
q0 1 -3 3l-3 2v-1q-13 5 -18 5q-14 0 -21 -16zM327 -12q-120 0 -200 79.5t-80 193.5v2q0 115 81 195.5t201 80.5q31 0 60 -6q8 0 26 -0.5t33 -0.5l16 -1q18 0 28.5 3t15 11.5t5.5 16t1 24.5v3q0 21 13.5 34t39.5 13q20 0 33 -13.5t13 -33.5v-1q0 -57 -18.5 -88t-66.5 -40
q82 -82 82 -195v-2q0 -113 -81 -194t-202 -81zM329 94q72 0 116 48.5t44 118.5v2q0 71 -46 120.5t-116 49.5q-71 0 -115 -48.5t-44 -119.5v-2q0 -70 46 -119.5t115 -49.5z" />
    <glyph glyph-name="uni1EE2" unicode="&#x1ee2;" horiz-adv-x="850" 
d="M360 -155q0 27 18.5 45.5t48.5 18.5q27 0 45.5 -18.5t18.5 -45.5q0 -29 -18.5 -48t-45.5 -19q-30 0 -48.5 19t-18.5 48zM424 -12q-159 0 -262 105t-103 255v2q0 150 104.5 256t262.5 106q32 0 74 -7q12 0 39 -0.5t49 -0.5l23 -1q18 0 28.5 3t15 11.5t5.5 16t1 24.5v3
q0 21 13.5 34t39.5 13q20 0 33 -13.5t13 -33.5v-1q0 -60 -21 -91t-76 -39q128 -109 128 -278v-2q0 -150 -104.5 -256t-262.5 -106zM426 102q103 0 169.5 71t66.5 175v2q0 104 -67.5 176.5t-170.5 72.5t-169.5 -71.5t-66.5 -175.5v-2q0 -104 67.5 -176t170.5 -72z" />
    <glyph glyph-name="uni1EE3" unicode="&#x1ee3;" horiz-adv-x="657" 
d="M263 -155q0 27 18.5 45.5t48.5 18.5q27 0 45.5 -18.5t18.5 -45.5q0 -29 -18.5 -48t-45.5 -19q-30 0 -48.5 19t-18.5 48zM327 -12q-120 0 -200 79.5t-80 193.5v2q0 115 81 195.5t201 80.5q31 0 60 -6q8 0 26 -0.5t33 -0.5l16 -1q18 0 28.5 3t15 11.5t5.5 16t1 24.5v3
q0 21 13.5 34t39.5 13q20 0 33 -13.5t13 -33.5v-1q0 -57 -18.5 -88t-66.5 -40q82 -82 82 -195v-2q0 -113 -81 -194t-202 -81zM329 94q72 0 116 48.5t44 118.5v2q0 71 -46 120.5t-116 49.5q-71 0 -115 -48.5t-44 -119.5v-2q0 -70 46 -119.5t115 -49.5z" />
    <glyph glyph-name="uni1EE4" unicode="&#x1ee4;" horiz-adv-x="757" 
d="M377 -11q-139 0 -218.5 79.5t-79.5 228.5v347q0 26 18 43.5t44 17.5t43.5 -17.5t17.5 -43.5v-342q0 -97 46.5 -148t130.5 -51q83 0 129.5 49.5t46.5 144.5v347q0 26 18 43.5t44 17.5t43.5 -17.5t17.5 -43.5v-341q0 -153 -80 -233.5t-221 -80.5zM310 -155q0 27 18.5 45.5
t48.5 18.5q27 0 45.5 -18.5t18.5 -45.5q0 -29 -18.5 -48t-45.5 -19q-30 0 -48.5 19t-18.5 48z" />
    <glyph glyph-name="uni1EE5" unicode="&#x1ee5;" horiz-adv-x="620" 
d="M234 -155q0 27 18.5 45.5t48.5 18.5q27 0 45.5 -18.5t18.5 -45.5q0 -29 -18.5 -48t-45.5 -19q-30 0 -48.5 19t-18.5 48zM545 473v-418q0 -25 -17.5 -42.5t-43.5 -17.5q-25 0 -43 17t-18 43v27q-64 -93 -165 -93q-89 0 -138.5 54.5t-49.5 148.5v281q0 26 17.5 43.5
t42.5 17.5q26 0 43.5 -17.5t17.5 -43.5v-245q0 -62 29.5 -95t83.5 -33t86.5 34.5t32.5 95.5v243q0 26 17.5 43.5t43.5 17.5q25 0 43 -17.5t18 -43.5z" />
    <glyph glyph-name="uni1EE6" unicode="&#x1ee6;" horiz-adv-x="757" 
d="M395 763h-1q-33 0 -35 27q-2 8 -2 18q-1 7 -1 20q0 25 30 31q36 3 36 21t-24 18q-12 0 -36 -15q-11 -11 -24 -11q-14 0 -24.5 8.5t-10.5 21.5q0 5 6 23q37 37 90 37q44 0 71 -23t27 -59q0 -30 -20.5 -51t-50.5 -28v-13q-4 -25 -31 -25zM377 -11q-139 0 -218.5 79.5
t-79.5 228.5v347q0 26 18 43.5t44 17.5t43.5 -17.5t17.5 -43.5v-342q0 -97 46.5 -148t130.5 -51q83 0 129.5 49.5t46.5 144.5v347q0 26 18 43.5t44 17.5t43.5 -17.5t17.5 -43.5v-341q0 -153 -80 -233.5t-221 -80.5z" />
    <glyph glyph-name="uni1EE7" unicode="&#x1ee7;" horiz-adv-x="620" 
d="M316 590h-1q-33 0 -35 27q-2 8 -2 18q-1 7 -1 20q0 25 30 31q36 3 36 21t-24 18q-12 0 -36 -15q-11 -11 -24 -11q-14 0 -24.5 8.5t-10.5 21.5q0 5 6 23q37 37 90 37q44 0 71 -23t27 -59q0 -30 -20.5 -51t-50.5 -28v-13q-4 -25 -31 -25zM545 473v-418q0 -25 -17.5 -42.5
t-43.5 -17.5q-25 0 -43 17t-18 43v27q-64 -93 -165 -93q-89 0 -138.5 54.5t-49.5 148.5v281q0 26 17.5 43.5t42.5 17.5q26 0 43.5 -17.5t17.5 -43.5v-245q0 -62 29.5 -95t83.5 -33t86.5 34.5t32.5 95.5v243q0 26 17.5 43.5t43.5 17.5q25 0 43 -17.5t18 -43.5z" />
    <glyph glyph-name="uni1EE8" unicode="&#x1ee8;" horiz-adv-x="757" 
d="M375 753q-30 0 -30 21q0 8 8 22l57 88q18 29 48 29q24 0 48 -12.5t24 -26.5q0 -15 -17 -30l-67 -64q-28 -27 -71 -27zM377 -11q-139 0 -218.5 79.5t-79.5 228.5v347q0 26 18 43.5t44 17.5t43.5 -17.5t17.5 -43.5v-342q0 -97 46.5 -148t130.5 -51q83 0 129.5 49.5
t46.5 144.5v347q0 26 18 43.5t44 17.5h2q4 0 14 -2q21 1 30.5 8.5t11 16t1.5 30.5v3q0 21 13.5 34t39.5 13q20 0 33 -13.5t13 -33.5v-1q0 -60 -21 -91t-76 -39v-327q0 -153 -80 -233.5t-221 -80.5z" />
    <glyph glyph-name="uni1EE9" unicode="&#x1ee9;" horiz-adv-x="620" 
d="M302 590q-30 0 -30 21q0 8 8 22l57 88q18 29 48 29q24 0 48 -12.5t24 -26.5q0 -15 -17 -30l-67 -64q-28 -27 -71 -27zM644 589v-1q0 -60 -22 -91.5t-77 -39.5v-402q0 -25 -17.5 -42.5t-43.5 -17.5q-25 0 -43 17t-18 43v27q-64 -93 -165 -93q-89 0 -138.5 54.5
t-49.5 148.5v281q0 26 17.5 43.5t42.5 17.5q26 0 43.5 -17.5t17.5 -43.5v-245q0 -62 29.5 -95t83.5 -33t86.5 34.5t32.5 95.5v243q0 26 17.5 43.5t43.5 17.5q10 0 19 -3q21 1 30 9t10.5 16.5t1.5 29.5v3q0 21 13.5 34t39.5 13q20 0 33 -13.5t13 -33.5z" />
    <glyph glyph-name="uni1EEA" unicode="&#x1eea;" horiz-adv-x="757" 
d="M397 753q-43 0 -70 27l-68 64q-17 15 -17 30q0 14 23.5 26.5t48.5 12.5q30 0 48 -29l57 -88q9 -16 9 -22q0 -21 -31 -21zM377 -11q-139 0 -218.5 79.5t-79.5 228.5v347q0 26 18 43.5t44 17.5t43.5 -17.5t17.5 -43.5v-342q0 -97 46.5 -148t130.5 -51q83 0 129.5 49.5
t46.5 144.5v347q0 26 18 43.5t44 17.5h2q4 0 14 -2q21 1 30.5 8.5t11 16t1.5 30.5v3q0 21 13.5 34t39.5 13q20 0 33 -13.5t13 -33.5v-1q0 -60 -21 -91t-76 -39v-327q0 -153 -80 -233.5t-221 -80.5z" />
    <glyph glyph-name="uni1EEB" unicode="&#x1eeb;" horiz-adv-x="620" 
d="M327 590q-43 0 -70 27l-68 64q-17 15 -17 30q0 14 23.5 26.5t48.5 12.5q30 0 48 -29l57 -88q9 -16 9 -22q0 -21 -31 -21zM644 589v-1q0 -60 -22 -91.5t-77 -39.5v-402q0 -25 -17.5 -42.5t-43.5 -17.5q-25 0 -43 17t-18 43v27q-64 -93 -165 -93q-89 0 -138.5 54.5
t-49.5 148.5v281q0 26 17.5 43.5t42.5 17.5q26 0 43.5 -17.5t17.5 -43.5v-245q0 -62 29.5 -95t83.5 -33t86.5 34.5t32.5 95.5v243q0 26 17.5 43.5t43.5 17.5q10 0 19 -3q21 1 30 9t10.5 16.5t1.5 29.5v3q0 21 13.5 34t39.5 13q20 0 33 -13.5t13 -33.5z" />
    <glyph glyph-name="uni1EEC" unicode="&#x1eec;" horiz-adv-x="757" 
d="M395 763h-1q-33 0 -35 27q-2 8 -2 18q-1 7 -1 20q0 25 30 31q36 3 36 21t-24 18q-12 0 -36 -15q-11 -11 -24 -11q-14 0 -24.5 8.5t-10.5 21.5q0 5 6 23q37 37 90 37q44 0 71 -23t27 -59q0 -30 -20.5 -51t-50.5 -28v-13q-4 -25 -31 -25zM377 -11q-139 0 -218.5 79.5
t-79.5 228.5v347q0 26 18 43.5t44 17.5t43.5 -17.5t17.5 -43.5v-342q0 -97 46.5 -148t130.5 -51q83 0 129.5 49.5t46.5 144.5v347q0 26 18 43.5t44 17.5h2q4 0 14 -2q21 1 30.5 8.5t11 16t1.5 30.5v3q0 21 13.5 34t39.5 13q20 0 33 -13.5t13 -33.5v-1q0 -60 -21 -91t-76 -39
v-327q0 -153 -80 -233.5t-221 -80.5z" />
    <glyph glyph-name="uni1EED" unicode="&#x1eed;" horiz-adv-x="620" 
d="M316 590h-1q-33 0 -35 27q-2 8 -2 18q-1 7 -1 20q0 25 30 31q36 3 36 21t-24 18q-12 0 -36 -15q-11 -11 -24 -11q-14 0 -24.5 8.5t-10.5 21.5q0 5 6 23q37 37 90 37q44 0 71 -23t27 -59q0 -30 -20.5 -51t-50.5 -28v-13q-4 -25 -31 -25zM644 588q0 -60 -22 -91.5
t-77 -39.5v-402q0 -25 -17.5 -42.5t-43.5 -17.5q-25 0 -43 17t-18 43v27q-64 -93 -165 -93q-89 0 -138.5 54.5t-49.5 148.5v281q0 26 17.5 43.5t42.5 17.5q26 0 43.5 -17.5t17.5 -43.5v-245q0 -62 29.5 -95t83.5 -33t86.5 34.5t32.5 95.5v243q0 26 17.5 43.5t43.5 17.5
q10 0 19 -3q21 1 30 9t10.5 16.5t1.5 29.5v3q0 21 13.5 34t39.5 13q20 0 33 -13.5t13 -33.5v-1z" />
    <glyph glyph-name="uni1EEE" unicode="&#x1eee;" horiz-adv-x="757" 
d="M306 794l-2 -3q-15 -21 -35 -20q-15 2 -25.5 12.5t-9.5 25.5q2 5 2 11q18 44 38.5 61.5t53.5 16.5q30 -1 66 -22l18 -10q20 -6 23 -7q15 0 22 17q25 25 39 25q15 -2 25.5 -13t10.5 -26l-3 -9q-3 -3 -3 -6q-16 -42 -37.5 -59t-56.5 -15q-23 1 -69 23q-2 2 -6 3t-6 2
q0 1 -2.5 3t-3.5 2v-1q-13 5 -18 5q-14 0 -21 -16zM377 -11q-139 0 -218.5 79.5t-79.5 228.5v347q0 26 18 43.5t44 17.5t43.5 -17.5t17.5 -43.5v-342q0 -97 46.5 -148t130.5 -51q83 0 129.5 49.5t46.5 144.5v347q0 26 18 43.5t44 17.5h2q4 0 14 -2q21 1 30.5 8.5t11 16
t1.5 30.5v3q0 21 13.5 34t39.5 13q20 0 33 -13.5t13 -33.5v-1q0 -60 -21 -91t-76 -39v-327q0 -153 -80 -233.5t-221 -80.5z" />
    <glyph glyph-name="uni1EEF" unicode="&#x1eef;" horiz-adv-x="620" 
d="M237 626l-2 -3q-15 -21 -35 -20q-15 2 -25.5 12.5t-9.5 25.5q2 5 2 11q18 44 38.5 61.5t53.5 16.5q30 -1 66 -22l18 -10q19 -6 23 -7q15 0 22 17q25 25 39 25q15 -2 25.5 -13t10.5 -26l-3 -9q-3 -3 -3 -6q-16 -42 -37.5 -59t-56.5 -15q-23 1 -69 23q-2 2 -6 3t-6 2
q0 1 -2.5 3t-3.5 2v-1q-13 5 -18 5q-14 0 -21 -16zM644 588q0 -60 -22 -91.5t-77 -39.5v-402q0 -25 -17.5 -42.5t-43.5 -17.5q-25 0 -43 17t-18 43v27q-64 -93 -165 -93q-89 0 -138.5 54.5t-49.5 148.5v281q0 26 17.5 43.5t42.5 17.5q26 0 43.5 -17.5t17.5 -43.5v-245
q0 -62 29.5 -95t83.5 -33t86.5 34.5t32.5 95.5v243q0 26 17.5 43.5t43.5 17.5q10 0 19 -3q21 1 30 9t10.5 16.5t1.5 29.5v3q0 21 13.5 34t39.5 13q20 0 33 -13.5t13 -33.5v-1z" />
    <glyph glyph-name="uni1EF0" unicode="&#x1ef0;" horiz-adv-x="757" 
d="M310 -155q0 27 18.5 45.5t48.5 18.5q27 0 45.5 -18.5t18.5 -45.5q0 -29 -18.5 -48t-45.5 -19q-30 0 -48.5 19t-18.5 48zM377 -11q-139 0 -218.5 79.5t-79.5 228.5v347q0 26 18 43.5t44 17.5t43.5 -17.5t17.5 -43.5v-342q0 -97 46.5 -148t130.5 -51q83 0 129.5 49.5
t46.5 144.5v347q0 26 18 43.5t44 17.5h2q4 0 14 -2q21 1 30.5 8.5t11 16t1.5 30.5v3q0 21 13.5 34t39.5 13q20 0 33 -13.5t13 -33.5v-1q0 -60 -21 -91t-76 -39v-327q0 -153 -80 -233.5t-221 -80.5z" />
    <glyph glyph-name="uni1EF1" unicode="&#x1ef1;" horiz-adv-x="620" 
d="M234 -155q0 27 18.5 45.5t48.5 18.5q27 0 45.5 -18.5t18.5 -45.5q0 -29 -18.5 -48t-45.5 -19q-30 0 -48.5 19t-18.5 48zM644 589v-1q0 -60 -22 -91.5t-77 -39.5v-402q0 -25 -17.5 -42.5t-43.5 -17.5q-25 0 -43 17t-18 43v27q-64 -93 -165 -93q-89 0 -138.5 54.5
t-49.5 148.5v281q0 26 17.5 43.5t42.5 17.5q26 0 43.5 -17.5t17.5 -43.5v-245q0 -62 29.5 -95t83.5 -33t86.5 34.5t32.5 95.5v243q0 26 17.5 43.5t43.5 17.5q10 0 19 -3q21 1 30 9t10.5 16.5t1.5 29.5v3q0 21 13.5 34t39.5 13q20 0 33 -13.5t13 -33.5z" />
    <glyph glyph-name="Ygrave" unicode="&#x1ef2;" horiz-adv-x="696" 
d="M287 56v216l-241 331q-14 21 -14 43q0 25 18 42t44 17q36 0 60 -37l195 -281l198 282q24 37 59 37q26 0 43 -17.5t17 -42.5q0 -21 -17 -44l-239 -327v-219q0 -26 -18 -43.5t-44 -17.5t-43.5 17.5t-17.5 43.5zM378 753q-43 0 -70 27l-68 64q-17 15 -17 30q0 14 23.5 26.5
t48.5 12.5q30 0 48 -29l57 -88q9 -16 9 -22q0 -21 -31 -21z" />
    <glyph glyph-name="ygrave" unicode="&#x1ef3;" 
d="M172 -163q-50 0 -84 15q-38 14 -38 50q0 23 14 36.5t35 13.5q13 0 22 -4q26 -7 42 -7q27 0 43.5 12.5t31.5 43.5l4 11l-196 438q-7 15 -7 29q0 26 17 42.5t43 16.5q41 0 59 -46l142 -351l132 351q20 46 58 46q24 0 41 -16.5t17 -40.5q0 -17 -5 -29l-193 -463
q-34 -81 -74 -114.5t-104 -33.5zM313 590q-43 0 -70 27l-68 64q-17 15 -17 30q0 14 23.5 26.5t48.5 12.5q30 0 48 -29l57 -88q9 -16 9 -22q0 -21 -31 -21z" />
    <glyph glyph-name="uni1EF4" unicode="&#x1ef4;" horiz-adv-x="696" 
d="M283 -155q0 27 18.5 45.5t48.5 18.5q27 0 45.5 -18.5t18.5 -45.5q0 -29 -18.5 -48t-45.5 -19q-30 0 -48.5 19t-18.5 48zM287 56v216l-241 331q-14 21 -14 43q0 25 18 42t44 17q36 0 60 -37l195 -281l198 282q24 37 59 37q26 0 43 -17.5t17 -42.5q0 -21 -17 -44l-239 -327
v-219q0 -26 -18 -43.5t-44 -17.5t-43.5 17.5t-17.5 43.5z" />
    <glyph glyph-name="uni1EF5" unicode="&#x1ef5;" 
d="M359 -155q0 27 18.5 45.5t48.5 18.5q27 0 45.5 -18.5t18.5 -45.5q0 -29 -18.5 -48t-45.5 -19q-30 0 -48.5 19t-18.5 48zM172 -163q-50 0 -84 15q-38 14 -38 50q0 23 14 36.5t35 13.5q13 0 22 -4q26 -7 42 -7q27 0 43.5 12.5t31.5 43.5l4 11l-196 438q-7 15 -7 29
q0 26 17 42.5t43 16.5q41 0 59 -46l142 -351l132 351q20 46 58 46q24 0 41 -16.5t17 -40.5q0 -17 -5 -29l-193 -463q-34 -81 -74 -114.5t-104 -33.5z" />
    <glyph glyph-name="uni1EF6" unicode="&#x1ef6;" horiz-adv-x="696" 
d="M356 763h-1q-33 0 -35 27q-2 8 -2 18q-1 7 -1 20q0 25 30 31q36 3 36 21t-24 18q-12 0 -36 -15q-11 -11 -24 -11q-14 0 -24.5 8.5t-10.5 21.5q0 5 6 23q37 37 90 37q44 0 71 -23t27 -59q0 -30 -20.5 -51t-50.5 -28v-13q-4 -25 -31 -25zM287 56v216l-241 331
q-14 21 -14 43q0 25 18 42t44 17q36 0 60 -37l195 -281l198 282q24 37 59 37q26 0 43 -17.5t17 -42.5q0 -21 -17 -44l-239 -327v-219q0 -26 -18 -43.5t-44 -17.5t-43.5 17.5t-17.5 43.5z" />
    <glyph glyph-name="uni1EF7" unicode="&#x1ef7;" 
d="M302 590h-1q-33 0 -35 27q-2 8 -2 18q-1 7 -1 20q0 25 30 31q36 3 36 21t-24 18q-12 0 -36 -15q-11 -11 -24 -11q-14 0 -24.5 8.5t-10.5 21.5q0 5 6 23q37 37 90 37q44 0 71 -23t27 -59q0 -30 -20.5 -51t-50.5 -28v-13q-4 -25 -31 -25zM172 -163q-50 0 -84 15
q-38 14 -38 50q0 23 14 36.5t35 13.5q13 0 22 -4q26 -7 42 -7q27 0 43.5 12.5t31.5 43.5l4 11l-196 438q-7 15 -7 29q0 26 17 42.5t43 16.5q41 0 59 -46l142 -351l132 351q20 46 58 46q24 0 41 -16.5t17 -40.5q0 -17 -5 -29l-193 -463q-34 -81 -74 -114.5t-104 -33.5z" />
    <glyph glyph-name="uni1EF8" unicode="&#x1ef8;" horiz-adv-x="696" 
d="M269 794l-2 -3q-15 -21 -35 -20q-15 2 -25.5 12.5t-9.5 25.5q2 5 2 11q18 44 38.5 61.5t53.5 16.5q30 -1 66 -22l18 -10q19 -6 23 -7q15 0 22 17q25 25 39 25q15 -2 25.5 -13t10.5 -26l-3 -9q-3 -3 -3 -6q-16 -42 -37.5 -59t-56.5 -15q-23 1 -69 23q-2 2 -6 3t-6 2
q0 1 -3 3l-3 2v-1q-13 5 -18 5q-14 0 -21 -16zM287 56v216l-241 331q-14 21 -14 43q0 25 18 42t44 17q36 0 60 -37l195 -281l198 282q24 37 59 37q26 0 43 -17.5t17 -42.5q0 -21 -17 -44l-239 -327v-219q0 -26 -18 -43.5t-44 -17.5t-43.5 17.5t-17.5 43.5z" />
    <glyph glyph-name="uni1EF9" unicode="&#x1ef9;" 
d="M224 626l-2 -3q-15 -21 -35 -20q-15 2 -25.5 12.5t-9.5 25.5q2 5 2 11q18 44 38.5 61.5t53.5 16.5q30 -1 66 -22l18 -10q19 -6 23 -7q15 0 22 17q25 25 39 25q15 -2 25.5 -13t10.5 -26l-3 -9q-3 -3 -3 -6q-16 -42 -37.5 -59t-56.5 -15q-23 1 -69 23q-2 2 -6 3t-6 2l-3 3
t-3 2v-1q-13 5 -18 5q-14 0 -21 -16zM172 -163q-50 0 -84 15q-38 14 -38 50q0 23 14 36.5t35 13.5q13 0 22 -4q26 -7 42 -7q27 0 43.5 12.5t31.5 43.5l4 11l-196 438q-7 15 -7 29q0 26 17 42.5t43 16.5q41 0 59 -46l142 -351l132 351q20 46 58 46q24 0 41 -16.5t17 -40.5
q0 -17 -5 -29l-193 -463q-34 -81 -74 -114.5t-104 -33.5z" />
    <glyph glyph-name="uni1EFA" unicode="&#x1efa;" horiz-adv-x="500" 
d="M502 455l-6 1q-47 2 -47 39q0 15 11.5 26.5t27.5 11.5q3 0 4.5 -1t2.5 -1q18 0 28.5 3t15 11.5t5.5 16t1 24.5v3q0 21 13.5 34t39.5 13q20 0 33 -13.5t13 -33.5v-1q0 -70 -30 -101.5t-112 -31.5z" />
    <glyph glyph-name="enspace" unicode="&#x2002;" horiz-adv-x="500" 
 />
    <glyph glyph-name="emspace" unicode="&#x2003;" horiz-adv-x="1000" 
 />
    <glyph glyph-name="threeperemspace" unicode="&#x2004;" horiz-adv-x="333" 
 />
    <glyph glyph-name="fourperemspace" unicode="&#x2005;" horiz-adv-x="250" 
 />
    <glyph glyph-name="thinspace" unicode="&#x2009;" horiz-adv-x="133" 
 />
    <glyph glyph-name="hairspace" unicode="&#x200a;" horiz-adv-x="75" 
 />
    <glyph glyph-name="endash" unicode="&#x2013;" horiz-adv-x="528" 
d="M420 249h-312q-23 0 -40 17t-17 40q0 24 17 41t40 17h312q23 0 40 -17t17 -41q0 -23 -17 -40t-40 -17z" />
    <glyph glyph-name="emdash" unicode="&#x2014;" horiz-adv-x="898" 
d="M790 249h-682q-23 0 -40 17t-17 40q0 24 17 41t40 17h682q23 0 40 -17t17 -41q0 -23 -17 -40t-40 -17z" />
    <glyph glyph-name="quoteleft" unicode="&#x2018;" horiz-adv-x="269" 
d="M235 676q0 -21 -24 -27q-71 -23 -68 -89q24 -7 40.5 -25t16.5 -43v-8q0 -30 -19 -48.5t-49 -18.5q-33 0 -52.5 23.5t-19.5 64.5v10q0 98 50 146q43 43 94 43q31 0 31 -28z" />
    <glyph glyph-name="quoteright" unicode="&#x2019;" horiz-adv-x="269" 
d="M35 446q0 20 23 27q71 23 68 90q-24 6 -40.5 23.5t-16.5 43.5v8q0 30 18.5 48.5t49.5 18.5q33 0 52.5 -23.5t19.5 -64.5v-10q0 -97 -49 -146q-43 -43 -94 -43q-31 0 -31 28z" />
    <glyph glyph-name="quotesinglbase" unicode="&#x201a;" horiz-adv-x="269" 
d="M30 -117q0 22 23 27q71 23 68 90q-24 7 -40.5 25t-16.5 43v8q0 30 19 48.5t49 18.5q34 0 53 -23.5t19 -64.5v-11q0 -95 -49 -146q-43 -43 -94 -43q-31 0 -31 28z" />
    <glyph glyph-name="quotedblleft" unicode="&#x201c;" horiz-adv-x="501" 
d="M467 676q0 -21 -24 -27q-71 -23 -68 -89q24 -7 40.5 -25t16.5 -43v-8q0 -30 -19 -48.5t-49 -18.5q-33 0 -52.5 23.5t-19.5 64.5v10q0 97 49 146q43 43 94 43q32 0 32 -28zM235 676q0 -21 -24 -27q-71 -23 -68 -89q24 -7 40.5 -25t16.5 -43v-8q0 -30 -19 -48.5t-49 -18.5
q-33 0 -52.5 23.5t-19.5 64.5v10q0 98 50 146q43 43 94 43q31 0 31 -28z" />
    <glyph glyph-name="quotedblright" unicode="&#x201d;" horiz-adv-x="501" 
d="M35 446q0 20 23 27q71 23 68 90q-24 6 -40.5 23.5t-16.5 43.5v8q0 30 18.5 48.5t49.5 18.5q33 0 52.5 -23.5t19.5 -64.5v-10q0 -97 -49 -146q-43 -43 -94 -43q-31 0 -31 28zM266 446q0 21 24 27q71 23 68 90q-24 6 -40.5 23.5t-16.5 43.5v8q0 30 18.5 48.5t49.5 18.5
q33 0 52.5 -23.5t19.5 -64.5v-10q0 -98 -50 -146q-43 -43 -94 -43q-31 0 -31 28z" />
    <glyph glyph-name="quotedblbase" unicode="&#x201e;" horiz-adv-x="501" 
d="M30 -117q0 22 23 27q71 23 68 90q-24 7 -40.5 25t-16.5 43v8q0 30 19 48.5t49 18.5q34 0 53 -23.5t19 -64.5v-11q0 -95 -49 -146q-43 -43 -94 -43q-31 0 -31 28zM261 -117q0 22 24 27q71 23 68 90q-24 7 -40.5 25t-16.5 43v8q0 30 19 48.5t49 18.5q33 0 52.5 -24
t19.5 -64v-11q0 -96 -50 -146q-43 -43 -94 -43q-31 0 -31 28z" />
    <glyph glyph-name="dagger" unicode="&#x2020;" horiz-adv-x="410" 
d="M170 270l8 243l-90 -7q-15 -2 -26 8.5t-11 25.5t10.5 25t25.5 8l90 -7l-9 98q-2 17 9.5 29t27.5 12t27.5 -12t9.5 -29l-8 -98l89 7q15 2 25.5 -8t10.5 -25t-11 -25.5t-26 -8.5l-89 7l7 -242q1 -17 -9.5 -27.5t-25.5 -10.5t-25.5 10.5t-9.5 26.5z" />
    <glyph glyph-name="daggerdbl" unicode="&#x2021;" horiz-adv-x="430" 
d="M178 36l9 98l-90 -7q-15 -2 -25.5 8t-10.5 25t11 25.5t26 8.5l89 -7l-8 163l8 163l-89 -7q-15 -2 -26 8.5t-11 25.5t10.5 25t25.5 8l90 -7l-9 98q-2 17 9.5 29t27.5 12t27.5 -12t9.5 -29l-8 -98l89 7q15 2 25.5 -8t10.5 -25t-11 -25.5t-26 -8.5l-89 7l8 -163l-8 -163
l89 7q15 2 26 -8.5t11 -25.5t-10.5 -25t-25.5 -8l-89 7l8 -98q2 -17 -9.5 -29t-27.5 -12t-27.5 12t-9.5 29z" />
    <glyph glyph-name="bullet" unicode="&#x2022;" horiz-adv-x="491" 
d="M246 211q-59 0 -100.5 41t-41.5 99v2q0 58 42.5 99.5t99.5 41.5t99 -41.5t42 -99.5v-2q0 -58 -41.5 -99t-99.5 -41z" />
    <glyph glyph-name="ellipsis" unicode="&#x2026;" horiz-adv-x="792" 
d="M590 64v10q0 30 19.5 49.5t49.5 19.5t49.5 -19.5t19.5 -49.5v-10q0 -30 -19.5 -49.5t-49.5 -19.5t-49.5 19.5t-19.5 49.5zM327 64v10q0 30 19.5 49.5t49.5 19.5t49.5 -19.5t19.5 -49.5v-10q0 -30 -19.5 -49.5t-49.5 -19.5t-49.5 19.5t-19.5 49.5zM64 64v10
q0 30 19.5 49.5t49.5 19.5t49.5 -19.5t19.5 -49.5v-10q0 -30 -19.5 -49.5t-49.5 -19.5t-49.5 19.5t-19.5 49.5z" />
    <glyph glyph-name="perthousand" unicode="&#x2030;" horiz-adv-x="1228" 
d="M212 350q-72 0 -118 51.5t-46 125.5v2q0 76 46.5 127.5t119.5 51.5t118.5 -51.5t45.5 -125.5v-2q0 -74 -46.5 -126.5t-119.5 -52.5zM154 34q0 13 9 26l459 627q10 18 34 18q17 0 28.5 -11t11.5 -28q0 -13 -9 -26l-459 -627q-12 -18 -35 -18q-17 0 -28 11t-11 28zM1014 -8
q-72 0 -118 51.5t-46 125.5v2q0 76 46.5 127.5t119.5 51.5q72 0 118 -51.5t46 -125.5v-2q0 -74 -46.5 -126.5t-119.5 -52.5zM635 -8q-72 0 -118 51.5t-46 125.5v2q0 76 46.5 127.5t119.5 51.5q72 0 118 -51.5t46 -125.5v-2q0 -74 -46.5 -126.5t-119.5 -52.5zM214 427
q34 0 54.5 28.5t20.5 71.5v2q0 43 -22 72.5t-55 29.5q-34 0 -54.5 -28.5t-20.5 -71.5v-2q0 -43 22 -72.5t55 -29.5zM1016 69q34 0 54.5 28.5t20.5 71.5v2q0 43 -22 72.5t-55 29.5q-34 0 -54.5 -28.5t-20.5 -71.5v-2q0 -43 22 -72.5t55 -29.5zM637 69q34 0 54.5 28.5
t20.5 71.5v2q0 43 -22 72.5t-55 29.5q-34 0 -54.5 -28.5t-20.5 -71.5v-2q0 -43 22 -72.5t55 -29.5z" />
    <glyph glyph-name="guilsinglleft" unicode="&#x2039;" horiz-adv-x="354" 
d="M237 42q-26 0 -42 21l-129 166q-14 19 -14 35q0 18 14 35l126 163q18 24 46 24q20 0 34 -15t14 -35q0 -17 -13 -34l-106 -137l108 -140q12 -15 12 -33q0 -21 -14.5 -35.5t-35.5 -14.5z" />
    <glyph glyph-name="guilsinglright" unicode="&#x203a;" horiz-adv-x="354" 
d="M117 486q25 0 42 -22l129 -165q15 -20 15 -36q0 -15 -15 -35l-126 -162q-18 -24 -45 -24q-21 0 -35 14.5t-14 35.5q0 18 14 34l105 136l-107 140q-13 16 -13 34q1 21 15 35.5t35 14.5z" />
    <glyph glyph-name="fraction" unicode="&#x2044;" horiz-adv-x="459" 
d="M-40 -57q0 14 7 27l419 768q13 25 43 25q20 0 34 -13t14 -33q0 -14 -7 -27l-419 -768q-13 -25 -43 -25q-20 0 -34 13t-14 33z" />
    <glyph glyph-name="Euro" unicode="&#x20ac;" horiz-adv-x="720" 
d="M670 140q0 -23 -12 -35q-91 -117 -224 -117q-109 0 -185 64t-105 173h-54q-18 0 -30.5 12.5t-12.5 30.5q0 17 12.5 30t30.5 13h39q-1 12 -1 38q0 36 2 46h-40q-18 0 -30.5 12.5t-12.5 29.5q0 18 12.5 30.5t30.5 12.5h56q31 105 105.5 168.5t178.5 63.5q134 0 222 -102
q16 -16 16 -41q0 -24 -17.5 -41t-41.5 -17q-28 0 -43 20q-31 37 -62.5 54t-76.5 17q-53 0 -93 -32t-61 -90h178q17 0 29.5 -12.5t12.5 -30.5q0 -17 -12.5 -29.5t-29.5 -12.5h-197q-2 -10 -2 -44q0 -27 1 -40h198q17 0 29.5 -13t12.5 -30q0 -18 -12.5 -30.5t-29.5 -12.5h-180
q44 -127 164 -127q42 0 73.5 19t63.5 57q17 20 43 20q23 0 39 -15.5t16 -38.5z" />
    <glyph glyph-name="published" unicode="&#x2117;" horiz-adv-x="830" 
d="M414 -12q-151 0 -256 105.5t-105 254.5v2q0 148 105.5 255t257.5 107q151 0 256 -105.5t105 -254.5v-2q0 -148 -105.5 -255t-257.5 -107zM414 24q137 0 231 95.5t94 230.5v2q0 135 -93 229.5t-230 94.5t-231 -95.5t-94 -230.5v-2q0 -135 93 -229.5t230 -94.5zM286 199
v311q0 15 11 26t26 11h116q68 0 107.5 -34.5t39.5 -93.5v-2q0 -62 -44.5 -96t-110.5 -34h-71v-88q0 -16 -11 -26.5t-26 -10.5t-26 10.5t-11 26.5zM360 352h73q36 0 57 17.5t21 46.5v2q0 30 -20.5 46.5t-57.5 16.5h-73v-129z" />
    <glyph glyph-name="servicemark" unicode="&#x2120;" horiz-adv-x="705" 
d="M356 415v259q0 12 8.5 20.5t20.5 8.5h7q17 0 26 -15l93 -148l94 148q9 15 25 15h7q12 0 20 -8.5t8 -20.5v-259q0 -12 -8 -20t-20 -8t-20 8t-8 20v180l-74 -112q-11 -15 -24 -15q-15 0 -26 15l-72 111v-179q0 -12 -8.5 -20t-20.5 -8q-11 0 -19.5 8t-8.5 20zM33 448
q0 25 25 25q10 0 18 -6q47 -33 95 -33q60 0 60 40q0 17 -15.5 27t-57.5 20q-58 14 -85.5 33t-27.5 58v1q0 41 31.5 67t82.5 26q59 0 103 -29q15 -9 15 -24q0 -11 -7.5 -18.5t-18.5 -7.5q-8 0 -16 5q-39 24 -77 24q-26 0 -41 -10.5t-15 -26.5q0 -18 16 -28t59 -20
q55 -12 83 -32.5t28 -58.5q0 -44 -33 -69t-87 -25q-68 0 -122 39q-13 10 -13 23z" />
    <glyph glyph-name="trademark" unicode="&#x2122;" horiz-adv-x="690" 
d="M121 416v230h-74q-11 0 -18.5 8t-7.5 19t7.5 19t18.5 8h207q11 0 18.5 -8t7.5 -19t-7.5 -19t-18.5 -8h-74v-230q0 -12 -8.5 -20.5t-21.5 -8.5q-12 0 -20.5 8.5t-8.5 20.5zM341 415v259q0 12 8.5 20.5t20.5 8.5h7q18 0 27 -15l92 -148l94 148q9 15 26 15h7q11 0 19.5 -8.5
t8.5 -20.5v-259q0 -12 -8.5 -20t-20.5 -8q-11 0 -19.5 8t-8.5 20v180l-73 -112q-12 -15 -25 -15q-14 0 -25 15l-73 111v-179q0 -12 -8.5 -20t-19.5 -8q-12 0 -20.5 8t-8.5 20z" />
    <glyph glyph-name="minus" unicode="&#x2212;" horiz-adv-x="634" 
d="M514 295h-395q-23 0 -39.5 16.5t-16.5 39.5q0 24 16.5 40.5t39.5 16.5h395q24 0 40.5 -16.5t16.5 -40.5q0 -23 -16.5 -39.5t-40.5 -16.5z" />
    <glyph glyph-name="f_f" unicode="&#xfb00;" horiz-adv-x="752" 
d="M103 55v369h-21q-21 0 -36 14.5t-15 35.5t15 36t36 15h21v39q0 87 43 130q42 42 119 42q33 0 61 -5q18 -2 30 -16t12 -34q0 -21 -15 -36t-36 -14q-14 2 -25 2q-70 0 -70 -80v-29h94q22 0 36.5 -14.5t14.5 -35.5t-15 -35.5t-36 -14.5h-92v-369q0 -25 -17.5 -42.5
t-43.5 -17.5q-25 0 -42.5 17.5t-17.5 42.5zM479 55v369h-21q-21 0 -36 14.5t-15 35.5t15 36t36 15h21v39q0 87 43 130q42 42 119 42q33 0 61 -5q18 -2 30 -16t12 -34q0 -21 -15 -36t-36 -14q-14 2 -25 2q-70 0 -70 -80v-29h94q22 0 36.5 -14.5t14.5 -35.5t-15 -35.5
t-36 -14.5h-92v-369q0 -25 -17.5 -42.5t-43.5 -17.5q-25 0 -42.5 17.5t-17.5 42.5z" />
    <glyph glyph-name="fi" unicode="&#xfb01;" horiz-adv-x="662" 
d="M450 664v6q0 27 19.5 43t49.5 16t49.5 -16t19.5 -43v-6q0 -27 -19.5 -43.5t-49.5 -16.5t-49.5 16.5t-19.5 43.5zM459 55v418q0 26 17 43.5t43 17.5t43.5 -17.5t17.5 -43.5v-418q0 -26 -17.5 -43t-43.5 -17q-25 0 -42.5 17t-17.5 43zM103 55v369h-21q-21 0 -36 14.5
t-15 35.5t15 36t36 15h21v39q0 87 43 130q42 42 119 42q33 0 61 -5q18 -2 30 -16t12 -34q0 -21 -15 -36t-36 -14q-14 2 -25 2q-70 0 -70 -80v-29h94q22 0 36.5 -14.5t14.5 -35.5t-15 -35.5t-36 -14.5h-92v-369q0 -25 -17.5 -42.5t-43.5 -17.5q-25 0 -42.5 17.5t-17.5 42.5z
" />
    <glyph glyph-name="fl" unicode="&#xfb02;" horiz-adv-x="662" 
d="M459 55v620q0 25 17 42.5t43 17.5t43.5 -17.5t17.5 -42.5v-620q0 -26 -17.5 -43t-43.5 -17q-25 0 -42.5 17t-17.5 43zM103 55v369h-21q-21 0 -36 14.5t-15 35.5t15 36t36 15h21v39q0 87 43 130q42 42 119 42q33 0 61 -5q18 -2 30 -16t12 -34q0 -21 -15 -36t-36 -14
q-14 2 -25 2q-70 0 -70 -80v-29h94q22 0 36.5 -14.5t14.5 -35.5t-15 -35.5t-36 -14.5h-92v-369q0 -25 -17.5 -42.5t-43.5 -17.5q-25 0 -42.5 17.5t-17.5 42.5z" />
    <glyph glyph-name="f_f_i" unicode="&#xfb03;" horiz-adv-x="1038" 
d="M826 664v6q0 27 19.5 43t49.5 16t49.5 -16t19.5 -43v-6q0 -27 -19.5 -43.5t-49.5 -16.5t-49.5 16.5t-19.5 43.5zM835 55v418q0 26 17 43.5t43 17.5t43.5 -17.5t17.5 -43.5v-418q0 -26 -17.5 -43t-43.5 -17q-25 0 -42.5 17t-17.5 43zM103 55v369h-21q-21 0 -36 14.5
t-15 35.5t15 36t36 15h21v39q0 87 43 130q42 42 119 42q33 0 61 -5q18 -2 30 -16t12 -34q0 -21 -15 -36t-36 -14q-14 2 -25 2q-70 0 -70 -80v-29h94q22 0 36.5 -14.5t14.5 -35.5t-15 -35.5t-36 -14.5h-92v-369q0 -25 -17.5 -42.5t-43.5 -17.5q-25 0 -42.5 17.5t-17.5 42.5z
M479 55v369h-21q-21 0 -36 14.5t-15 35.5t15 36t36 15h21v39q0 87 43 130q42 42 119 42q33 0 61 -5q18 -2 30 -16t12 -34q0 -21 -15 -36t-36 -14q-14 2 -25 2q-70 0 -70 -80v-29h94q22 0 36.5 -14.5t14.5 -35.5t-15 -35.5t-36 -14.5h-92v-369q0 -25 -17.5 -42.5t-43.5 -17.5
q-25 0 -42.5 17.5t-17.5 42.5z" />
    <glyph glyph-name="f_f_l" unicode="&#xfb04;" horiz-adv-x="1038" 
d="M103 55v369h-21q-21 0 -36 14.5t-15 35.5t15 36t36 15h21v39q0 87 43 130q42 42 119 42q33 0 61 -5q18 -2 30 -16t12 -34q0 -21 -15 -36t-36 -14q-14 2 -25 2q-70 0 -70 -80v-29h94q22 0 36.5 -14.5t14.5 -35.5t-15 -35.5t-36 -14.5h-92v-369q0 -25 -17.5 -42.5
t-43.5 -17.5q-25 0 -42.5 17.5t-17.5 42.5zM479 55v369h-21q-21 0 -36 14.5t-15 35.5t15 36t36 15h21v39q0 87 43 130q42 42 119 42q33 0 61 -5q18 -2 30 -16t12 -34q0 -21 -15 -36t-36 -14q-14 2 -25 2q-70 0 -70 -80v-29h94q22 0 36.5 -14.5t14.5 -35.5t-15 -35.5
t-36 -14.5h-92v-369q0 -25 -17.5 -42.5t-43.5 -17.5q-25 0 -42.5 17.5t-17.5 42.5zM835 55v620q0 25 17 42.5t43 17.5t43.5 -17.5t17.5 -42.5v-620q0 -26 -17.5 -43t-43.5 -17q-25 0 -42.5 17t-17.5 43z" />
    <glyph glyph-name="NUL" horiz-adv-x="0" 
 />
    <glyph glyph-name="CR" horiz-adv-x="300" 
 />
    <glyph glyph-name="space.001" horiz-adv-x="300" 
 />
    <glyph glyph-name="registered.alt.001" horiz-adv-x="830" 
d="M414 -12q-151 0 -256 105.5t-105 254.5v2q0 148 105.5 255t257.5 107q151 0 256 -105.5t105 -254.5v-2q0 -148 -105.5 -255t-257.5 -107zM414 19q140 0 235 97.5t95 233.5v2q0 137 -94.5 233t-233.5 96q-140 0 -235 -97.5t-95 -233.5v-2q0 -137 94.5 -233t233.5 -96z
M273 197v322q0 11 8 19t19 8h139q71 0 110 -39q30 -27 30 -72v-2q0 -43 -25.5 -70.5t-69.5 -37.5l88 -109q7 -12 7 -20q0 -11 -8 -18.5t-19 -7.5q-14 0 -23 12l-105 133h-96v-118q0 -11 -8.5 -19t-19.5 -8t-19 8t-8 19zM328 364h106q40 0 64 17t24 49v2q0 29 -22.5 46.5
t-62.5 17.5h-109v-132z" />
    <glyph glyph-name="hfjslug.001" horiz-adv-x="694" 
d="M644 -200h-208l-8 14h-163l-8 -14h-207v303q14 0 23 9t9 23q0 13 -9 22.5t-23 9.5v554h100l30 79h334l29 -79h101v-921zM400 563v-172h15v78h38v14h-38v66h43v14h-58zM184 563v-172h15v79h47v-79h15v172h-15v-79h-47v79h-15zM460 409v-15q9 -4 21 -4q31 0 31 36v137h-16
v-137q0 -22 -16 -22q-12 0 -20 5zM371 465l-13 3q-2 -4 -4 -15t-4 -15h-1l-16 31q23 21 23 42q0 31 -27 31q-12 0 -20 -9t-8 -22t14 -39q-23 -18 -23 -47q0 -17 8 -27t21 -10q19 0 29 24h1l12 -24l12 6l-17 32q7 17 13 39zM523 323v-46h8v12l8 8l15 -20h10l-20 26l18 20h-10
l-20 -24h-1v24h-8zM488 292l10 -15h9l-12 17q10 4 10 14q0 15 -17 15h-20v-46h8v15h12zM426 276q11 0 17.5 7t6.5 17t-6.5 17t-17.5 7t-17.5 -7t-6.5 -17t6.5 -17t17.5 -7zM370 301l-13 22h-9l18 -29v-17h8v17l18 29h-9zM193 323v-46h34v7h-26v13h23v7h-23v12h26v7h-34z
M132 323v-46h8v32l25 -32h7v46h-8v-32l-25 32h-7zM241 323l14 -47h8l11 34h1l11 -34h8l14 47h-8l-10 -35h-1l-11 35h-7l-11 -35h-1l-10 35h-8zM327 479q-12 22 -12 32q0 19 14 19q13 0 13 -19q0 -15 -15 -32zM322 462l20 -39q-8 -21 -20 -21q-16 0 -16 25q0 19 16 35z
M487 299h-11v17h11q10 0 10 -8q0 -9 -10 -9zM426 283q-16 0 -16 17t16 17t16 -17t-16 -17z" />
    <glyph glyph-name="i.dot.001" horiz-adv-x="263" 
d="M86 666v13q0 18 13 29.5t32 11.5q20 0 33 -11t13 -30v-13q0 -18 -13 -29.5t-33 -11.5q-19 0 -32 11.5t-13 29.5zM93 34v449q0 16 11 27.5t27 11.5q17 0 28 -11t11 -28v-449q0 -17 -10.5 -28t-27.5 -11t-28 11t-11 28z" />
    <glyph glyph-name="caron.alt.001" horiz-adv-x="500" 
d="M210 584l9 116q3 32 34 32h15q22 0 22 -21q0 -7 -5 -24l-35 -106q-6 -20 -22 -20q-22 0 -18 23z" />
    <glyph glyph-name="uni1EA1.salt.001" horiz-adv-x="663" 
d="M286 -138q0 20 13.5 33.5t34.5 13.5q20 0 33.5 -13.5t13.5 -33.5t-13.5 -34t-33.5 -14q-21 0 -34.5 14t-13.5 34zM501 418v65q0 16 10.5 27.5t27.5 11.5t28 -11.5t11 -27.5v-449q0 -17 -11 -28t-27 -11q-17 0 -28 11t-11 28v70q-80 -115 -198 -115q-99 0 -173 73t-74 195
v2q0 121 74 195t173 74q123 0 198 -110zM317 459q-78 0 -130 -54t-52 -145v-2q0 -89 53.5 -144.5t128.5 -55.5t131 56.5t56 143.5v2q0 86 -56 142.5t-131 56.5z" />
    <glyph glyph-name="uni1EA3.salt.001" horiz-adv-x="663" 
d="M371 591h-1q-24 0 -26 20l-3 37q0 19 23 24q37 3 37 27q0 25 -27 25q-21 0 -39 -18q-7 -9 -18 -9q-10 0 -18 7.5t-8 17.5q0 13 5 18q34 35 79 35q38 0 61 -21.5t23 -54.5q0 -29 -19 -47.5t-47 -24.5v-17q-3 -19 -22 -19zM501 418v65q0 16 10.5 27.5t27.5 11.5t28 -11.5
t11 -27.5v-449q0 -17 -11 -28t-27 -11q-17 0 -28 11t-11 28v70q-80 -115 -198 -115q-99 0 -173 73t-74 195v2q0 121 74 195t173 74q123 0 198 -110zM317 459q-78 0 -130 -54t-52 -145v-2q0 -89 53.5 -144.5t128.5 -55.5t131 56.5t56 143.5v2q0 86 -56 142.5t-131 56.5z" />
    <glyph glyph-name="a.salt.001" horiz-adv-x="664" 
d="M501 418v65q0 16 10.5 27.5t27.5 11.5t28 -11.5t11 -27.5v-449q0 -17 -11 -28t-27 -11q-17 0 -28 11t-11 28v70q-80 -115 -198 -115q-99 0 -173 73t-74 195v2q0 121 74 195t173 74q123 0 198 -110zM317 459q-78 0 -130 -54t-52 -145v-2q0 -89 53.5 -144.5t128.5 -55.5
t131 56.5t56 143.5v2q0 86 -56 142.5t-131 56.5z" />
    <glyph glyph-name="aacute.salt.001" horiz-adv-x="664" 
d="M346 591q-19 0 -19 14q0 7 5 15l60 91q15 23 36 23q18 0 36 -9.5t18 -20.5q0 -9 -14 -23l-75 -71q-19 -19 -47 -19zM501 418v65q0 16 10.5 27.5t27.5 11.5t28 -11.5t11 -27.5v-449q0 -17 -11 -28t-27 -11q-17 0 -28 11t-11 28v70q-80 -115 -198 -115q-99 0 -173 73
t-74 195v2q0 121 74 195t173 74q123 0 198 -110zM317 459q-78 0 -130 -54t-52 -145v-2q0 -89 53.5 -144.5t128.5 -55.5t131 56.5t56 143.5v2q0 86 -56 142.5t-131 56.5z" />
    <glyph glyph-name="agrave.salt.001" horiz-adv-x="664" 
d="M501 418v65q0 16 10.5 27.5t27.5 11.5t28 -11.5t11 -27.5v-449q0 -17 -11 -28t-27 -11q-17 0 -28 11t-11 28v70q-80 -115 -198 -115q-99 0 -173 73t-74 195v2q0 121 74 195t173 74q123 0 198 -110zM317 459q-78 0 -130 -54t-52 -145v-2q0 -89 53.5 -144.5t128.5 -55.5
t131 56.5t56 143.5v2q0 86 -56 142.5t-131 56.5zM403 591q-28 0 -47 19l-75 71q-14 14 -14 23q0 11 17.5 20.5t36.5 9.5q21 0 36 -23l60 -91q5 -8 5 -15q0 -14 -19 -14z" />
    <glyph glyph-name="acircumflex.salt.001" horiz-adv-x="664" 
d="M368 662l-59 -52q-20 -19 -48 -19q-18 0 -18 14q0 6 7 17l70 86q19 22 40 22h18q21 0 40 -22l70 -86q7 -11 7 -17q0 -14 -19 -14q-29 0 -49 19zM501 418v65q0 16 10.5 27.5t27.5 11.5t28 -11.5t11 -27.5v-449q0 -17 -11 -28t-27 -11q-17 0 -28 11t-11 28v70
q-80 -115 -198 -115q-99 0 -173 73t-74 195v2q0 121 74 195t173 74q123 0 198 -110zM317 459q-78 0 -130 -54t-52 -145v-2q0 -89 53.5 -144.5t128.5 -55.5t131 56.5t56 143.5v2q0 86 -56 142.5t-131 56.5z" />
    <glyph glyph-name="atilde.salt.001" horiz-adv-x="664" 
d="M501 418v65q0 16 10.5 27.5t27.5 11.5t28 -11.5t11 -27.5v-449q0 -17 -11 -28t-27 -11q-17 0 -28 11t-11 28v70q-80 -115 -198 -115q-99 0 -173 73t-74 195v2q0 121 74 195t173 74q123 0 198 -110zM317 459q-78 0 -130 -54t-52 -145v-2q0 -89 53.5 -144.5t128.5 -55.5
t131 56.5t56 143.5v2q0 86 -56 142.5t-131 56.5zM292 618q-13 -17 -25 -16q-11 1 -18.5 8t-6.5 17q1 7 1 9q15 36 32 50.5t43 13.5q22 -1 54 -18q31 -15 36 -15q19 0 28 20q15 15 25 15q26 -2 26 -26q0 -1 -3 -10l-1 -1q-14 -34 -32 -48.5t-45 -13.5q-23 1 -57 21
q-26 12 -32 12q-17 0 -25 -18z" />
    </font>
</defs>
</svg>
